<svg xmlns="http://www.w3.org/2000/svg" width="244" height="319" fill="none" viewBox="0 0 244 319"><g clip-path="url(#clip0_81_247)"><path fill="#fff" stroke="#250767" stroke-linecap="round" stroke-linejoin="round" stroke-miterlimit="10" d="M232.125 50.6146C235.232 54.9866 235.642 60.8696 232.657 65.3216C229.205 70.4846 223.545 70.9886 219.906 70.6796C219.863 70.8666 219.812 71.0676 219.762 71.2836C217.425 70.4996 214.153 69.8816 210.672 69.1186C207.306 68.3846 204.358 67.6516 202.136 67.3996C202.158 67.3496 202.172 67.2916 202.194 67.2416C195.98 59.3666 197.333 53.2186 200.576 48.8966C202.669 46.1066 205.459 44.0426 208.551 42.7836C209.069 39.9216 210.148 36.2896 211.003 32.2196C212.923 23.1296 213.01 15.3126 217.641 16.2906C222.279 17.2686 224.48 25.4306 222.56 34.5206C221.985 37.2676 220.505 40.2406 219.412 42.3836C219.7 42.4556 220.415 42.8926 220.695 42.9716C221.601 40.7496 223.049 37.6196 224.732 35.3836C230.313 27.9546 237.907 24.2446 241.697 27.0916C245.48 29.9396 239.647 35.1456 234.067 42.5676C232.6 44.5236 231.298 46.4296 230.105 48.1336C230.859 48.9606 231.542 49.8016 232.125 50.6146Z"/><path fill="#250767" stroke="#250767" stroke-linecap="round" stroke-linejoin="round" stroke-miterlimit="10" d="M230.939 56.8366C229.351 57.7386 227.589 57.9646 225.807 57.5916C223.979 57.2096 222.257 56.3326 220.591 55.5216C217.39 53.9646 213.822 52.1216 210.226 53.1396C211.015 53.8336 211.621 54.6796 212.114 55.6266C212.699 56.7526 213.171 57.9496 213.934 58.9746C217.054 63.1686 223.039 64.0026 227.88 63.2686C230.264 62.9066 232.443 62.0366 234.472 60.8696C234.857 58.8256 234.716 56.6976 234.108 54.6776C233.91 54.7636 233.712 54.8646 233.511 54.9946C232.621 55.5676 231.865 56.3106 230.939 56.8366Z"/><path fill="#009CA4" stroke="#250767" stroke-linecap="round" stroke-linejoin="round" stroke-miterlimit="10" d="M219.762 71.2836C219.388 72.8226 218.813 74.9366 218.007 77.4176C212.879 93.1456 198.194 123.551 162.769 114.462L165.178 92.8656C166.041 92.7646 187.615 98.3096 199.884 72.7366C200.675 71.0896 201.43 69.3136 202.135 67.4006C204.357 67.6526 207.306 68.3856 210.671 69.1196C214.153 69.8806 217.425 70.4996 219.762 71.2836Z"/><path fill="#009CA4" stroke="#250767" stroke-linecap="round" stroke-linejoin="round" stroke-miterlimit="10" d="M219.762 71.2836C219.388 72.8226 218.813 74.9366 218.007 77.4176C212.879 93.1456 198.194 123.551 162.769 114.462L165.178 92.8656C166.041 92.7646 187.615 98.3096 199.884 72.7366C200.675 71.0896 201.43 69.3136 202.135 67.4006C204.357 67.6526 207.306 68.3856 210.671 69.1196C214.153 69.8806 217.425 70.4996 219.762 71.2836Z"/><path fill="#F7B245" stroke="#250767" stroke-linecap="round" stroke-linejoin="round" stroke-miterlimit="10" d="M223.236 74.4766C222.898 76.0296 220.899 77.0586 218.008 77.4176C215.606 77.7196 212.586 77.5546 209.4 76.8566C205.373 75.9796 201.95 74.4326 199.886 72.7356C198.354 71.4776 197.563 70.1326 197.829 68.9166C198.153 67.4356 199.72 67.1336 202.137 67.3996C204.359 67.6516 207.308 68.3846 210.673 69.1186C214.154 69.8806 217.426 70.4996 219.763 71.2836C222.136 72.0746 223.545 73.0376 223.236 74.4766Z"/><path fill="#fff" stroke="#250767" stroke-linecap="round" stroke-linejoin="round" stroke-miterlimit="10" d="M235.649 55.4546C233.543 59.3456 229.401 61.1826 226.397 59.5576C223.393 57.9316 223.802 55.7456 225.908 51.8536C228.014 47.9626 231.018 43.8396 234.022 45.4656C237.026 47.0906 237.755 51.5636 235.649 55.4546Z"/><path fill="#fff" d="M208.771 53.3086C208.771 53.3086 211.708 52.4126 214.218 54.9636C216.064 56.8406 218.333 58.2786 220.924 58.7486C224.006 59.3086 227.4 58.8726 227.965 54.5206C228.107 53.4246 228.009 52.3026 227.714 51.2376C226.939 48.4456 224.368 43.3396 215.84 41.1526"/><path stroke="#250767" stroke-linecap="round" stroke-linejoin="round" stroke-miterlimit="10" d="M208.771 53.3086C208.771 53.3086 211.708 52.4126 214.218 54.9636C216.064 56.8406 218.333 58.2786 220.924 58.7486C224.006 59.3086 227.4 58.8726 227.965 54.5206C228.107 53.4246 228.009 52.3026 227.714 51.2376C226.939 48.4456 224.368 43.3396 215.84 41.1526"/><path fill="#fff" stroke="#250767" stroke-linecap="round" stroke-linejoin="round" stroke-miterlimit="10" d="M46.1243 172.84C46.1243 172.84 61.4673 177.338 60.6203 192.384C60.3353 197.451 58.0673 202.197 54.6123 205.913C43.7913 217.55 30.7133 219.931 15.7103 214.421C12.3163 213.175 9.35933 210.857 7.60933 207.694C5.45333 203.796 4.82433 198.551 13.6293 195.295C13.6293 195.295 6.73333 186.623 16.9913 182.186C16.9913 182.186 11.6853 167.154 31.9043 171.322L46.1243 172.84Z"/><path fill="#250767" stroke="#250767" stroke-linecap="round" stroke-linejoin="round" stroke-miterlimit="10" d="M24.1334 185.326C23.9534 185.374 23.4464 184.478 23.2704 184.572C21.8144 185.354 21.1914 186.911 20.5134 188.318C19.7794 189.842 19.2284 191.348 19.0434 193.044C18.4434 198.556 21.3114 203.859 26.4504 206.059C28.8614 207.091 31.6574 207.717 34.3064 207.392C32.6954 206.747 31.1924 205.857 29.8334 204.77C23.9184 200.039 22.8624 192.816 24.1334 185.326Z"/><path fill="#250767" d="M48.3043 198.095C48.0273 198.101 47.7453 198.042 47.4793 197.91C46.6043 197.475 46.2473 196.412 46.6823 195.536C47.1803 194.533 47.3053 193.337 47.0243 192.253C46.7433 191.168 46.0523 190.183 45.1293 189.549C44.3233 188.996 44.1193 187.893 44.6723 187.087C45.2263 186.282 46.3283 186.078 47.1353 186.631C48.7513 187.741 49.9603 189.466 50.4523 191.364C50.9443 193.261 50.7263 195.357 49.8533 197.113C49.5503 197.723 48.9423 198.081 48.3043 198.095Z"/><path fill="#250767" d="M53.5453 195.82C53.2693 195.826 52.9863 195.767 52.7203 195.635C51.8453 195.2 51.4883 194.137 51.9233 193.261C52.4213 192.258 52.5463 191.062 52.2653 189.978C51.9843 188.894 51.2933 187.908 50.3693 187.274C49.5633 186.721 49.3593 185.618 49.9133 184.812C50.4673 184.007 51.5693 183.803 52.3753 184.356C53.9913 185.466 55.2003 187.192 55.6923 189.089C56.1843 190.986 55.9663 193.082 55.0933 194.838C54.7913 195.449 54.1833 195.807 53.5453 195.82Z"/><path fill="#F7B245" d="M13.6293 195.296C13.6293 195.296 21.0033 194.637 24.1393 195.35L13.6293 195.296Z"/><path stroke="#250767" stroke-linecap="round" stroke-linejoin="round" stroke-miterlimit="10" d="M13.6293 195.296C13.6293 195.296 21.0033 194.637 24.1393 195.35"/><path stroke="#250767" stroke-linecap="round" stroke-linejoin="round" stroke-miterlimit="10" d="M24.1333 185.326C24.1333 185.326 20.0513 203.495 35.7413 207.697"/><path fill="#F7B245" d="M16.9912 182.187C16.9912 182.187 20.7942 181.738 23.1382 182.553L16.9912 182.187Z"/><path stroke="#250767" stroke-linecap="round" stroke-linejoin="round" stroke-miterlimit="10" d="M16.9912 182.187C16.9912 182.187 20.7942 181.738 23.1382 182.553"/><path fill="#fff" stroke="#250767" stroke-linecap="round" stroke-linejoin="round" stroke-miterlimit="10" d="M47.2733 171.298C49.9763 175.756 46.9873 182.51 40.5973 186.384C34.2073 190.258 26.8363 189.784 24.1333 185.326C21.4303 180.868 24.4203 174.114 30.8103 170.24C37.1993 166.366 44.5703 166.84 47.2733 171.298Z"/><path fill="#009CA4" stroke="#250767" stroke-linecap="round" stroke-linejoin="round" stroke-miterlimit="10" d="M26.7113 180.747L6.75132 155.239C2.13232 149.336 3.02432 140.834 8.76832 136.019L34.1693 114.723L51.8073 136.574L26.7243 151.576L41.8183 170.968C43.2793 172.845 43.8843 175.332 43.1523 177.594C42.2673 180.33 39.8583 182.261 36.3003 183.585C32.8563 184.866 28.9753 183.641 26.7113 180.747Z"/><path fill="#F25B62" stroke="#250767" stroke-linecap="round" stroke-linejoin="round" stroke-miterlimit="10" d="M82.2083 284.939C94.3933 284.939 104.271 277.698 104.271 268.767C104.271 259.835 94.3933 252.595 82.2083 252.595C70.0232 252.595 60.1453 259.835 60.1453 268.767C60.1453 277.698 70.0232 284.939 82.2083 284.939Z"/><path fill="#fff" stroke="#250767" stroke-linecap="round" stroke-linejoin="round" stroke-miterlimit="10" d="M99.2692 254.109C99.2692 260.012 90.9423 263.741 81.4123 263.741C71.8833 263.741 64.7603 260.012 64.7603 254.109C64.7603 248.206 72.4852 243.421 82.0142 243.421C91.5442 243.421 99.2692 248.206 99.2692 254.109Z"/><path fill="#fff" stroke="#250767" stroke-linecap="round" stroke-linejoin="round" stroke-miterlimit="10" d="M102.694 308.767C97.7233 314.179 89.9663 317.675 81.2443 317.675C70.4903 317.675 61.2103 312.379 56.7863 304.691C55.8343 303.019 56.1473 300.893 57.5523 299.581C57.5523 299.569 57.5643 299.569 57.5753 299.558C57.7613 299.384 57.9583 299.198 58.1563 299.035C62.9523 305.574 71.5003 309.929 81.2443 309.929C89.5483 309.929 96.9803 306.758 101.963 301.776C102.451 302.438 102.892 303.146 103.299 303.878C104.181 305.457 103.926 307.432 102.694 308.767Z"/><path fill="#F25B62" stroke="#250767" stroke-linecap="round" stroke-linejoin="round" stroke-miterlimit="10" d="M108.432 286.829C108.432 292.531 106.005 297.746 101.963 301.776C96.9813 306.758 89.5483 309.929 81.2443 309.929C71.5003 309.929 62.9523 305.574 58.1563 299.035C55.5433 295.493 54.0453 291.312 54.0453 286.829C54.0453 274.077 66.2163 263.741 81.2443 263.741C96.2613 263.741 108.432 274.077 108.432 286.829Z"/><path fill="#F25B62" d="M67.3143 271.549C68.5133 270.252 70.2943 269.377 71.9573 268.777C81.0393 265.495 92.5863 266.05 96.3013 273.885C96.8983 275.144 97.1873 276.866 96.0473 278.165C95.4043 278.897 94.4403 279.302 93.5433 279.427C92.6473 279.551 91.7943 279.432 90.9483 279.329C86.3063 278.763 81.4943 278.674 76.6083 279.065C74.8453 279.206 73.0603 279.41 71.3623 279.272C69.6643 279.135 68.0313 278.625 66.9823 277.501C65.6513 276.075 65.5243 273.487 67.3143 271.549Z" opacity=".59"/><path fill="#009CA4" stroke="#250767" stroke-linecap="round" stroke-linejoin="round" stroke-miterlimit="10" d="M91.8493 248.357C91.8723 241.006 90.4203 233.567 90.4023 226.155C90.3833 218.237 90.8953 210.319 91.9343 202.469C91.8403 203.167 91.7463 203.865 91.6523 204.563C92.8273 197.409 94.0293 190.319 95.8743 183.3C96.5303 180.805 96.1873 177.93 94.8793 175.693C93.6813 173.645 91.3333 171.692 88.9793 171.156C86.4523 170.58 83.6153 170.705 81.3723 172.151C79.2233 173.537 77.5003 175.523 76.8353 178.051C72.1223 195.984 70.0313 214.69 70.8113 233.22C71.0243 238.281 71.4593 243.331 72.1053 248.356C72.0543 249.715 72.3373 250.983 72.9553 252.159C73.3533 253.383 74.0343 254.442 74.9963 255.336C76.7083 257.048 79.5173 258.338 81.9763 258.227C84.5293 258.113 87.1773 257.274 88.9563 255.336C89.4713 254.67 89.9853 254.004 90.5003 253.338C91.3943 251.8 91.8443 250.139 91.8493 248.357Z"/><path fill="#250767" stroke="#250767" stroke-linecap="round" stroke-linejoin="round" stroke-miterlimit="10" d="M72.4863 209.037C78.3533 211.585 84.6673 212.357 90.9443 211.922C91.1503 209.281 91.4183 206.645 91.7433 204.016C92.8903 197.048 94.0773 190.141 95.8743 183.301C96.5303 180.806 96.1873 177.931 94.8793 175.694C93.6813 173.646 91.3333 171.693 88.9793 171.157C86.4523 170.581 83.6153 170.706 81.3723 172.152C79.2233 173.538 77.5003 175.524 76.8354 178.052C74.2124 188.032 72.4043 198.251 71.4493 208.546C71.7953 208.709 72.1353 208.884 72.4863 209.037Z"/><path fill="#fff" stroke="#250767" stroke-linecap="round" stroke-linejoin="round" stroke-miterlimit="10" d="M103.438 252.857C103.438 252.857 99.2052 254.946 101.013 258.601C101.432 259.448 102.113 260.138 102.901 260.66C107.266 263.551 125.591 272.204 159.61 265.549C163.029 264.88 166.346 263.676 169.312 261.847C169.884 261.494 170.449 261.117 170.983 260.718C173.271 259.008 174.106 255.958 173.12 253.276L171.456 248.754L103.438 252.857Z"/><path fill="#F25B62" stroke="#250767" stroke-linecap="round" stroke-linejoin="round" stroke-miterlimit="10" d="M174.791 242.564C173.946 236.625 170.176 231.536 165.031 228.45C158.537 224.555 148.168 221.537 138.242 232.275L105.686 230.485C105.078 230.909 88.4963 254.924 114.748 260.344C114.748 260.344 134.32 263.1 153.351 262.532C158.412 262.381 163.397 260.91 167.552 258.016C171.897 254.99 175.864 250.104 174.791 242.564Z"/><path fill="#F25B62" d="M157.422 228.163C158.579 227.943 159.871 228.306 160.989 228.785C167.097 231.405 172.945 237.831 171.719 244.912C171.522 246.05 170.975 247.329 169.849 247.581C169.214 247.723 168.542 247.482 168.02 247.092C167.498 246.703 167.098 246.177 166.695 245.666C164.483 242.858 161.989 240.273 159.26 237.964C158.275 237.131 157.254 236.327 156.417 235.345C155.58 234.364 154.928 233.172 154.832 231.886C154.71 230.253 155.694 228.491 157.422 228.163Z" opacity=".59"/><path stroke="#250767" stroke-linecap="round" stroke-linejoin="round" stroke-miterlimit="10" d="M138.242 232.275C138.242 232.275 135.195 234.191 131.839 241.053"/><path fill="#fff" stroke="#250767" stroke-linecap="round" stroke-linejoin="round" stroke-miterlimit="10" d="M136.92 231.823C137.035 237.317 128.704 238.225 119.078 238.426C109.452 238.627 102.177 238.044 102.062 232.551C101.947 227.057 109.658 222.441 119.283 222.24C128.909 222.039 136.805 226.329 136.92 231.823Z"/><path fill="#009CA4" stroke="#250767" stroke-linecap="round" stroke-linejoin="round" stroke-miterlimit="10" d="M113.763 183.522C119.437 194.797 118.036 208.647 112.681 219.756C111.243 222.739 109.541 225.138 108.441 228.078C107.63 230.246 108.733 232.755 110.966 233.368C110.984 233.373 111.001 233.377 111.019 233.382C113.043 233.921 115.247 233.877 117.318 233.879C119.539 233.882 128.211 233.408 130.2 232.574C130.722 232.355 131.152 231.952 131.406 231.446C136.63 221.056 139.32 207.761 138.552 196.229C137.847 185.628 134.57 171.822 126.781 164.029C124.506 161.753 121.141 160.204 117.881 160.934C110.532 161.403 106.109 170.72 110.058 176.856C111.484 178.974 112.619 181.249 113.763 183.522Z"/><path fill="#250767" stroke="#250767" stroke-linecap="round" stroke-linejoin="round" stroke-miterlimit="10" d="M113.763 183.522C116.561 189.082 117.632 195.268 117.364 201.442C119.342 200.589 121.29 199.67 123.19 198.652C128.464 195.825 133.347 192.294 137.546 188.023C135.976 179.243 132.67 169.92 126.782 164.03C124.507 161.754 121.142 160.205 117.882 160.935C110.533 161.404 106.11 170.721 110.059 176.857C111.484 178.974 112.619 181.249 113.763 183.522Z"/><path fill="#F25B62" stroke="#250767" stroke-linecap="round" stroke-linejoin="round" stroke-miterlimit="10" d="M145.732 36.5336C142.539 56.2976 122.44 76.6796 102.235 73.4156C82.0313 70.1516 69.3723 44.4776 72.5663 24.7126C75.7593 4.94862 93.6863 -1.99038 113.891 1.27362C134.095 4.53862 148.925 16.7696 145.732 36.5336Z"/><path fill="#250767" d="M120.824 70.1936C114.994 73.1196 108.62 74.4426 102.239 73.4136C82.0294 70.1496 69.3764 44.4766 72.5674 24.7156C75.5674 6.12262 91.6084 -1.11838 110.311 0.800618C94.6004 5.63062 83.3084 18.9306 83.3084 34.5676C83.3084 53.5196 99.8864 69.0176 120.824 70.1936Z" opacity=".15"/><path fill="#F25B62" d="M124.387 7.36561C125.996 7.16161 127.742 7.77062 129.239 8.52562C137.415 12.6486 144.91 21.9826 142.621 31.6156C142.253 33.1626 141.393 34.8766 139.822 35.1266C138.936 35.2676 138.033 34.8786 137.349 34.2996C136.665 33.7196 136.159 32.9626 135.648 32.2246C132.846 28.1746 129.635 24.4076 126.08 21.0006C124.797 19.7706 123.461 18.5786 122.394 17.1576C121.326 15.7366 120.531 14.0426 120.508 12.2656C120.48 10.0086 121.983 7.67061 124.387 7.36561Z" opacity=".49"/><path fill="#F7B245" d="M102.235 73.4156C102.235 73.4156 109.376 33.7716 110.841 19.4976L102.235 73.4156Z"/><path stroke="#250767" stroke-linecap="round" stroke-linejoin="round" stroke-miterlimit="10" d="M102.235 73.4156C102.235 73.4156 109.376 33.7716 110.841 19.4976"/><path fill="#F25B62" stroke="#250767" stroke-linecap="round" stroke-linejoin="round" stroke-miterlimit="10" d="M184.183 105.722C166.36 114.841 138.036 110.694 128.715 92.4736C119.394 74.2536 132.604 48.8586 150.428 39.7406C168.252 30.6226 184.451 40.9706 193.773 59.1916C203.093 77.4106 202.006 96.6036 184.183 105.722Z"/><path fill="#F25B62" d="M163.609 38.3836C164.961 37.8196 166.628 37.9306 168.113 38.2286C176.222 39.8556 184.99 46.1856 185.309 55.1236C185.36 56.5596 185.022 58.2586 183.714 58.8536C182.977 59.1896 182.097 59.0676 181.362 58.7266C180.627 58.3856 180.005 57.8476 179.383 57.3286C175.971 54.4746 172.271 51.9646 168.357 49.8506C166.944 49.0876 165.495 48.3696 164.224 47.3886C162.953 46.4076 161.854 45.1236 161.408 43.5806C160.842 41.6236 161.589 39.2266 163.609 38.3836Z" opacity=".49"/><path fill="#250767" d="M184.182 105.725C166.361 114.841 138.035 110.695 128.713 92.4766C119.391 74.2516 132.602 48.8586 150.43 39.7426C152.952 38.4556 155.444 37.5516 157.885 37.0076C157.591 37.1476 157.29 37.2866 156.995 37.4416C142.387 44.9186 131.565 65.7236 139.204 80.6556C146.843 95.5796 170.045 98.9836 184.653 91.5066C195.004 86.2136 198.467 76.7666 196.886 66.3926C202.517 82.2796 199.665 97.7996 184.182 105.725Z" opacity=".15"/><path fill="#F7B245" d="M128.714 92.4736C128.714 92.4736 164.9 74.7766 177.275 67.5136L128.714 92.4736Z"/><path stroke="#250767" stroke-linecap="round" stroke-linejoin="round" stroke-miterlimit="10" d="M128.714 92.4736C128.714 92.4736 164.9 74.7766 177.275 67.5136"/><path fill="#F25B62" stroke="#250767" stroke-linecap="round" stroke-linejoin="round" stroke-miterlimit="10" d="M140.014 180.36C122.729 168.352 112.542 140.037 124.818 122.367C137.094 104.698 167.184 104.365 184.468 116.374C201.753 128.382 200.183 148.529 187.907 166.199C175.632 183.868 157.299 192.368 140.014 180.36Z"/><path fill="#F25B62" d="M174.906 115.913C176.515 115.709 178.261 116.318 179.758 117.073C187.934 121.195 195.429 130.53 193.14 140.163C192.772 141.711 191.912 143.424 190.341 143.675C189.455 143.816 188.552 143.427 187.868 142.848C187.184 142.268 186.678 141.511 186.168 140.773C183.366 136.723 180.155 132.957 176.6 129.549C175.317 128.319 173.981 127.127 172.913 125.706C171.845 124.285 171.05 122.591 171.028 120.814C170.999 118.556 172.501 116.217 174.906 115.913Z" opacity=".49"/><path fill="#250767" d="M179.557 175.898C168.073 186.507 153.715 189.874 140.012 180.361C122.728 168.355 112.538 140.036 124.816 122.37C134.564 108.328 155.561 105.233 172.441 110.57C157.407 113.658 146.1 126.965 146.1 142.903C146.1 161.128 160.877 175.905 179.102 175.905C179.256 175.905 179.403 175.905 179.557 175.898Z" opacity=".15"/><path fill="#F7B245" d="M124.818 122.367C124.818 122.367 159.153 147.151 172.018 155.026L124.818 122.367Z"/><path stroke="#250767" stroke-linecap="round" stroke-linejoin="round" stroke-miterlimit="10" d="M124.818 122.367C124.818 122.367 159.153 147.151 172.018 155.026"/><path fill="#F25B62" stroke="#250767" stroke-linecap="round" stroke-linejoin="round" stroke-miterlimit="10" d="M49.4814 158.636C56.1614 138.754 80.4214 121.126 100.745 127.954C121.069 134.782 129.762 163.483 123.082 183.365C116.402 203.247 96.6864 207.352 76.3624 200.523C56.0384 193.696 42.8014 178.518 49.4814 158.636Z"/><path fill="#250767" d="M124.956 163.069C114.928 152.806 97.0564 150.762 81.4924 159.07C67.9064 166.326 59.8934 179.434 60.0474 191.999C49.7994 183.956 44.8434 172.429 49.4824 158.637C56.1654 138.758 80.4184 121.128 100.746 127.958C114.715 132.655 123.191 147.675 124.956 163.069Z" opacity=".15"/><path fill="#F25B62" d="M120.023 177.671C120.491 179.224 120.181 181.047 119.685 182.648C116.978 191.395 109.017 200.337 99.1384 199.68C97.5514 199.574 95.7184 199.01 95.2104 197.503C94.9244 196.653 95.1574 195.698 95.6154 194.927C96.0734 194.156 96.7364 193.531 97.3784 192.906C100.906 189.47 104.087 185.678 106.857 181.607C107.857 180.138 108.81 178.622 110.034 177.333C111.258 176.044 112.796 174.978 114.545 174.661C116.767 174.257 119.323 175.35 120.023 177.671Z" opacity=".49"/><path fill="#F7B245" d="M100.745 127.955C100.745 127.955 86.5854 167.708 82.6304 182.211L100.745 127.955Z"/><path stroke="#250767" stroke-linecap="round" stroke-linejoin="round" stroke-miterlimit="10" d="M100.745 127.955C100.745 127.955 86.5854 167.708 82.6304 182.211"/><path fill="#F7B245" d="M150.293 107.914C150.988 82.5844 131.017 61.4881 105.688 60.7938C80.3587 60.0996 59.2625 80.0701 58.5682 105.399C57.8739 130.729 77.8444 151.825 103.174 152.519C128.503 153.213 149.599 133.243 150.293 107.914Z"/><mask id="mask0_81_247" style="mask-type:luminance" width="93" height="93" x="58" y="60" maskUnits="userSpaceOnUse"><path fill="#fff" d="M150.293 107.914C150.988 82.5844 131.017 61.4882 105.688 60.7939C80.3587 60.0996 59.2625 80.0701 58.5682 105.399C57.8739 130.729 77.8444 151.825 103.174 152.519C128.503 153.213 149.599 133.243 150.293 107.914Z"/></mask><g mask="url(#mask0_81_247)"><path fill="#FBE36F" d="M147.236 123.175C142.284 136.008 132.195 145.338 120.223 149.732C131.006 144.609 139.927 135.505 144.564 123.486C152.351 103.313 145.693 81.1206 129.651 68.3086C147.33 79.9146 155.16 102.644 147.236 123.175Z"/><path fill="#F7B245" d="M124.46 147.924C113.422 153.285 100.268 154.224 87.9103 149.454C64.2723 140.33 52.5053 113.767 61.6293 90.1276C68.1173 73.3206 83.4233 62.5116 100.223 60.9566C90.1263 65.8446 81.7983 74.4256 77.4423 85.7106C68.3183 109.349 80.0813 135.911 103.719 145.035C110.554 147.673 117.63 148.564 124.46 147.924Z" opacity=".5"/><g opacity=".5"><path fill="#FBE36F" d="M92.8453 71.0576C91.6423 70.9906 90.3793 71.5326 89.3093 72.1706C83.4633 75.6526 78.3933 82.9636 80.5923 89.9856C80.9453 91.1136 81.6733 92.3386 82.8503 92.4426C83.5143 92.5016 84.1633 92.1656 84.6403 91.7006C85.1173 91.2356 85.4533 90.6476 85.7933 90.0736C87.6593 86.9256 89.8433 83.9656 92.3013 81.2536C93.1883 80.2746 94.1163 79.3216 94.8343 78.2126C95.5513 77.1036 96.0533 75.8066 95.9773 74.4876C95.8793 72.8136 94.6433 71.1586 92.8453 71.0576Z"/><path fill="#FBE36F" d="M82.8993 95.7096C82.7923 96.8636 81.8953 97.7246 80.8973 97.6316C79.8983 97.5386 79.1763 96.5276 79.2833 95.3736C79.3903 94.2196 80.2873 93.3586 81.2853 93.4516C82.2833 93.5436 83.0063 94.5546 82.8993 95.7096Z"/><path fill="#FBE36F" d="M81.5833 100.312C81.5043 101.159 80.8473 101.79 80.1153 101.722C79.3833 101.654 78.8533 100.912 78.9313 100.066C79.0093 99.2196 79.6673 98.5876 80.3993 98.6556C81.1323 98.7246 81.6623 99.4656 81.5833 100.312Z"/></g></g><path stroke="#250767" stroke-linecap="round" stroke-linejoin="round" stroke-miterlimit="10" stroke-width="1" d="M150.293 107.914C150.988 82.5844 131.017 61.4881 105.688 60.7938C80.3587 60.0996 59.2625 80.0701 58.5682 105.399C57.8739 130.729 77.8444 151.825 103.174 152.519C128.503 153.213 149.599 133.243 150.293 107.914Z"/><path fill="#fff" stroke="#250767" stroke-linecap="round" stroke-linejoin="round" stroke-miterlimit="10" d="M115.339 99.7116C114.519 89.9446 109.162 82.4286 103.386 82.9136C102.273 83.0066 101.221 83.3956 100.26 84.0256C96.2274 86.6556 93.7334 93.5886 94.3954 101.471C95.0564 109.345 98.6724 115.766 103.088 117.693C104.14 118.154 105.242 118.361 106.355 118.268C112.132 117.783 116.159 109.472 115.339 99.7116Z"/><path fill="#250767" stroke="#250767" stroke-linecap="round" stroke-linejoin="round" stroke-miterlimit="10" d="M100.742 100.303L108.453 96.8426C107.183 90.5606 104.01 85.6666 100.26 84.0256C96.2274 86.6556 93.7334 93.5886 94.3954 101.471C95.0564 109.345 98.6724 115.766 103.088 117.693C106.639 115.36 108.991 109.703 109.041 102.996C105.563 101.868 100.742 100.303 100.742 100.303Z"/><path fill="#fff" stroke="#250767" stroke-linecap="round" stroke-linejoin="round" stroke-miterlimit="10" d="M138.283 97.7846C137.463 88.0176 132.106 80.5016 126.33 80.9866C125.217 81.0796 124.165 81.4686 123.204 82.0986C119.171 84.7286 116.677 91.6616 117.339 99.5436C118 107.418 121.616 113.839 126.032 115.766C127.084 116.227 128.187 116.434 129.299 116.341C135.075 115.856 139.102 107.545 138.283 97.7846Z"/><path fill="#250767" stroke="#250767" stroke-linecap="round" stroke-linejoin="round" stroke-miterlimit="10" d="M123.686 98.3756L131.397 94.9156C130.127 88.6336 126.954 83.7396 123.204 82.0986C119.171 84.7286 116.677 91.6616 117.339 99.5436C118 107.418 121.616 113.839 126.032 115.766C129.583 113.434 131.935 107.776 131.986 101.069C128.507 99.9406 123.686 98.3756 123.686 98.3756Z"/><path fill="#F7B245" d="M132.057 78.4036C127.901 76.1596 123.733 76.4106 119.554 79.4536L132.057 78.4036Z"/><path stroke="#250767" stroke-linecap="round" stroke-linejoin="round" stroke-miterlimit="10" d="M132.057 78.4036C127.901 76.1596 123.733 76.4106 119.554 79.4536"/><path fill="#F7B245" d="M110.466 80.2166C106.31 77.9726 102.142 78.2236 97.9634 81.2666L110.466 80.2166Z"/><path stroke="#250767" stroke-linecap="round" stroke-linejoin="round" stroke-miterlimit="10" d="M110.466 80.2166C106.31 77.9726 102.142 78.2236 97.9634 81.2666"/><path fill="#250767" d="M129.124 122.96C128.993 123.953 128.595 124.85 128.137 125.665C127.356 127.04 126.394 128.229 125.301 129.209C122.767 131.52 119.52 132.776 116.221 133.032C114.399 133.175 112.514 133.034 110.732 132.252C109.34 131.645 108.025 130.616 107.059 129.237C106.781 128.847 106.528 128.427 106.31 127.976C105.764 126.812 105.475 125.461 105.523 124.189C105.558 123.241 105.785 122.346 106.203 121.587C107.058 120.065 108.63 119.323 110.214 119.21C111.861 119.094 113.514 119.632 115.163 119.956C116.936 120.312 118.537 120.088 120.192 119.53C121.837 118.974 123.48 118.265 125.238 118.267C126.453 118.271 127.82 118.717 128.587 119.963C129.12 120.832 129.263 121.954 129.124 122.96Z"/><path fill="#250767" d="M128.642 122.827C128.349 124.751 127.176 126.522 125.881 127.932C124.587 129.342 123.009 130.472 121.265 131.257C117.815 132.808 113.212 133.317 109.877 131.235C108.202 130.19 106.888 128.527 106.336 126.626C105.796 124.766 105.835 122.426 107.29 120.976C108.727 119.544 110.812 119.553 112.673 119.924C114.69 120.326 116.539 120.833 118.608 120.463C120.901 120.053 123.016 118.685 125.398 118.771C126.273 118.803 127.164 119.1 127.783 119.738C128.61 120.589 128.758 121.833 128.624 122.961C128.548 123.599 129.549 123.593 129.624 122.961C129.86 120.969 129.079 118.932 127.136 118.134C125.103 117.298 122.872 118.06 120.917 118.749C119.77 119.153 118.619 119.536 117.395 119.612C116.108 119.692 114.89 119.389 113.645 119.111C111.598 118.655 109.41 118.385 107.529 119.529C103.554 121.948 104.838 127.791 107.562 130.632C110.695 133.9 115.624 134.124 119.741 132.885C122.062 132.186 124.192 130.962 125.949 129.291C127.646 127.676 129.246 125.456 129.605 123.094C129.702 122.464 128.738 122.192 128.642 122.827Z"/><path fill="#F25B62" stroke="#250767" stroke-linecap="round" stroke-linejoin="round" stroke-miterlimit="10" d="M125.301 129.209C122.767 131.52 119.52 132.776 116.221 133.032C114.399 133.175 112.514 133.034 110.732 132.252C109.34 131.645 108.025 130.616 107.059 129.237C108.625 127.414 110.993 125.985 113.815 125.358C118.719 124.27 123.417 125.952 125.301 129.209Z"/><path fill="#F25B62" stroke="#250767" stroke-linecap="round" stroke-linejoin="round" stroke-miterlimit="10" d="M18.5823 85.7036C37.2583 78.4896 64.9963 85.5616 72.3703 104.654C79.7443 123.745 63.9623 147.627 45.2863 154.841C26.6103 162.055 11.5763 150.076 4.20232 130.984C-3.17168 111.892 -0.0936756 92.9176 18.5823 85.7036Z"/><path fill="#250767" d="M55.5113 149.049C52.2983 151.483 48.8433 153.468 45.2853 154.842C26.6113 162.054 11.5773 150.078 4.20326 130.985C-3.17074 111.893 -0.089735 92.9166 18.5833 85.7046C21.1933 84.6976 23.9793 83.9696 26.8683 83.5136C18.2963 90.3216 12.8333 100.607 12.8333 112.12C12.8333 132.617 30.1543 149.239 51.5263 149.239C52.8713 149.241 54.2023 149.174 55.5113 149.049Z" opacity=".15"/><path fill="#F7B245" d="M72.3703 104.655C72.3703 104.655 34.5383 118.488 21.4753 124.424L72.3703 104.655Z"/><path stroke="#250767" stroke-linecap="round" stroke-linejoin="round" stroke-miterlimit="10" d="M72.3703 104.655C72.3703 104.655 34.5383 118.488 21.4753 124.424"/><path fill="#F25B62" stroke="#250767" stroke-linecap="round" stroke-linejoin="round" stroke-miterlimit="10" d="M68.9393 23.7196C84.3923 36.4486 91.8483 64.0856 78.8353 79.8826C65.8233 95.6796 37.2693 93.6546 21.8163 80.9246C6.36334 68.1956 9.41833 49.2166 22.4303 33.4196C35.4423 17.6226 53.4863 10.9896 68.9393 23.7196Z"/><path fill="#250767" d="M31.8823 86.9896C28.1853 85.3856 24.7593 83.3496 21.8153 80.9246C6.36434 68.1966 9.41733 49.2196 22.4313 33.4226C35.4453 17.6256 53.4883 10.9936 68.9383 23.7216C71.0973 25.5006 73.0993 27.5706 74.9143 29.8646C64.7753 25.7386 53.1333 26.0286 43.1033 31.6806C25.2463 41.7426 19.2683 64.9936 29.7603 83.6126C30.4203 84.7836 31.1313 85.9106 31.8823 86.9896Z" opacity=".15"/><path fill="#F25B62" d="M72.4573 36.7756C74.0153 37.2256 75.3773 38.4756 76.4533 39.7616C82.3293 46.7846 85.5153 58.3246 79.5993 66.2636C78.6493 67.5386 77.1803 68.7716 75.6383 68.3796C74.7693 68.1586 74.0943 67.4436 73.6953 66.6406C73.2963 65.8376 73.1323 64.9416 72.9553 64.0626C71.9863 59.2346 70.5293 54.5036 68.6133 49.9676C67.9223 48.3306 67.1673 46.7066 66.7493 44.9786C66.3313 43.2506 66.2713 41.3806 66.9553 39.7396C67.8233 37.6556 70.1293 36.1026 72.4573 36.7756Z" opacity=".49"/><path fill="#F7B245" d="M78.8363 79.8826C78.8363 79.8826 48.2123 53.7146 36.6273 45.2476L78.8363 79.8826Z"/><path stroke="#250767" stroke-linecap="round" stroke-linejoin="round" stroke-miterlimit="10" d="M78.8363 79.8826C78.8363 79.8826 48.2123 53.7146 36.6273 45.2476"/><path fill="#F25B62" d="M148.879 115.598C148.879 118.364 145.792 120.606 141.985 120.606C138.178 120.606 135.091 118.364 135.091 115.598C135.091 112.832 138.178 110.59 141.985 110.59C145.792 110.59 148.879 112.832 148.879 115.598Z"/><path fill="#F25B62" d="M98.2493 117.219C98.2493 120.494 93.9833 123.148 88.7203 123.148C83.4573 123.148 79.1913 120.494 79.1913 117.219C79.1913 113.944 83.4573 111.29 88.7203 111.29C93.9833 111.29 98.2493 113.945 98.2493 117.219Z"/><path fill="#F25B62" d="M34.1263 95.0536C35.2143 93.8506 36.9353 93.1746 38.5633 92.7726C47.4523 90.5736 59.2193 92.7726 63.7593 101.573C64.4883 102.986 64.9513 104.847 63.9233 106.061C63.3433 106.745 62.4053 107.038 61.5083 107.044C60.6113 107.05 59.7343 106.805 58.8663 106.578C54.1023 105.331 49.2123 104.565 44.2953 104.296C42.5203 104.199 40.7303 104.164 38.9953 103.782C37.2593 103.399 35.5523 102.632 34.3773 101.299C32.8843 99.6036 32.5003 96.8506 34.1263 95.0536Z" opacity=".49"/></g><defs><clipPath id="clip0_81_247"><rect width="243.401" height="318.175" fill="#fff"/></clipPath></defs></svg>