<svg width="109" height="111" viewBox="0 0 109 111" fill="none" xmlns="http://www.w3.org/2000/svg">
<path d="M79.0962 20.3615C77.3805 30.9812 66.5807 41.9331 55.724 40.1793C44.8677 38.4254 38.0657 24.63 39.7819 14.0097C41.4976 3.38989 51.1303 -0.338641 61.9871 1.4152C72.8433 3.16959 80.8119 9.74167 79.0962 20.3615Z" fill="#F25B62" stroke="#250767" stroke-width="0.53733" stroke-miterlimit="10" stroke-linecap="round" stroke-linejoin="round"/>
<path opacity="0.15" d="M65.7125 38.448C62.5798 40.0202 59.1549 40.7311 55.7262 40.1782C44.8667 38.4244 38.0679 24.6295 39.7825 14.0113C41.3945 4.02075 50.0138 0.129947 60.0635 1.16108C51.6215 3.75639 45.554 10.9029 45.554 19.3051C45.554 29.4886 54.4618 37.8161 65.7125 38.448Z" fill="#250767"/>
<path opacity="0.49" d="M67.627 4.68863C68.4916 4.57902 69.4297 4.90625 70.2341 5.31194C74.6273 7.52735 78.6546 12.5428 77.4247 17.7189C77.2269 18.5501 76.7648 19.4711 75.9207 19.6055C75.4446 19.6812 74.9594 19.4722 74.5919 19.1611C74.2243 18.8494 73.9524 18.4427 73.6779 18.0461C72.1723 15.8699 70.4469 13.8458 68.5367 12.0151C67.8473 11.3542 67.1294 10.7137 66.5561 9.95017C65.9822 9.18662 65.555 8.27639 65.5427 7.32155C65.5276 6.1088 66.3352 4.85252 67.627 4.68863Z" fill="#F25B62"/>
<path d="M55.7239 40.1793C55.7239 40.1793 59.561 18.8774 60.3481 11.2075Z" fill="#F7B245"/>
<path d="M55.7239 40.1793C55.7239 40.1793 59.561 18.8774 60.3481 11.2075" stroke="#250767" stroke-width="0.53733" stroke-miterlimit="10" stroke-linecap="round" stroke-linejoin="round"/>
<path d="M99.7572 57.5382C90.1804 62.4382 74.9611 60.2099 69.9526 50.4197C64.9442 40.6296 72.0423 26.9841 81.6197 22.0847C91.197 17.1853 99.9013 22.7456 104.91 32.5363C109.918 42.3259 109.334 52.6389 99.7572 57.5382Z" fill="#F25B62" stroke="#250767" stroke-width="0.53733" stroke-miterlimit="10" stroke-linecap="round" stroke-linejoin="round"/>
<path opacity="0.49" d="M88.7021 21.3555C89.4286 21.0525 90.3243 21.1121 91.1222 21.2722C95.4794 22.1465 100.191 25.5478 100.362 30.3504C100.39 31.122 100.208 32.035 99.5051 32.3547C99.1091 32.5352 98.6363 32.4697 98.2413 32.2864C97.8464 32.1032 97.5122 31.8141 97.1779 31.5352C95.3446 30.0017 93.3565 28.653 91.2533 27.5171C90.4941 27.1071 89.7155 26.7213 89.0326 26.1942C88.3496 25.6671 87.7591 24.9771 87.5194 24.148C87.2153 23.0965 87.6167 21.8085 88.7021 21.3555Z" fill="#F25B62"/>
<path opacity="0.15" d="M99.7565 57.5398C90.1808 62.4381 74.9604 60.2104 69.9514 50.4213C64.9424 40.6285 72.041 26.984 81.6206 22.0857C82.9757 21.3942 84.3147 20.9085 85.6263 20.6161C85.4684 20.6914 85.3066 20.7661 85.1481 20.8494C77.2988 24.867 71.4838 36.0461 75.5885 44.0695C79.6932 52.0886 92.1603 53.9177 100.01 49.9001C105.572 47.056 107.432 41.9798 106.583 36.4056C109.608 44.9421 108.076 53.2815 99.7565 57.5398Z" fill="#250767"/>
<path d="M69.9519 50.4197C69.9519 50.4197 89.3957 40.9106 96.0452 37.0079Z" fill="#F7B245"/>
<path d="M69.9519 50.4197C69.9519 50.4197 89.3957 40.9106 96.0452 37.0079" stroke="#250767" stroke-width="0.53733" stroke-miterlimit="10" stroke-linecap="round" stroke-linejoin="round"/>
<path d="M76.0239 97.6437C66.7362 91.1914 61.2624 75.9769 67.8587 66.4823C74.4549 56.9882 90.6232 56.8093 99.9104 63.2621C109.198 69.7143 108.355 80.5399 101.758 90.0345C95.1625 99.5286 85.3117 104.096 76.0239 97.6437Z" fill="#F25B62" stroke="#250767" stroke-width="0.53733" stroke-miterlimit="10" stroke-linecap="round" stroke-linejoin="round"/>
<path opacity="0.49" d="M94.7722 63.0142C95.6368 62.9045 96.575 63.2318 97.3793 63.6375C101.773 65.8523 105.8 70.8683 104.57 76.0444C104.372 76.8762 103.91 77.7966 103.066 77.9315C102.59 78.0073 102.105 77.7983 101.737 77.4871C101.37 77.1755 101.098 76.7687 100.824 76.3722C99.318 74.196 97.5927 72.1724 95.6825 70.3412C94.9931 69.6803 94.2752 69.0398 93.7013 68.2762C93.1274 67.5127 92.7003 66.6025 92.6885 65.6476C92.6729 64.4343 93.4799 63.1775 94.7722 63.0142Z" fill="#F25B62"/>
<path opacity="0.15" d="M97.2713 95.2459C91.1006 100.946 83.3856 102.756 76.0226 97.644C66.7354 91.1928 61.26 75.9762 67.8573 66.4837C73.0952 58.9385 84.3775 57.2755 93.4477 60.1432C85.3694 61.8025 79.2939 68.9527 79.2939 77.5167C79.2939 87.3095 87.234 95.2497 97.0268 95.2497C97.1096 95.2497 97.1885 95.2497 97.2713 95.2459Z" fill="#250767"/>
<path d="M67.8584 66.4821C67.8584 66.4821 86.3076 79.7993 93.2204 84.0307Z" fill="#F7B245"/>
<path d="M67.8584 66.4821C67.8584 66.4821 86.3076 79.7993 93.2204 84.0307" stroke="#250767" stroke-width="0.53733" stroke-miterlimit="10" stroke-linecap="round" stroke-linejoin="round"/>
<path d="M27.3776 85.9705C30.9669 75.2873 44.0025 65.8153 54.9232 69.4842C65.8439 73.153 70.5149 88.5749 66.9256 99.2581C63.3362 109.941 52.7422 112.147 41.8215 108.478C30.9008 104.809 23.7882 96.6537 27.3776 85.9705Z" fill="#F25B62" stroke="#250767" stroke-width="0.53733" stroke-miterlimit="10" stroke-linecap="round" stroke-linejoin="round"/>
<path opacity="0.15" d="M67.9324 88.3526C62.5441 82.838 52.9409 81.7397 44.5779 86.2038C37.2778 90.1027 32.9721 97.146 33.0549 103.898C27.5483 99.5758 24.8853 93.382 27.378 85.9711C30.969 75.2896 44.0008 65.8164 54.9237 69.4864C62.4296 72.0102 66.984 80.0809 67.9324 88.3526Z" fill="#250767"/>
<path opacity="0.49" d="M65.2816 96.1986C65.5331 97.0331 65.3665 98.0126 65.1 98.8729C63.6455 103.573 59.3678 108.378 54.0595 108.025C53.2068 107.968 52.2218 107.665 51.9489 106.855C51.7952 106.398 51.9204 105.885 52.1665 105.471C52.4126 105.056 52.7688 104.721 53.1138 104.385C55.0095 102.539 56.7187 100.501 58.2071 98.3135C58.7445 97.5242 59.2566 96.7096 59.9142 96.017C60.5719 95.3244 61.3984 94.7516 62.3381 94.5812C63.5321 94.3641 64.9055 94.9514 65.2816 96.1986Z" fill="#F25B62"/>
<path d="M54.9232 69.4847C54.9232 69.4847 47.3146 90.8452 45.1895 98.6381Z" fill="#F7B245"/>
<path d="M54.9232 69.4847C54.9232 69.4847 47.3146 90.8452 45.1895 98.6381" stroke="#250767" stroke-width="0.53733" stroke-miterlimit="10" stroke-linecap="round" stroke-linejoin="round"/>
<path d="M10.7155 46.7604C20.7507 42.8841 35.6551 46.6841 39.6174 56.9428C43.5797 67.201 35.0996 80.0335 25.0644 83.9098C15.0292 87.7861 6.95098 81.3494 2.98871 71.0907C-0.973557 60.832 0.680344 50.6367 10.7155 46.7604Z" fill="#F25B62" stroke="#250767" stroke-width="0.53733" stroke-miterlimit="10" stroke-linecap="round" stroke-linejoin="round"/>
<path opacity="0.15" d="M30.5587 80.7976C28.8322 82.1054 26.9757 83.172 25.0639 83.9103C15.0298 87.7855 6.95161 81.3505 2.98934 71.0912C-0.972928 60.8325 0.682586 50.6362 10.7161 46.7609C12.1186 46.2198 13.6156 45.8287 15.1679 45.5836C10.5619 49.2418 7.6265 54.7682 7.6265 60.9545C7.6265 71.9682 16.9336 80.8997 28.4174 80.8997C29.1401 80.9007 29.8553 80.8647 30.5587 80.7976Z" fill="#250767"/>
<path d="M39.6174 56.9433C39.6174 56.9433 19.2892 64.3762 12.27 67.5658Z" fill="#F7B245"/>
<path d="M39.6174 56.9433C39.6174 56.9433 19.2892 64.3762 12.27 67.5658" stroke="#250767" stroke-width="0.53733" stroke-miterlimit="10" stroke-linecap="round" stroke-linejoin="round"/>
<path d="M38.0893 13.5801C46.3926 20.4198 50.399 35.27 43.4067 43.7582C36.415 52.2464 21.072 51.1583 12.7687 44.3181C4.46533 37.4784 6.10687 27.2804 13.0986 18.7922C20.0903 10.304 29.7859 6.73989 38.0893 13.5801Z" fill="#F25B62" stroke="#250767" stroke-width="0.53733" stroke-miterlimit="10" stroke-linecap="round" stroke-linejoin="round"/>
<path opacity="0.15" d="M18.1774 47.5772C16.1909 46.7153 14.3501 45.6213 12.7682 44.3183C4.46587 37.4791 6.10633 27.2822 13.0991 18.794C20.092 10.3058 29.787 6.74225 38.0887 13.5814C39.2488 14.5373 40.3246 15.6496 41.2998 16.8822C35.8518 14.6652 29.5962 14.821 24.2068 17.858C14.6117 23.2646 11.3996 35.7581 17.0372 45.7626C17.3919 46.3918 17.7739 46.9974 18.1774 47.5772Z" fill="#250767"/>
<path opacity="0.49" d="M39.9796 20.5955C40.8168 20.8373 41.5486 21.509 42.1268 22.2C45.2842 25.9736 46.9961 32.1744 43.8173 36.4403C43.3068 37.1254 42.5174 37.7879 41.6889 37.5773C41.2219 37.4585 40.8592 37.0743 40.6449 36.6429C40.4305 36.2114 40.3423 35.7299 40.2472 35.2576C39.7266 32.6634 38.9437 30.1213 37.9141 27.684C37.5428 26.8043 37.1372 25.9317 36.9126 25.0032C36.688 24.0747 36.6557 23.0699 37.0233 22.1881C37.4897 21.0683 38.7287 20.2339 39.9796 20.5955Z" fill="#F25B62"/>
<path d="M43.4072 43.7582C43.4072 43.7582 26.952 29.6973 20.7271 25.1477Z" fill="#F7B245"/>
<path d="M43.4072 43.7582C43.4072 43.7582 26.952 29.6973 20.7271 25.1477" stroke="#250767" stroke-width="0.53733" stroke-miterlimit="10" stroke-linecap="round" stroke-linejoin="round"/>
<path d="M81.547 58.7161C81.92 45.1059 71.1892 33.7703 57.5791 33.3972C43.9689 33.0241 32.6333 43.7549 32.2602 57.3651C31.8871 70.9752 42.6179 82.3109 56.2281 82.684C69.8382 83.057 81.1739 72.3262 81.547 58.7161Z" fill="#F7B245"/>
<mask id="mask0_82_283" style="mask-type:luminance" maskUnits="userSpaceOnUse" x="32" y="33" width="50" height="50">
<path d="M81.547 58.7161C81.92 45.1059 71.1892 33.7703 57.5791 33.3972C43.9689 33.0241 32.6333 43.7549 32.2602 57.3651C31.8871 70.9752 42.6179 82.3109 56.2281 82.684C69.8382 83.057 81.1739 72.3262 81.547 58.7161Z" fill="white"/>
</mask>
<g mask="url(#mask0_82_283)">
<path d="M79.9041 66.9163C77.2432 73.8118 71.8221 78.8251 65.3892 81.1861C71.1832 78.4334 75.9767 73.5415 78.4683 67.0834C82.6525 56.2438 79.075 44.3194 70.4551 37.4351C79.9546 43.6714 84.1619 55.8843 79.9041 66.9163Z" fill="#FBE36F"/>
<path opacity="0.5" d="M67.6659 80.2147C61.7349 83.0953 54.6668 83.5998 48.0265 81.0368C35.3251 76.1342 29.0023 61.8611 33.9049 49.1591C37.3911 40.1282 45.6155 34.3202 54.6426 33.4847C49.2172 36.1111 44.7423 40.722 42.4017 46.7857C37.4991 59.4872 43.8197 73.7597 56.5211 78.6623C60.1938 80.0798 63.9959 80.5585 67.6659 80.2147Z" fill="#F7B245"/>
<g opacity="0.5">
<path d="M46.186 37.7202C45.5396 37.6842 44.861 37.9754 44.286 38.3182C41.1448 40.1892 38.4206 44.1176 39.6021 47.8908C39.7918 48.4969 40.183 49.1551 40.8154 49.211C41.1722 49.2427 41.5209 49.0621 41.7773 48.8123C42.0336 48.5624 42.2141 48.2465 42.3968 47.938C43.3995 46.2465 44.573 44.656 45.8937 43.1988C46.3703 42.6728 46.869 42.1607 47.2548 41.5648C47.6401 40.9689 47.9098 40.272 47.869 39.5632C47.8163 38.6637 47.1522 37.7745 46.186 37.7202Z" fill="#FBE36F"/>
<path d="M40.8417 50.9664C40.7842 51.5865 40.3022 52.0492 39.766 51.9992C39.2292 51.9492 38.8412 51.406 38.8987 50.7859C38.9562 50.1658 39.4382 49.7032 39.9744 49.7531C40.5107 49.8026 40.8992 50.3458 40.8417 50.9664Z" fill="#FBE36F"/>
<path d="M40.1347 53.4392C40.0922 53.8944 39.7392 54.2334 39.3459 54.1969C38.9525 54.1603 38.6677 53.7616 38.7097 53.3071C38.7516 52.8525 39.1051 52.5129 39.4985 52.5494C39.8923 52.5865 40.1771 52.9847 40.1347 53.4392Z" fill="#FBE36F"/>
</g>
</g>
<path d="M81.547 58.7161C81.92 45.1059 71.1892 33.7703 57.5791 33.3972C43.9689 33.0241 32.6333 43.7549 32.2602 57.3651C31.8871 70.9752 42.6179 82.3109 56.2281 82.684C69.8382 83.057 81.1739 72.3262 81.547 58.7161Z" stroke="#250767" stroke-width="0.537317" stroke-miterlimit="10" stroke-linecap="round" stroke-linejoin="round"/>
<path d="M56.2021 54.0689C56.1584 58.8868 53.8086 62.7675 50.9592 62.7419C50.4105 62.7371 49.8801 62.5852 49.3863 62.3114C47.3126 61.1701 45.8358 57.863 45.8707 53.9751C45.906 50.0907 47.4425 46.8109 49.5366 45.7041C50.0357 45.4395 50.5684 45.2972 51.1172 45.3024C53.9665 45.3281 56.2458 49.2545 56.2021 54.0689Z" fill="white" stroke="#250767" stroke-width="0.400861" stroke-miterlimit="10" stroke-linecap="round" stroke-linejoin="round"/>
<path d="M49.0251 54.315L52.9319 55.728C52.5398 58.8539 51.1641 61.3693 49.3863 62.3114C47.3126 61.1701 45.8358 57.863 45.8707 53.9751C45.906 50.0907 47.4425 46.8109 49.5366 45.7041C51.3629 46.7171 52.7234 49.4045 52.9944 52.6899C51.3308 53.3706 49.0251 54.315 49.0251 54.315Z" fill="#250767" stroke="#250767" stroke-width="0.400861" stroke-miterlimit="10" stroke-linecap="round" stroke-linejoin="round"/>
<path d="M67.5195 54.1715C67.4758 58.9894 65.1259 62.8702 62.2766 62.8441C61.7278 62.8393 61.1975 62.6874 60.7037 62.4136C58.63 61.2723 57.1532 57.9653 57.1881 54.0773C57.2234 50.193 58.7603 46.9131 60.854 45.8063C61.3531 45.5418 61.8858 45.3995 62.4346 45.4047C65.2839 45.4307 67.5632 49.3568 67.5195 54.1715Z" fill="white" stroke="#250767" stroke-width="0.400861" stroke-miterlimit="10" stroke-linecap="round" stroke-linejoin="round"/>
<path d="M60.3425 54.4177L64.2493 55.8307C63.8572 58.9566 62.4815 61.472 60.7037 62.414C58.63 61.2728 57.1532 57.9657 57.1881 54.0777C57.2234 50.1934 58.7603 46.9135 60.854 45.8068C62.6803 46.8197 64.0408 49.5071 64.3118 52.7926C62.6482 53.4732 60.3425 54.4177 60.3425 54.4177Z" fill="#250767" stroke="#250767" stroke-width="0.400861" stroke-miterlimit="10" stroke-linecap="round" stroke-linejoin="round"/>
<path d="M48.2114 44.2458C50.1664 42.9931 52.2184 42.9634 54.3791 44.3015" stroke="#250767" stroke-width="0.400861" stroke-miterlimit="10" stroke-linecap="round" stroke-linejoin="round"/>
<path d="M58.8613 44.3424C60.8163 43.0897 62.8683 43.06 65.0286 44.3981" stroke="#250767" stroke-width="0.400861" stroke-miterlimit="10" stroke-linecap="round" stroke-linejoin="round"/>
<path d="M65.3563 70.513C65.2705 70.6136 65.1804 70.7138 65.0946 70.8052C61.6584 74.4627 55.892 74.0971 51.8321 72.3914C51.1406 72.1028 50.3188 71.6069 49.5744 70.9644C48.1863 69.7598 47.0783 68.026 47.6523 66.1228C48.2909 64.0114 50.0427 63.829 51.6305 64.1409C53.1445 64.4371 54.6513 65.0817 56.2003 65.03C57.8654 64.9759 59.527 64.6568 61.12 64.0623C62.7455 63.4498 64.6436 62.4753 66.0121 63.7589C66.2583 63.9918 66.4892 64.2988 66.6948 64.6981C67.7495 66.7136 66.6467 69.015 65.3563 70.513Z" fill="#250767"/>
<path d="M65.2143 70.3715C63.2273 72.6744 60.2304 73.5495 57.2645 73.4228C55.8338 73.3615 54.4135 73.0849 53.0546 72.6355C51.4949 72.12 50.0638 71.3247 48.9638 70.0801C47.8587 68.8298 47.2694 67.1065 48.1016 65.5419C48.7277 64.365 49.9989 64.0996 51.2299 64.2744C52.1194 64.4007 52.9797 64.6897 53.8483 64.9085C54.7683 65.1406 55.6742 65.2669 56.6235 65.2104C57.5863 65.1531 58.5456 65.0088 59.482 64.7775C60.3872 64.5538 61.247 64.2227 62.1149 63.888C62.8476 63.6054 63.6277 63.3139 64.4246 63.3288C65.258 63.3444 65.9182 63.8034 66.3508 64.4985C67.3257 66.0662 66.8775 67.9046 65.9487 69.3781C65.729 69.7273 65.4825 70.0576 65.2143 70.3715C65.0476 70.5667 65.3298 70.8513 65.4977 70.6549C66.6021 69.3617 67.5137 67.6476 67.2792 65.8951C67.1641 65.0344 66.7516 64.1433 66.093 63.5621C65.4869 63.0269 64.708 62.8597 63.9191 62.9576C63.0493 63.0654 62.2331 63.4133 61.4234 63.7304C60.4733 64.1028 59.4977 64.395 58.4935 64.5814C57.4537 64.7747 56.3489 64.9118 55.293 64.7867C54.2752 64.6664 53.2975 64.3289 52.3062 64.0856C51.0303 63.7725 49.5355 63.5829 48.4423 64.4828C47.1736 65.5271 47.0509 67.4588 47.6879 68.8711C48.4155 70.4837 49.9784 71.7761 51.5658 72.492C52.9372 73.1106 54.4256 73.5042 55.9144 73.7026C58.9645 74.1091 62.2552 73.6012 64.6363 71.5244C64.9445 71.2554 65.2304 70.964 65.4973 70.6545C65.6657 70.4605 65.3831 70.1759 65.2143 70.3715Z" fill="#250767"/>
<path d="M65.3563 70.513C65.2706 70.6136 65.1804 70.7138 65.0946 70.8052C61.6584 74.4627 55.892 74.0971 51.8321 72.3914C51.1406 72.1028 50.3189 71.6069 49.5745 70.9644C50.5273 68.0461 53.834 65.9388 57.7139 66.0189C61.2451 66.0911 64.2235 67.9563 65.3563 70.513Z" fill="#F25B62" stroke="#250767" stroke-width="0.400861" stroke-miterlimit="10" stroke-linecap="round" stroke-linejoin="round"/>
<path d="M78.777 61.1196C78.7385 62.9924 76.2672 64.4604 73.2571 64.3983C70.2474 64.3361 67.8387 62.7676 67.8772 60.8947C67.9156 59.0219 70.3869 57.554 73.397 57.6161C76.4067 57.6782 78.8155 59.2464 78.777 61.1196Z" fill="#F25B62"/>
<path d="M44.8666 60.4201C44.8281 62.2929 42.3568 63.7609 39.3467 63.6987C36.3366 63.6366 33.9283 62.068 33.9668 60.1952C34.0052 58.3224 36.4765 56.8544 39.4866 56.9166C42.4967 56.9791 44.905 58.5473 44.8666 60.4201Z" fill="#F25B62"/>
</svg>
