<svg xmlns="http://www.w3.org/2000/svg" xmlns:svg="http://www.w3.org/2000/svg" xmlns:xlink="http://www.w3.org/1999/xlink" id="svg2" width="1534.829" height="1444.539" version="1.1" viewBox="0 0 1534.829 1444.539" xml:space="preserve"><defs id="defs6"><clipPath id="clipPath20" clipPathUnits="userSpaceOnUse"><path id="path18" d="M 0,500 H 500 V 0 H 0 Z"/></clipPath><clipPath id="clipPath248" clipPathUnits="userSpaceOnUse"><path id="path246" d="M 93.4209,188.288 H 375.792 V 106.732 H 93.4209 Z"/></clipPath><clipPath id="clipPath400" clipPathUnits="userSpaceOnUse"><path id="path398" d="m 117.614,172.631 h 30.849 v -12.596 h -30.849 z"/></clipPath><clipPath id="clipPath448" clipPathUnits="userSpaceOnUse"><path id="path446" d="m 206.46,211.417 h 17.061 V 191.891 H 206.46 Z"/></clipPath><clipPath id="clipPath500" clipPathUnits="userSpaceOnUse"><path id="path498" d="m 123.714,439.012 h 48.748 v -73.258 h -48.748 z"/></clipPath><clipPath id="clipPath516" clipPathUnits="userSpaceOnUse"><path id="path514" d="m 172.146,432.187 h 22.531 v -27.83 h -22.531 z"/></clipPath><clipPath id="clipPath544" clipPathUnits="userSpaceOnUse"><path id="path542" d="m 212.863,401.53 h 24.089 v -21.069 h -24.089 z"/></clipPath><clipPath id="clipPath560" clipPathUnits="userSpaceOnUse"><path id="path558" d="m 177.276,402.506 h 73.916 v -73.385 h -73.916 z"/></clipPath><clipPath id="clipPath588" clipPathUnits="userSpaceOnUse"><path id="path586" d="m 222.665,323.641 h 22.531 v -27.83 h -22.531 z"/></clipPath><clipPath id="clipPath604" clipPathUnits="userSpaceOnUse"><path id="path602" d="m 171.054,331.403 h 60.141 v -77.845 h -60.141 z"/></clipPath><clipPath id="clipPath632" clipPathUnits="userSpaceOnUse"><path id="path630" d="M 99.3717,313.054 H 176.594 V 247.516 H 99.3717 Z"/></clipPath><clipPath id="clipPath648" clipPathUnits="userSpaceOnUse"><path id="path646" d="m 146.723,264.936 h 25.169 V 239.8 h -25.169 z"/></clipPath><clipPath id="clipPath672" clipPathUnits="userSpaceOnUse"><path id="path670" d="m 113.269,349.384 c -9.125,-23.638 2.641,-50.199 26.28,-59.324 v 0 c 23.639,-9.124 50.2,2.642 59.325,26.281 v 0 c 9.124,23.639 -2.642,50.199 -26.281,59.324 v 0 c -5.432,2.097 -11.018,3.091 -16.512,3.091 v 0 c -18.413,0 -35.784,-11.164 -42.812,-29.372"/></clipPath><clipPath id="clipPath684" clipPathUnits="userSpaceOnUse"><path id="path682" d="m 110.177,378.557 h 65.921 v -91.588 h -65.921 z"/></clipPath><clipPath id="clipPath700" clipPathUnits="userSpaceOnUse"><path id="path698" d="m 130.562,368.461 h 17.059 v -30.674 h -17.059 z"/></clipPath><clipPath id="clipPath724" clipPathUnits="userSpaceOnUse"><path id="path722" d="M 0,500 H 500 V 0 H 0 Z"/></clipPath><clipPath id="clipPath800" clipPathUnits="userSpaceOnUse"><path id="path798" d="M 52.1403,355.999 H 107.149 V 282.55 H 52.1403 Z"/></clipPath><clipPath id="clipPath828" clipPathUnits="userSpaceOnUse"><path id="path826" d="M 63.0425,422.488 H 126.552 V 352.524 H 63.0425 Z"/></clipPath><clipPath id="clipPath844" clipPathUnits="userSpaceOnUse"><path id="path842" d="m 118.076,402.897 h 16.315 V 371.06 h -16.315 z"/></clipPath><clipPath id="clipPath872" clipPathUnits="userSpaceOnUse"><path id="path870" d="M 84.7076,347.534 H 116.157 V 332.47 H 84.7076 Z"/></clipPath><clipPath id="clipPath928" clipPathUnits="userSpaceOnUse"><path id="path926" d="M 334.639,256.443 H 399.6 v -50.942 h -64.961 z"/></clipPath><clipPath id="clipPath944" clipPathUnits="userSpaceOnUse"><path id="path942" d="m 358.026,264.043 h 26.577 v -23.441 h -26.577 z"/></clipPath><clipPath id="clipPath964" clipPathUnits="userSpaceOnUse"><path id="path962" d="m 378.953,224.374 c 0,0 -4.613,2.517 -9.839,-0.821 v 0 c -6.171,3.188 -11.215,-2.338 -11.215,-2.338 v 0 c -8.075,-0.373 -8.985,-5.058 -8.985,-5.058 v 0 c -8.026,-2.178 -11.42,-10.656 -11.42,-10.656 v 0 c 0,0 8.936,-7.184 19.373,-4.288 v 0 c 4.463,1.238 7.736,3.064 11.31,6.47 v 0 c 2.356,-1.015 4.742,-1.591 7.523,-1.882 v 0 c 10.772,-1.126 18.394,7.441 18.394,7.441 v 0 c -0.872,-0.27 -1.754,-0.507 -2.64,-0.73 v 0 c 3.248,1.452 6.156,3.784 7.983,7.466 v 0 l -7.596,3.469 c 0,0 -2.501,1.919 -7.026,1.919 v 0 c -1.682,0 -3.644,-0.265 -5.862,-0.992"/></clipPath><clipPath id="clipPath972" clipPathUnits="userSpaceOnUse"><path id="path970" d="m 337.493,225.366 h 61.944 v -24.841 h -61.944 z"/></clipPath><clipPath id="clipPath1044" clipPathUnits="userSpaceOnUse"><path id="path1042" d="M 0,500 H 500 V 0 H 0 Z"/></clipPath><clipPath id="clipPath1192" clipPathUnits="userSpaceOnUse"><path id="path1190" d="M 393.814,185.272 H 443.82 V 155.901 H 393.814 Z"/></clipPath><clipPath id="clipPath1208" clipPathUnits="userSpaceOnUse"><path id="path1206" d="m 431.323,200.273 h 9.701 v -22.2 h -9.701 z"/></clipPath><clipPath id="clipPath1332" clipPathUnits="userSpaceOnUse"><path id="path1330" d="m 270.397,202.509 h 47.59 v -30.086 h -47.59 z"/></clipPath><clipPath id="clipPath1348" clipPathUnits="userSpaceOnUse"><path id="path1346" d="m 305.326,213.997 h 9.663 v -18.678 h -9.663 z"/></clipPath><clipPath id="clipPath1368" clipPathUnits="userSpaceOnUse"><path id="path1366" d="m 270.398,193.342 c 0,0 1.461,-7.983 8.39,-11.261 v 0 c 2.964,-1.402 5.562,-1.939 9.052,-1.769 v 0 c 0.791,-1.632 1.802,-3.046 3.157,-4.488 v 0 c 5.248,-5.588 13.293,-4.527 13.293,-4.527 v 0 c -0.591,0.259 -1.174,0.54 -1.751,0.831 v 0 c 2.412,-0.726 5.048,-0.822 7.73,0.305 v 0 l -2.463,5.372 c 0,0 -0.848,4.111 -6.473,6.459 v 0 c 0,0 -1.305,3.483 -5.649,4.113 v 0 c -1.83,4.563 -7.087,3.938 -7.087,3.938 v 0 c -4.498,3.537 -7.153,1.449 -7.153,1.449 v 0 c -1.592,0.765 -3.224,1.032 -4.728,1.032 v 0 c -3.506,0 -6.318,-1.454 -6.318,-1.454"/></clipPath><clipPath id="clipPath1376" clipPathUnits="userSpaceOnUse"><path id="path1374" d="m 270.398,194.796 h 39.871 v -23.58 h -39.871 z"/></clipPath><clipPath id="clipPath1448" clipPathUnits="userSpaceOnUse"><path id="path1446" d="M 0,500 H 500 V 0 H 0 Z"/></clipPath><clipPath id="clipPath1518" clipPathUnits="userSpaceOnUse"><path id="path1516" d="M 0,500 H 500 V 0 H 0 Z"/></clipPath><clipPath id="clipPath1546" clipPathUnits="userSpaceOnUse"><path id="path1544" d="M 0,500 H 500 V 0 H 0 Z"/></clipPath><clipPath id="clipPath1574" clipPathUnits="userSpaceOnUse"><path id="path1572" d="M 67.5469,94.3172 H 452.429 V 79.6616 H 67.5469 Z"/></clipPath><clipPath id="clip0_81_247"><rect id="rect2072" width="243.401" height="318.175" x="0" y="0" fill="#fff"/></clipPath><ellipse id="XMLID_00000135667187144931838410000015881147178991312571_" cx="254.616" cy="274.987" rx="93.786" ry="93.786" transform="matrix(0.7071 -0.7071 0.7071 0.7071 -119.8699 260.5827)"/><ellipse id="XMLID_00000132788296135155531010000008313526408605739407_" cx="255.629" cy="200.661" rx="74.27" ry="74.27" transform="matrix(0.9876 -0.1567 0.1567 0.9876 -28.2855 42.5358)"/><ellipse id="XMLID_00000031928577583356969170000017802891979007472567_" cx="210.432" cy="332.029" rx="57.476" ry="57.476" transform="matrix(0.107 -0.9943 0.9943 0.107 -142.202 505.7349)"/></defs><g id="g10" transform="matrix(1.3333333,0,0,-1.3333333,0,666.66667)"><g style="fill:none" id="g2171" transform="matrix(0.75000002,0,0,-0.75000002,80.719117,440.06604)"><g id="g2070" clip-path="url(#clip0_81_247)"><path id="path1897" fill="#fff" stroke="#250767" stroke-linecap="round" stroke-linejoin="round" stroke-miterlimit="10" d="m 232.125,50.6146 c 3.107,4.372 3.517,10.255 0.532,14.707 -3.452,5.163 -9.112,5.667 -12.751,5.358 -0.043,0.187 -0.094,0.388 -0.144,0.604 -2.337,-0.784 -5.609,-1.402 -9.09,-2.165 -3.366,-0.734 -6.314,-1.467 -8.536,-1.719 0.022,-0.05 0.036,-0.108 0.058,-0.158 -6.214,-7.875 -4.861,-14.023 -1.618,-18.345 2.093,-2.79 4.883,-4.854 7.975,-6.113 0.518,-2.862 1.597,-6.494 2.452,-10.564 1.92,-9.09 2.007,-16.907 6.638,-15.929 4.638,0.978 6.839,9.14 4.919,18.23 -0.575,2.747 -2.055,5.72 -3.148,7.863 0.288,0.072 1.003,0.509 1.283,0.588 0.906,-2.222 2.354,-5.352 4.037,-7.588 5.581,-7.429 13.175,-11.139 16.965,-8.292 3.783,2.848 -2.05,8.054 -7.63,15.476 -1.467,1.956 -2.769,3.862 -3.962,5.566 0.754,0.827 1.437,1.668 2.02,2.481 z"/><path id="path1899" fill="#250767" stroke="#250767" stroke-linecap="round" stroke-linejoin="round" stroke-miterlimit="10" d="m 230.939,56.8366 c -1.588,0.902 -3.35,1.128 -5.132,0.755 -1.828,-0.382 -3.55,-1.259 -5.216,-2.07 -3.201,-1.557 -6.769,-3.4 -10.365,-2.382 0.789,0.694 1.395,1.54 1.888,2.487 0.585,1.126 1.057,2.323 1.82,3.348 3.12,4.194 9.105,5.028 13.946,4.294 2.384,-0.362 4.563,-1.232 6.592,-2.399 0.385,-2.044 0.244,-4.172 -0.364,-6.192 -0.198,0.086 -0.396,0.187 -0.597,0.317 -0.89,0.573 -1.646,1.316 -2.572,1.842 z"/><path id="path1901" fill="#009ca4" stroke="#250767" stroke-linecap="round" stroke-linejoin="round" stroke-miterlimit="10" d="m 219.762,71.2836 c -0.374,1.539 -0.949,3.653 -1.755,6.134 -5.128,15.728 -19.813,46.1334 -55.238,37.0444 l 2.409,-21.5964 c 0.863,-0.101 22.437,5.444 34.706,-20.129 0.791,-1.647 1.546,-3.423 2.251,-5.336 2.222,0.252 5.171,0.985 8.536,1.719 3.482,0.761 6.754,1.38 9.091,2.164 z"/><path id="path1903" fill="#009ca4" stroke="#250767" stroke-linecap="round" stroke-linejoin="round" stroke-miterlimit="10" d="m 219.762,71.2836 c -0.374,1.539 -0.949,3.653 -1.755,6.134 -5.128,15.728 -19.813,46.1334 -55.238,37.0444 l 2.409,-21.5964 c 0.863,-0.101 22.437,5.444 34.706,-20.129 0.791,-1.647 1.546,-3.423 2.251,-5.336 2.222,0.252 5.171,0.985 8.536,1.719 3.482,0.761 6.754,1.38 9.091,2.164 z"/><path id="path1905" fill="#f7b245" stroke="#250767" stroke-linecap="round" stroke-linejoin="round" stroke-miterlimit="10" d="m 223.236,74.4766 c -0.338,1.553 -2.337,2.582 -5.228,2.941 -2.402,0.302 -5.422,0.137 -8.608,-0.561 -4.027,-0.877 -7.45,-2.424 -9.514,-4.121 -1.532,-1.258 -2.323,-2.603 -2.057,-3.819 0.324,-1.481 1.891,-1.783 4.308,-1.517 2.222,0.252 5.171,0.985 8.536,1.719 3.481,0.762 6.753,1.381 9.09,2.165 2.373,0.791 3.782,1.754 3.473,3.193 z"/><path id="path1907" fill="#fff" stroke="#250767" stroke-linecap="round" stroke-linejoin="round" stroke-miterlimit="10" d="m 235.649,55.4546 c -2.106,3.891 -6.248,5.728 -9.252,4.103 -3.004,-1.626 -2.595,-3.812 -0.489,-7.704 2.106,-3.891 5.11,-8.014 8.114,-6.388 3.004,1.625 3.733,6.098 1.627,9.989 z"/><path id="path1909" fill="#fff" d="m 208.771,53.3086 c 0,0 2.937,-0.896 5.447,1.655 1.846,1.877 4.115,3.315 6.706,3.785 3.082,0.56 6.476,0.124 7.041,-4.228 0.142,-1.096 0.044,-2.218 -0.251,-3.283 -0.775,-2.792 -3.346,-7.898 -11.874,-10.085"/><path id="path1911" stroke="#250767" stroke-linecap="round" stroke-linejoin="round" stroke-miterlimit="10" d="m 208.771,53.3086 c 0,0 2.937,-0.896 5.447,1.655 1.846,1.877 4.115,3.315 6.706,3.785 3.082,0.56 6.476,0.124 7.041,-4.228 0.142,-1.096 0.044,-2.218 -0.251,-3.283 -0.775,-2.792 -3.346,-7.898 -11.874,-10.085"/><path id="path1913" fill="#fff" stroke="#250767" stroke-linecap="round" stroke-linejoin="round" stroke-miterlimit="10" d="m 46.1243,172.84 c 0,0 15.343,4.498 14.496,19.544 -0.285,5.067 -2.553,9.813 -6.008,13.529 -10.821,11.637 -23.899,14.018 -38.902,8.508 -3.394,-1.246 -6.35097,-3.564 -8.10097,-6.727 -2.156,-3.898 -2.785,-9.143 6.01997,-12.399 0,0 -6.89597,-8.672 3.362,-13.109 0,0 -5.306,-15.032 14.913,-10.864 z"/><path id="path1915" fill="#250767" stroke="#250767" stroke-linecap="round" stroke-linejoin="round" stroke-miterlimit="10" d="m 24.1334,185.326 c -0.18,0.048 -0.687,-0.848 -0.863,-0.754 -1.456,0.782 -2.079,2.339 -2.757,3.746 -0.734,1.524 -1.285,3.03 -1.47,4.726 -0.6,5.512 2.268,10.815 7.407,13.015 2.411,1.032 5.207,1.658 7.856,1.333 -1.611,-0.645 -3.114,-1.535 -4.473,-2.622 -5.915,-4.731 -6.971,-11.954 -5.7,-19.444 z"/><path id="path1917" fill="#250767" d="m 48.3043,198.095 c -0.277,0.006 -0.559,-0.053 -0.825,-0.185 -0.875,-0.435 -1.232,-1.498 -0.797,-2.374 0.498,-1.003 0.623,-2.199 0.342,-3.283 -0.281,-1.085 -0.972,-2.07 -1.895,-2.704 -0.806,-0.553 -1.01,-1.656 -0.457,-2.462 0.554,-0.805 1.656,-1.009 2.463,-0.456 1.616,1.11 2.825,2.835 3.317,4.733 0.492,1.897 0.274,3.993 -0.599,5.749 -0.303,0.61 -0.911,0.968 -1.549,0.982 z"/><path id="path1919" fill="#250767" d="m 53.5453,195.82 c -0.276,0.006 -0.559,-0.053 -0.825,-0.185 -0.875,-0.435 -1.232,-1.498 -0.797,-2.374 0.498,-1.003 0.623,-2.199 0.342,-3.283 -0.281,-1.084 -0.972,-2.07 -1.896,-2.704 -0.806,-0.553 -1.01,-1.656 -0.456,-2.462 0.554,-0.805 1.656,-1.009 2.462,-0.456 1.616,1.11 2.825,2.836 3.317,4.733 0.492,1.897 0.274,3.993 -0.599,5.749 -0.302,0.611 -0.91,0.969 -1.548,0.982 z"/><path id="path1921" fill="#f7b245" d="m 13.6293,195.296 c 0,0 7.374,-0.659 10.51,0.054 z"/><path id="path1923" stroke="#250767" stroke-linecap="round" stroke-linejoin="round" stroke-miterlimit="10" d="m 13.6293,195.296 c 0,0 7.374,-0.659 10.51,0.054"/><path id="path1925" stroke="#250767" stroke-linecap="round" stroke-linejoin="round" stroke-miterlimit="10" d="m 24.1333,185.326 c 0,0 -4.082,18.169 11.608,22.371"/><path id="path1927" fill="#f7b245" d="m 16.9912,182.187 c 0,0 3.803,-0.449 6.147,0.366 z"/><path id="path1929" stroke="#250767" stroke-linecap="round" stroke-linejoin="round" stroke-miterlimit="10" d="m 16.9912,182.187 c 0,0 3.803,-0.449 6.147,0.366"/><path id="path1931" fill="#fff" stroke="#250767" stroke-linecap="round" stroke-linejoin="round" stroke-miterlimit="10" d="m 47.2733,171.298 c 2.703,4.458 -0.286,11.212 -6.676,15.086 -6.39,3.874 -13.761,3.4 -16.464,-1.058 -2.703,-4.458 0.287,-11.212 6.677,-15.086 6.389,-3.874 13.76,-3.4 16.463,1.058 z"/><path id="path1933" fill="#009ca4" stroke="#250767" stroke-linecap="round" stroke-linejoin="round" stroke-miterlimit="10" d="M 26.7113,180.747 6.75132,155.239 c -4.619,-5.903 -3.727,-14.405 2.017,-19.22 l 25.40098,-21.296 17.638,21.851 -25.083,15.002 15.094,19.392 c 1.461,1.877 2.066,4.364 1.334,6.626 -0.885,2.736 -3.294,4.667 -6.852,5.991 -3.444,1.281 -7.325,0.056 -9.589,-2.838 z"/><path id="path1935" fill="#f25b62" stroke="#250767" stroke-linecap="round" stroke-linejoin="round" stroke-miterlimit="10" d="m 82.2083,284.939 c 12.185,0 22.0627,-7.241 22.0627,-16.172 0,-8.932 -9.8777,-16.172 -22.0627,-16.172 -12.1851,0 -22.063,7.24 -22.063,16.172 0,8.931 9.8779,16.172 22.063,16.172 z"/><path id="path1937" fill="#fff" stroke="#250767" stroke-linecap="round" stroke-linejoin="round" stroke-miterlimit="10" d="m 99.2692,254.109 c 0,5.903 -8.3269,9.632 -17.8569,9.632 -9.529,0 -16.652,-3.729 -16.652,-9.632 0,-5.903 7.7249,-10.688 17.2539,-10.688 9.53,0 17.255,4.785 17.255,10.688 z"/><path id="path1939" fill="#fff" stroke="#250767" stroke-linecap="round" stroke-linejoin="round" stroke-miterlimit="10" d="m 102.694,308.767 c -4.9707,5.412 -12.7277,8.908 -21.4497,8.908 -10.754,0 -20.034,-5.296 -24.458,-12.984 -0.952,-1.672 -0.639,-3.798 0.766,-5.11 0,-0.012 0.012,-0.012 0.023,-0.023 0.186,-0.174 0.383,-0.36 0.581,-0.523 4.796,6.539 13.344,10.894 23.088,10.894 8.304,0 15.736,-3.171 20.7187,-8.153 0.488,0.662 0.929,1.37 1.336,2.102 0.882,1.579 0.627,3.554 -0.605,4.889 z"/><path id="path1941" fill="#f25b62" stroke="#250767" stroke-linecap="round" stroke-linejoin="round" stroke-miterlimit="10" d="m 108.432,286.829 c 0,5.702 -2.427,10.917 -6.469,14.947 -4.9817,4.982 -12.4147,8.153 -20.7187,8.153 -9.744,0 -18.292,-4.355 -23.088,-10.894 -2.613,-3.542 -4.111,-7.723 -4.111,-12.206 0,-12.752 12.171,-23.088 27.199,-23.088 15.017,0 27.1877,10.336 27.1877,23.088 z"/><path id="path1943" fill="#f25b62" d="m 67.3143,271.549 c 1.199,-1.297 2.98,-2.172 4.643,-2.772 9.082,-3.282 20.629,-2.727 24.344,5.108 0.597,1.259 0.886,2.981 -0.254,4.28 -0.643,0.732 -1.607,1.137 -2.504,1.262 -0.896,0.124 -1.749,0.005 -2.595,-0.098 -4.642,-0.566 -9.454,-0.655 -14.34,-0.264 -1.763,0.141 -3.548,0.345 -5.246,0.207 -1.698,-0.137 -3.331,-0.647 -4.38,-1.771 -1.331,-1.426 -1.458,-4.014 0.332,-5.952 z" opacity=".59"/><path id="path1945" fill="#009ca4" stroke="#250767" stroke-linecap="round" stroke-linejoin="round" stroke-miterlimit="10" d="m 91.8493,248.357 c 0.023,-7.351 -1.429,-14.79 -1.447,-22.202 -0.019,-7.918 0.493,-15.836 1.532,-23.686 -0.094,0.698 -0.188,1.396 -0.282,2.094 1.175,-7.154 2.377,-14.244 4.222,-21.263 0.656,-2.495 0.313,-5.37 -0.995,-7.607 -1.198,-2.048 -3.546,-4.001 -5.9,-4.537 -2.527,-0.576 -5.364,-0.451 -7.607,0.995 -2.149,1.386 -3.872,3.372 -4.537,5.9 -4.713,17.933 -6.804,36.639 -6.024,55.169 0.213,5.061 0.648,10.111 1.294,15.136 -0.051,1.359 0.232,2.627 0.85,3.803 0.398,1.224 1.079,2.283 2.041,3.177 1.712,1.712 4.521,3.002 6.98,2.891 2.553,-0.114 5.201,-0.953 6.98,-2.891 0.515,-0.666 1.029,-1.332 1.544,-1.998 0.894,-1.538 1.344,-3.199 1.349,-4.981 z"/><path id="path1947" fill="#250767" stroke="#250767" stroke-linecap="round" stroke-linejoin="round" stroke-miterlimit="10" d="m 72.4863,209.037 c 5.867,2.548 12.181,3.32 18.458,2.885 0.206,-2.641 0.474,-5.277 0.799,-7.906 1.147,-6.968 2.334,-13.875 4.131,-20.715 0.656,-2.495 0.313,-5.37 -0.995,-7.607 -1.198,-2.048 -3.546,-4.001 -5.9,-4.537 -2.527,-0.576 -5.364,-0.451 -7.607,0.995 -2.149,1.386 -3.872,3.372 -4.5369,5.9 -2.623,9.98 -4.4311,20.199 -5.3861,30.494 0.346,0.163 0.686,0.338 1.037,0.491 z"/><path id="path1949" fill="#fff" stroke="#250767" stroke-linecap="round" stroke-linejoin="round" stroke-miterlimit="10" d="m 103.438,252.857 c 0,0 -4.2328,2.089 -2.425,5.744 0.419,0.847 1.1,1.537 1.888,2.059 4.365,2.891 22.69,11.544 56.709,4.889 3.419,-0.669 6.736,-1.873 9.702,-3.702 0.572,-0.353 1.137,-0.73 1.671,-1.129 2.288,-1.71 3.123,-4.76 2.137,-7.442 l -1.664,-4.522 z"/><path id="path1951" fill="#f25b62" stroke="#250767" stroke-linecap="round" stroke-linejoin="round" stroke-miterlimit="10" d="m 174.791,242.564 c -0.845,-5.939 -4.615,-11.028 -9.76,-14.114 -6.494,-3.895 -16.863,-6.913 -26.789,3.825 l -32.556,-1.79 c -0.608,0.424 -17.1897,24.439 9.062,29.859 0,0 19.572,2.756 38.603,2.188 5.061,-0.151 10.046,-1.622 14.201,-4.516 4.345,-3.026 8.312,-7.912 7.239,-15.452 z"/><path id="path1953" fill="#f25b62" d="m 157.422,228.163 c 1.157,-0.22 2.449,0.143 3.567,0.622 6.108,2.62 11.956,9.046 10.73,16.127 -0.197,1.138 -0.744,2.417 -1.87,2.669 -0.635,0.142 -1.307,-0.099 -1.829,-0.489 -0.522,-0.389 -0.922,-0.915 -1.325,-1.426 -2.212,-2.808 -4.706,-5.393 -7.435,-7.702 -0.985,-0.833 -2.006,-1.637 -2.843,-2.619 -0.837,-0.981 -1.489,-2.173 -1.585,-3.459 -0.122,-1.633 0.862,-3.395 2.59,-3.723 z" opacity=".59"/><path id="path1955" stroke="#250767" stroke-linecap="round" stroke-linejoin="round" stroke-miterlimit="10" d="m 138.242,232.275 c 0,0 -3.047,1.916 -6.403,8.778"/><path id="path1957" fill="#fff" stroke="#250767" stroke-linecap="round" stroke-linejoin="round" stroke-miterlimit="10" d="m 136.92,231.823 c 0.115,5.494 -8.216,6.402 -17.842,6.603 -9.626,0.201 -16.901,-0.382 -17.016,-5.875 -0.115,-5.494 7.596,-10.11 17.221,-10.311 9.626,-0.201 17.522,4.089 17.637,9.583 z"/><path id="path1959" fill="#009ca4" stroke="#250767" stroke-linecap="round" stroke-linejoin="round" stroke-miterlimit="10" d="m 113.763,183.522 c 5.674,11.275 4.273,25.125 -1.082,36.234 -1.438,2.983 -3.14,5.382 -4.24,8.322 -0.811,2.168 0.292,4.677 2.525,5.29 0.018,0.005 0.035,0.009 0.053,0.014 2.024,0.539 4.228,0.495 6.299,0.497 2.221,0.003 10.893,-0.471 12.882,-1.305 0.522,-0.219 0.952,-0.622 1.206,-1.128 5.224,-10.39 7.914,-23.685 7.146,-35.217 -0.705,-10.601 -3.982,-24.407 -11.771,-32.2 -2.275,-2.276 -5.64,-3.825 -8.9,-3.095 -7.349,0.469 -11.772,9.786 -7.823,15.922 1.426,2.118 2.561,4.393 3.705,6.666 z"/><path id="path1961" fill="#250767" stroke="#250767" stroke-linecap="round" stroke-linejoin="round" stroke-miterlimit="10" d="m 113.763,183.522 c 2.798,5.56 3.869,11.746 3.601,17.92 1.978,-0.853 3.926,-1.772 5.826,-2.79 5.274,-2.827 10.157,-6.358 14.356,-10.629 -1.57,-8.78 -4.876,-18.103 -10.764,-23.993 -2.275,-2.276 -5.64,-3.825 -8.9,-3.095 -7.349,0.469 -11.772,9.786 -7.823,15.922 1.425,2.117 2.56,4.392 3.704,6.665 z"/><path id="path1963" fill="#f25b62" stroke="#250767" stroke-linecap="round" stroke-linejoin="round" stroke-miterlimit="10" d="m 145.732,36.5336 c -3.193,19.764 -23.292,40.146 -43.497,36.882 -20.2037,-3.264 -32.8627,-28.938 -29.6687,-48.703 3.193,-19.76398 21.12,-26.70298 41.3247,-23.43898 20.204,3.265 35.034,15.49598 31.841,35.25998 z"/><path id="path1965" fill="#250767" d="m 120.824,70.1936 c -5.83,2.926 -12.204,4.249 -18.585,3.22 C 82.0294,70.1496 69.3764,44.4766 72.5674,24.7156 75.5674,6.12262 91.6084,-1.11838 110.311,0.800618 94.6004,5.63062 83.3084,18.9306 83.3084,34.5676 c 0,18.952 16.578,34.45 37.5156,35.626 z" opacity=".15"/><path id="path1967" fill="#f25b62" d="m 124.387,7.36561 c 1.609,-0.204 3.355,0.40501 4.852,1.16001 8.176,4.12298 15.671,13.45698 13.382,23.08998 -0.368,1.547 -1.228,3.261 -2.799,3.511 -0.886,0.141 -1.789,-0.248 -2.473,-0.827 -0.684,-0.58 -1.19,-1.337 -1.701,-2.075 -2.802,-4.05 -6.013,-7.817 -9.568,-11.224 -1.283,-1.23 -2.619,-2.422 -3.686,-3.843 -1.068,-1.421 -1.863,-3.115 -1.886,-4.892 -0.028,-2.257 1.475,-4.59499 3.879,-4.89999 z" opacity=".49"/><path id="path1969" fill="#f7b245" d="m 102.235,73.4156 c 0,0 7.141,-39.644 8.606,-53.918 z"/><path id="path1971" stroke="#250767" stroke-linecap="round" stroke-linejoin="round" stroke-miterlimit="10" d="m 102.235,73.4156 c 0,0 7.141,-39.644 8.606,-53.918"/><path id="path1973" fill="#f25b62" stroke="#250767" stroke-linecap="round" stroke-linejoin="round" stroke-miterlimit="10" d="m 184.183,105.722 c -17.823,9.119 -46.147,4.972 -55.468,-13.2484 -9.321,-18.22 3.889,-43.615 21.713,-52.733 17.824,-9.118 34.023,1.23 43.345,19.451 9.32,18.219 8.233,37.412 -9.59,46.5304 z"/><path id="path1975" fill="#f25b62" d="m 163.609,38.3836 c 1.352,-0.564 3.019,-0.453 4.504,-0.155 8.109,1.627 16.877,7.957 17.196,16.895 0.051,1.436 -0.287,3.135 -1.595,3.73 -0.737,0.336 -1.617,0.214 -2.352,-0.127 -0.735,-0.341 -1.357,-0.879 -1.979,-1.398 -3.412,-2.854 -7.112,-5.364 -11.026,-7.478 -1.413,-0.763 -2.862,-1.481 -4.133,-2.462 -1.271,-0.981 -2.37,-2.265 -2.816,-3.808 -0.566,-1.957 0.181,-4.354 2.201,-5.197 z" opacity=".49"/><path id="path1977" fill="#250767" d="m 184.182,105.725 c -17.821,9.116 -46.147,4.97 -55.469,-13.2484 -9.322,-18.225 3.889,-43.618 21.717,-52.734 2.522,-1.287 5.014,-2.191 7.455,-2.735 -0.294,0.14 -0.595,0.279 -0.89,0.434 -14.608,7.477 -25.43,28.282 -17.791,43.214 7.639,14.924 30.841,18.328 45.449,10.851 10.351,-5.293 13.814,-14.74 12.233,-25.114 5.631,15.887 2.779,31.407 -12.704,39.3324 z" opacity=".15"/><path id="path1979" fill="#f7b245" d="m 128.714,92.4736 c 0,0 36.186,-17.697 48.561,-24.96 z"/><path id="path1981" stroke="#250767" stroke-linecap="round" stroke-linejoin="round" stroke-miterlimit="10" d="m 128.714,92.4736 c 0,0 36.186,-17.697 48.561,-24.96"/><path id="path1983" fill="#f25b62" stroke="#250767" stroke-linecap="round" stroke-linejoin="round" stroke-miterlimit="10" d="m 140.014,180.36 c -17.285,-12.008 -27.472,-40.323 -15.196,-57.993 12.276,-17.669 42.366,-18.002 59.65,-5.993 17.285,12.008 15.715,32.155 3.439,49.825 -12.275,17.669 -30.608,26.169 -47.893,14.161 z"/><path id="path1985" fill="#f25b62" d="m 174.906,115.913 c 1.609,-0.204 3.355,0.405 4.852,1.16 8.176,4.122 15.671,13.457 13.382,23.09 -0.368,1.548 -1.228,3.261 -2.799,3.512 -0.886,0.141 -1.789,-0.248 -2.473,-0.827 -0.684,-0.58 -1.19,-1.337 -1.7,-2.075 -2.802,-4.05 -6.013,-7.816 -9.568,-11.224 -1.283,-1.23 -2.619,-2.422 -3.687,-3.843 -1.068,-1.421 -1.863,-3.115 -1.885,-4.892 -0.029,-2.258 1.473,-4.597 3.878,-4.901 z" opacity=".49"/><path id="path1987" fill="#250767" d="m 179.557,175.898 c -11.484,10.609 -25.842,13.976 -39.545,4.463 -17.284,-12.006 -27.474,-40.325 -15.196,-57.991 9.748,-14.042 30.745,-17.137 47.625,-11.8 -15.034,3.088 -26.341,16.395 -26.341,32.333 0,18.225 14.777,33.002 33.002,33.002 0.154,0 0.301,0 0.455,-0.007 z" opacity=".15"/><path id="path1989" fill="#f7b245" d="m 124.818,122.367 c 0,0 34.335,24.784 47.2,32.659 z"/><path id="path1991" stroke="#250767" stroke-linecap="round" stroke-linejoin="round" stroke-miterlimit="10" d="m 124.818,122.367 c 0,0 34.335,24.784 47.2,32.659"/><path id="path1993" fill="#f25b62" stroke="#250767" stroke-linecap="round" stroke-linejoin="round" stroke-miterlimit="10" d="m 49.4814,158.636 c 6.68,-19.882 30.94,-37.51 51.2636,-30.682 20.324,6.828 29.017,35.529 22.337,55.411 -6.68,19.882 -26.3956,23.987 -46.7196,17.158 -20.324,-6.827 -33.561,-22.005 -26.881,-41.887 z"/><path id="path1995" fill="#250767" d="m 124.956,163.069 c -10.028,-10.263 -27.8996,-12.307 -43.4636,-3.999 -13.586,7.256 -21.599,20.364 -21.445,32.929 -10.248,-8.043 -15.204,-19.57 -10.565,-33.362 6.683,-19.879 30.936,-37.509 51.2636,-30.679 13.969,4.697 22.445,19.717 24.21,35.111 z" opacity=".15"/><path id="path1997" fill="#f25b62" d="m 120.023,177.671 c 0.468,1.553 0.158,3.376 -0.338,4.977 -2.707,8.747 -10.668,17.689 -20.5466,17.032 -1.587,-0.106 -3.42,-0.67 -3.928,-2.177 -0.286,-0.85 -0.053,-1.805 0.405,-2.576 0.458,-0.771 1.121,-1.396 1.763,-2.021 3.5276,-3.436 6.7086,-7.228 9.4786,-11.299 1,-1.469 1.953,-2.985 3.177,-4.274 1.224,-1.289 2.762,-2.355 4.511,-2.672 2.222,-0.404 4.778,0.689 5.478,3.01 z" opacity=".49"/><path id="path1999" fill="#f7b245" d="m 100.745,127.955 c 0,0 -14.1596,39.753 -18.1146,54.256 z"/><path id="path2001" stroke="#250767" stroke-linecap="round" stroke-linejoin="round" stroke-miterlimit="10" d="m 100.745,127.955 c 0,0 -14.1596,39.753 -18.1146,54.256"/><path id="path2003" fill="#f7b245" d="M 150.293,107.914 C 150.988,82.5844 131.017,61.4881 105.688,60.7938 80.3587,60.0996 59.2625,80.0701 58.5682,105.399 c -0.6943,25.33 19.2762,46.426 44.6058,47.12 25.329,0.694 46.425,-19.276 47.119,-44.605 z"/><mask id="mask0_81_247" width="93" height="93" x="58" y="60" maskUnits="userSpaceOnUse"><path id="path2005" fill="#fff" d="M 150.293,107.914 C 150.988,82.5844 131.017,61.4882 105.688,60.7939 80.3587,60.0996 59.2625,80.0701 58.5682,105.399 c -0.6943,25.33 19.2762,46.426 44.6058,47.12 25.329,0.694 46.425,-19.276 47.119,-44.605 z"/></mask><g id="g2020" mask="url(#mask0_81_247)"><path id="path2008" fill="#fbe36f" d="m 147.236,123.175 c -4.952,12.833 -15.041,22.163 -27.013,26.557 10.783,-5.123 19.704,-14.227 24.341,-26.246 7.787,-20.173 1.129,-42.3654 -14.913,-55.1774 17.679,11.606 25.509,34.3354 17.585,54.8664 z"/><path id="path2010" fill="#f7b245" d="m 124.46,147.924 c -11.038,5.361 -24.192,6.3 -36.5497,1.53 -23.638,-9.124 -35.405,-35.687 -26.281,-59.3264 6.488,-16.807 21.794,-27.616 38.5937,-29.171 -10.0967,4.888 -18.4247,13.469 -22.7807,24.754 -9.124,23.6384 2.639,50.2004 26.2767,59.3244 6.835,2.638 13.911,3.529 20.741,2.889 z" opacity=".5"/><g id="g2018" opacity=".5"><path id="path2012" fill="#fbe36f" d="m 92.8453,71.0576 c -1.203,-0.067 -2.466,0.475 -3.536,1.113 -5.846,3.482 -10.916,10.793 -8.717,17.815 0.353,1.128 1.081,2.353 2.258,2.457 0.664,0.059 1.313,-0.277 1.79,-0.742 0.477,-0.465 0.813,-1.053 1.153,-1.627 1.866,-3.148 4.05,-6.108 6.508,-8.82 0.887,-0.979 1.815,-1.932 2.533,-3.041 0.717,-1.109 1.219,-2.406 1.143,-3.725 -0.098,-1.674 -1.334,-3.329 -3.132,-3.43 z"/><path id="path2014" fill="#fbe36f" d="m 82.8993,95.7096 c -0.107,1.154 -1.004,2.015 -2.002,1.922 -0.999,-0.093 -1.721,-1.104 -1.614,-2.258 0.107,-1.154 1.004,-2.015 2.002,-1.922 0.998,0.092 1.721,1.103 1.614,2.258 z"/><path id="path2016" fill="#fbe36f" d="m 81.5833,100.312 c -0.079,0.847 -0.736,1.478 -1.468,1.41 -0.732,-0.068 -1.262,-0.81 -1.184,-1.656 0.078,-0.8464 0.736,-1.4784 1.468,-1.4104 0.733,0.069 1.263,0.81 1.184,1.6564 z"/></g></g><path id="path2022" stroke="#250767" stroke-linecap="round" stroke-linejoin="round" stroke-miterlimit="10" stroke-width="1" d="M 150.293,107.914 C 150.988,82.5844 131.017,61.4881 105.688,60.7938 80.3587,60.0996 59.2625,80.0701 58.5682,105.399 c -0.6943,25.33 19.2762,46.426 44.6058,47.12 25.329,0.694 46.425,-19.276 47.119,-44.605 z"/><path id="path2024" fill="#fff" stroke="#250767" stroke-linecap="round" stroke-linejoin="round" stroke-miterlimit="10" d="m 115.339,99.7116 c -0.82,-9.767 -6.177,-17.283 -11.953,-16.798 -1.113,0.093 -2.165,0.482 -3.126,1.112 -4.0326,2.63 -6.5266,9.563 -5.8646,17.4454 0.661,7.874 4.277,14.295 8.6926,16.222 1.052,0.461 2.154,0.668 3.267,0.575 5.777,-0.485 9.804,-8.796 8.984,-18.5564 z"/><path id="path2026" fill="#250767" stroke="#250767" stroke-linecap="round" stroke-linejoin="round" stroke-miterlimit="10" d="m 100.742,100.303 7.711,-3.4604 c -1.27,-6.282 -4.443,-11.176 -8.193,-12.817 -4.0326,2.63 -6.5266,9.563 -5.8646,17.4454 0.661,7.874 4.277,14.295 8.6926,16.222 3.551,-2.333 5.903,-7.99 5.953,-14.697 -3.478,-1.128 -8.299,-2.693 -8.299,-2.693 z"/><path id="path2028" fill="#fff" stroke="#250767" stroke-linecap="round" stroke-linejoin="round" stroke-miterlimit="10" d="m 138.283,97.7846 c -0.82,-9.767 -6.177,-17.283 -11.953,-16.798 -1.113,0.093 -2.165,0.482 -3.126,1.112 -4.033,2.63 -6.527,9.563 -5.865,17.445 0.661,7.8744 4.277,14.2954 8.693,16.2224 1.052,0.461 2.155,0.668 3.267,0.575 5.776,-0.485 9.803,-8.796 8.984,-18.5564 z"/><path id="path2030" fill="#250767" stroke="#250767" stroke-linecap="round" stroke-linejoin="round" stroke-miterlimit="10" d="m 123.686,98.3756 7.711,-3.46 c -1.27,-6.282 -4.443,-11.176 -8.193,-12.817 -4.033,2.63 -6.527,9.563 -5.865,17.445 0.661,7.8744 4.277,14.2954 8.693,16.2224 3.551,-2.332 5.903,-7.99 5.954,-14.697 -3.479,-1.1284 -8.3,-2.6934 -8.3,-2.6934 z"/><path id="path2032" fill="#f7b245" d="m 132.057,78.4036 c -4.156,-2.244 -8.324,-1.993 -12.503,1.05 z"/><path id="path2034" stroke="#250767" stroke-linecap="round" stroke-linejoin="round" stroke-miterlimit="10" d="m 132.057,78.4036 c -4.156,-2.244 -8.324,-1.993 -12.503,1.05"/><path id="path2036" fill="#f7b245" d="m 110.466,80.2166 c -4.156,-2.244 -8.324,-1.993 -12.5026,1.05 z"/><path id="path2038" stroke="#250767" stroke-linecap="round" stroke-linejoin="round" stroke-miterlimit="10" d="m 110.466,80.2166 c -4.156,-2.244 -8.324,-1.993 -12.5026,1.05"/><path id="path2040" fill="#250767" d="m 129.124,122.96 c -0.131,0.993 -0.529,1.89 -0.987,2.705 -0.781,1.375 -1.743,2.564 -2.836,3.544 -2.534,2.311 -5.781,3.567 -9.08,3.823 -1.822,0.143 -3.707,0.002 -5.489,-0.78 -1.392,-0.607 -2.707,-1.636 -3.673,-3.015 -0.278,-0.39 -0.531,-0.81 -0.749,-1.261 -0.546,-1.164 -0.835,-2.515 -0.787,-3.787 0.035,-0.948 0.262,-1.843 0.68,-2.602 0.855,-1.522 2.427,-2.264 4.011,-2.377 1.647,-0.116 3.3,0.422 4.949,0.746 1.773,0.356 3.374,0.132 5.029,-0.426 1.645,-0.556 3.288,-1.265 5.046,-1.263 1.215,0.004 2.582,0.45 3.349,1.696 0.533,0.869 0.676,1.991 0.537,2.997 z"/><path id="path2042" fill="#250767" d="m 128.642,122.827 c -0.293,1.924 -1.466,3.695 -2.761,5.105 -1.294,1.41 -2.872,2.54 -4.616,3.325 -3.45,1.551 -8.053,2.06 -11.388,-0.022 -1.675,-1.045 -2.989,-2.708 -3.541,-4.609 -0.54,-1.86 -0.501,-4.2 0.954,-5.65 1.437,-1.432 3.522,-1.423 5.383,-1.052 2.017,0.402 3.866,0.909 5.935,0.539 2.293,-0.41 4.408,-1.778 6.79,-1.692 0.875,0.032 1.766,0.329 2.385,0.967 0.827,0.851 0.975,2.095 0.841,3.223 -0.076,0.638 0.925,0.632 1,0 0.236,-1.992 -0.545,-4.029 -2.488,-4.827 -2.033,-0.836 -4.264,-0.074 -6.219,0.615 -1.147,0.404 -2.298,0.787 -3.522,0.863 -1.287,0.08 -2.505,-0.223 -3.75,-0.501 -2.047,-0.456 -4.235,-0.726 -6.116,0.418 -3.975,2.419 -2.691,8.262 0.033,11.103 3.133,3.268 8.062,3.492 12.179,2.253 2.321,-0.699 4.451,-1.923 6.208,-3.594 1.697,-1.615 3.297,-3.835 3.656,-6.197 0.097,-0.63 -0.867,-0.902 -0.963,-0.267 z"/><path id="path2044" fill="#f25b62" stroke="#250767" stroke-linecap="round" stroke-linejoin="round" stroke-miterlimit="10" d="m 125.301,129.209 c -2.534,2.311 -5.781,3.567 -9.08,3.823 -1.822,0.143 -3.707,0.002 -5.489,-0.78 -1.392,-0.607 -2.707,-1.636 -3.673,-3.015 1.566,-1.823 3.934,-3.252 6.756,-3.879 4.904,-1.088 9.602,0.594 11.486,3.851 z"/><path id="path2046" fill="#f25b62" stroke="#250767" stroke-linecap="round" stroke-linejoin="round" stroke-miterlimit="10" d="m 18.5823,85.7036 c 18.676,-7.214 46.414,-0.142 53.788,18.9504 7.374,19.091 -8.408,42.973 -27.084,50.187 -18.676,7.214 -33.71,-4.765 -41.08398,-23.857 -7.374,-19.092 -4.2959956,-38.0664 14.37998,-45.2804 z"/><path id="path2048" fill="#250767" d="m 55.5113,149.049 c -3.213,2.434 -6.668,4.419 -10.226,5.793 -18.674,7.212 -33.708,-4.764 -41.08204,-23.857 -7.374,-19.092 -4.292995,-38.0684 14.38004,-45.2804 2.61,-1.007 5.396,-1.735 8.285,-2.191 -8.572,6.808 -14.035,17.0934 -14.035,28.6064 0,20.497 17.321,37.119 38.693,37.119 1.345,0.002 2.676,-0.065 3.985,-0.19 z" opacity=".15"/><path id="path2050" fill="#f7b245" d="m 72.3703,104.655 c 0,0 -37.832,13.833 -50.895,19.769 z"/><path id="path2052" stroke="#250767" stroke-linecap="round" stroke-linejoin="round" stroke-miterlimit="10" d="m 72.3703,104.655 c 0,0 -37.832,13.833 -50.895,19.769"/><path id="path2054" fill="#f25b62" stroke="#250767" stroke-linecap="round" stroke-linejoin="round" stroke-miterlimit="10" d="m 68.9393,23.7196 c 15.453,12.729 22.909,40.366 9.896,56.163 -13.012,15.797 -41.566,13.772 -57.019,1.042 -15.45296,-12.729 -12.39797,-31.708 0.614,-47.505 13.012,-15.797 31.056,-22.43 46.509,-9.7 z"/><path id="path2056" fill="#250767" d="m 31.8823,86.9896 c -3.697,-1.604 -7.123,-3.64 -10.067,-6.065 -15.45096,-12.728 -12.39797,-31.705 0.616,-47.502 13.014,-15.797 31.057,-22.429 46.507,-9.701 2.159,1.779 4.161,3.849 5.976,6.143 -10.139,-4.126 -21.781,-3.836 -31.811,1.816 -17.857,10.062 -23.835,33.313 -13.343,51.932 0.66,1.171 1.371,2.298 2.122,3.377 z" opacity=".15"/><path id="path2058" fill="#f25b62" d="m 72.4573,36.7756 c 1.558,0.45 2.92,1.7 3.996,2.986 5.876,7.023 9.062,18.563 3.146,26.502 -0.95,1.275 -2.419,2.508 -3.961,2.116 -0.869,-0.221 -1.544,-0.936 -1.943,-1.739 -0.399,-0.803 -0.563,-1.699 -0.74,-2.578 -0.969,-4.828 -2.426,-9.559 -4.342,-14.095 -0.691,-1.637 -1.446,-3.261 -1.864,-4.989 -0.418,-1.728 -0.478,-3.598 0.206,-5.239 0.868,-2.084 3.174,-3.637 5.502,-2.964 z" opacity=".49"/><path id="path2060" fill="#f7b245" d="m 78.8363,79.8826 c 0,0 -30.624,-26.168 -42.209,-34.635 z"/><path id="path2062" stroke="#250767" stroke-linecap="round" stroke-linejoin="round" stroke-miterlimit="10" d="m 78.8363,79.8826 c 0,0 -30.624,-26.168 -42.209,-34.635"/><path id="path2064" fill="#f25b62" d="m 148.879,115.598 c 0,2.766 -3.087,5.008 -6.894,5.008 -3.807,0 -6.894,-2.242 -6.894,-5.008 0,-2.766 3.087,-5.008 6.894,-5.008 3.807,0 6.894,2.242 6.894,5.008 z"/><path id="path2066" fill="#f25b62" d="m 98.2493,117.219 c 0,3.275 -4.266,5.929 -9.529,5.929 -5.263,0 -9.529,-2.654 -9.529,-5.929 0,-3.275 4.266,-5.929 9.529,-5.929 5.263,0 9.529,2.655 9.529,5.929 z"/><path id="path2068" fill="#f25b62" d="m 34.1263,95.0536 c 1.088,-1.203 2.809,-1.879 4.437,-2.281 8.889,-2.199 20.656,0 25.196,8.8004 0.729,1.413 1.192,3.274 0.164,4.488 -0.58,0.684 -1.518,0.977 -2.415,0.983 -0.897,0.006 -1.774,-0.239 -2.642,-0.466 -4.764,-1.247 -9.654,-2.013 -14.571,-2.282 -1.775,-0.097 -3.565,-0.132 -5.3,-0.514 -1.736,-0.383 -3.443,-1.15 -4.618,-2.483 -1.493,-1.6954 -1.877,-4.4484 -0.251,-6.2454 z" opacity=".49"/></g></g><g id="g3201" transform="matrix(0.75000002,0,0,-0.75000002,384.59895,432.05116)"><g id="OBJECTS"><g id="g2755"><g id="g2753"><g id="g2751"><g id="g2719"><g id="g2717" transform="translate(-583.21149,152.45339)"><g id="g2693"><g id="g2683"><path style="fill:#fff;stroke:#250767;stroke-linecap:round;stroke-linejoin:round;stroke-miterlimit:10" id="path2677" d="m 251.612,262.683 c -0.109,12.019 -5.971,21.7 -13.079,21.636 -1.369,-0.012 -2.692,-0.391 -3.924,-1.074 -5.173,-2.847 -8.857,-11.097 -8.77,-20.796 0.088,-9.69 3.921,-17.872 9.145,-20.633 1.245,-0.66 2.574,-1.015 3.943,-1.002 7.108,0.064 12.794,9.859 12.685,21.869 z"/><g id="g2681"><path style="fill:#250767;stroke:#250767;stroke-linecap:round;stroke-linejoin:round;stroke-miterlimit:10" id="path2679" d="m 233.708,263.297 9.746,3.525 c -0.978,7.798 -4.41,14.073 -8.845,16.423 -5.173,-2.847 -8.857,-11.097 -8.77,-20.796 0.088,-9.69 3.921,-17.872 9.145,-20.633 4.556,2.527 7.95,9.231 8.626,17.427 -4.15,1.698 -9.902,4.054 -9.902,4.054 z"/></g></g><g id="g2691"><path style="fill:#fff;stroke:#250767;stroke-linecap:round;stroke-linejoin:round;stroke-miterlimit:10" id="path2685" d="m 279.845,262.939 c -0.109,12.019 -5.971,21.7 -13.079,21.635 -1.369,-0.012 -2.692,-0.391 -3.924,-1.074 -5.173,-2.847 -8.857,-11.097 -8.77,-20.796 0.088,-9.69 3.922,-17.872 9.145,-20.633 1.245,-0.66 2.574,-1.015 3.943,-1.002 7.108,0.065 12.794,9.859 12.685,21.87 z"/><g id="g2689"><path style="fill:#250767;stroke:#250767;stroke-linecap:round;stroke-linejoin:round;stroke-miterlimit:10" id="path2687" d="m 261.941,263.553 9.746,3.525 c -0.978,7.798 -4.41,14.073 -8.845,16.423 -5.173,-2.847 -8.857,-11.097 -8.77,-20.796 0.088,-9.69 3.922,-17.872 9.145,-20.633 4.556,2.527 7.95,9.231 8.626,17.427 -4.15,1.698 -9.902,4.054 -9.902,4.054 z"/></g></g></g><path style="fill:none;stroke:#250767;stroke-linecap:round;stroke-linejoin:round;stroke-miterlimit:10" id="path2695" d="m 231.678,238.178 c 4.877,-3.125 9.996,-3.199 15.386,0.139"/><path style="fill:none;stroke:#250767;stroke-linecap:round;stroke-linejoin:round;stroke-miterlimit:10" id="path2697" d="m 258.246,238.419 c 4.877,-3.125 9.996,-3.199 15.385,0.139"/><g id="g2709"><g id="g2705"><path style="fill:#250767" id="path2699" d="m 274.448,303.705 c -0.214,0.251 -0.439,0.501 -0.653,0.729 -8.572,9.124 -22.957,8.212 -33.085,3.957 -1.725,-0.72 -3.775,-1.957 -5.632,-3.56 -3.463,-3.005 -6.227,-7.33 -4.795,-12.078 1.593,-5.267 5.963,-5.722 9.924,-4.944 3.777,0.739 7.536,2.347 11.4,2.218 4.154,-0.135 8.299,-0.931 12.273,-2.414 4.055,-1.528 8.79,-3.959 12.204,-0.757 0.614,0.581 1.19,1.347 1.703,2.343 2.631,5.028 -0.12,10.769 -3.339,14.506 z"/><g id="g2703"><path style="fill:#250767" id="path2701" d="m 274.094,303.352 c -4.957,5.745 -12.433,7.928 -19.832,7.612 -3.569,-0.153 -7.112,-0.843 -10.502,-1.964 -3.891,-1.286 -7.461,-3.27 -10.205,-6.375 -2.757,-3.119 -4.227,-7.418 -2.151,-11.321 1.562,-2.936 4.733,-3.598 7.804,-3.162 2.219,0.315 4.365,1.036 6.532,1.582 2.295,0.579 4.555,0.894 6.923,0.753 2.402,-0.143 4.795,-0.503 7.131,-1.08 2.258,-0.558 4.403,-1.384 6.568,-2.219 1.828,-0.705 3.774,-1.432 5.762,-1.395 2.079,0.039 3.726,1.184 4.805,2.918 2.432,3.911 1.314,8.497 -1.003,12.173 -0.548,0.871 -1.163,1.695 -1.832,2.478 -0.416,0.487 0.288,1.197 0.707,0.707 2.755,-3.226 5.029,-7.502 4.444,-11.874 -0.287,-2.147 -1.316,-4.37 -2.959,-5.82 -1.512,-1.335 -3.455,-1.752 -5.423,-1.508 -2.17,0.269 -4.206,1.137 -6.226,1.928 -2.37,0.929 -4.804,1.658 -7.309,2.123 -2.594,0.482 -5.35,0.824 -7.984,0.512 -2.539,-0.3 -4.978,-1.142 -7.451,-1.749 -3.183,-0.781 -6.912,-1.254 -9.639,0.991 -3.165,2.605 -3.471,7.424 -1.882,10.947 1.815,4.023 5.714,7.247 9.674,9.033 3.421,1.543 7.134,2.525 10.848,3.02 7.609,1.014 15.818,-0.253 21.758,-5.434 0.769,-0.671 1.482,-1.398 2.148,-2.17 0.42,-0.484 -0.285,-1.194 -0.706,-0.706 z"/></g></g><path style="fill:#f25b62;stroke:#250767;stroke-linecap:round;stroke-linejoin:round;stroke-miterlimit:10" id="path2707" d="m 274.448,303.705 c -0.214,0.251 -0.439,0.501 -0.653,0.729 -8.572,9.124 -22.957,8.212 -33.085,3.957 -1.725,-0.72 -3.775,-1.957 -5.632,-3.56 2.377,-7.28 10.626,-12.537 20.305,-12.337 8.809,0.18 16.239,4.833 19.065,11.211 z"/></g><g id="g2715"><path style="fill:#f25b62" id="path2711" d="m 307.928,280.272 c -0.096,4.672 -6.261,8.334 -13.77,8.179 -7.508,-0.155 -13.517,-4.068 -13.421,-8.74 0.096,-4.672 6.261,-8.334 13.77,-8.179 7.508,0.155 13.517,4.067 13.421,8.74 z"/><path style="fill:#f25b62" id="path2713" d="m 223.334,278.527 c -0.096,4.672 -6.261,8.334 -13.77,8.179 -7.509,-0.155 -13.517,-4.068 -13.421,-8.74 0.096,-4.672 6.261,-8.334 13.77,-8.179 7.509,0.156 13.517,4.068 13.421,8.74 z"/></g></g><g id="g4135" transform="translate(145.18059,162.63337)"><g id="g3302" transform="translate(-183.77787,-508.75134)"><g id="g3256"><g id="g3252"><g id="g3250"><g id="g3216"><path style="fill:#009ca4" id="path3210" d="m 71.116,399.319 c -0.972,6.302 -1.527,12.809 -0.006,19.001 0.585,2.381 1.53,4.713 2.795,6.83 h 18.989 c 1.639,-23.141 -7.431,-46.92 -24.315,-62.876 3.841,5.089 5.12,11.72 5.007,18.095 -0.115,6.375 -1.498,12.649 -2.47,18.95 z"/><g id="g3214"><path style="fill:#250767" id="path3212" d="m 70.634,399.186 c -0.805,5.25 -1.344,10.604 -0.635,15.898 0.337,2.516 0.954,4.976 1.951,7.314 0.25,0.586 0.52,1.164 0.813,1.73 0.21,0.405 0.482,1.217 0.889,1.454 0.15,0.088 0.323,0.066 0.488,0.068 4.572,0.056 9.147,0 13.719,0 1.678,0 3.356,0 5.035,0 0.284,0 0.481,-0.23 0.5,-0.5 0.633,-9.107 -0.366,-18.309 -2.842,-27.093 -2.466,-8.748 -6.394,-17.101 -11.62,-24.54 -2.94,-4.185 -6.287,-8.078 -9.999,-11.597 -0.393,-0.372 -1.139,0.133 -0.785,0.606 5.961,7.981 5.412,18.486 3.951,27.811 -0.465,2.954 -1.007,5.895 -1.465,8.849 -0.098,0.63 0.866,0.901 0.964,0.266 1.552,-10.01 4.171,-20.472 0.961,-30.441 -0.806,-2.503 -1.974,-4.88 -3.549,-6.989 -0.262,0.202 -0.523,0.404 -0.785,0.606 6.545,6.202 11.92,13.568 15.939,21.635 4.024,8.076 6.693,16.854 7.812,25.809 0.625,4.999 0.767,10.053 0.418,15.078 0.167,-0.167 0.333,-0.333 0.5,-0.5 -5.55,0 -11.1,0 -16.65,0 -0.78,0 -1.56,0 -2.339,0 0.144,0.083 0.288,0.165 0.432,0.248 -4.557,-7.711 -4.047,-16.914 -2.738,-25.446 0.095,-0.63 -0.868,-0.901 -0.965,-0.266 z"/></g></g><g id="g3224"><path style="fill:#009ca4" id="path3218" d="m 94.668,425.15 h 23.407 c -1.321,-3.246 -3.372,-6.272 -5.504,-9.085 -3.454,-4.557 -7.295,-9.02 -9.066,-14.456 -2.29,-7.032 -0.806,-14.682 -1.441,-22.05 -1.17,-13.585 -9.462,-25.505 -18.709,-35.525 3.512,6.557 3.955,14.36 3.108,21.75 -0.847,7.39 -2.891,14.589 -4.082,21.931 -1.191,7.342 -1.492,15.057 1.068,22.041 2.224,6.066 6.373,11.034 11.219,15.394 z"/><g id="g3222"><path style="fill:#250767" id="path3220" d="m 94.668,425.65 c 2.631,0 5.262,0 7.893,0 4.199,0 8.399,0 12.598,0 0.972,0 1.944,0 2.916,0 0.292,0 0.609,-0.325 0.482,-0.633 -2.356,-5.717 -6.57,-10.241 -10.104,-15.22 -1.701,-2.397 -3.263,-4.935 -4.258,-7.713 -1.068,-2.982 -1.423,-6.14 -1.507,-9.291 -0.086,-3.216 0.088,-6.431 0.043,-9.647 -0.042,-2.957 -0.325,-5.894 -0.956,-8.786 -1.189,-5.455 -3.476,-10.628 -6.335,-15.404 -3.305,-5.521 -7.378,-10.552 -11.731,-15.276 -0.396,-0.43 -1.044,0.117 -0.785,0.606 5.531,10.435 3.2,22.673 0.873,33.64 -2.351,11.081 -4.852,23.077 -0.047,33.888 2.37,5.333 6.267,9.812 10.565,13.69 0.477,0.43 1.186,-0.275 0.707,-0.707 -3.865,-3.488 -7.386,-7.434 -9.752,-12.107 -2.561,-5.057 -3.41,-10.707 -3.256,-16.331 0.323,-11.837 4.846,-23.091 5.285,-34.916 0.225,-6.062 -0.643,-12.251 -3.511,-17.663 -0.262,0.202 -0.524,0.404 -0.785,0.606 7.625,8.274 14.67,17.775 17.481,28.849 0.709,2.792 1.107,5.639 1.213,8.517 0.116,3.139 -0.043,6.28 -0.032,9.42 0.011,3.1 0.193,6.23 0.972,9.242 0.734,2.836 2.05,5.475 3.628,7.931 3.673,5.715 8.707,10.574 11.328,16.935 0.161,-0.211 0.321,-0.422 0.482,-0.633 -2.631,0 -5.262,0 -7.893,0 -4.2,0 -8.399,0 -12.598,0 -0.972,0 -1.944,0 -2.916,0 -0.643,0.003 -0.644,1.003 0,1.003 z"/></g></g><g id="g3232"><path style="fill:#009ca4" id="path3226" d="m 117.163,425.15 c -0.202,-3.483 -1.182,-6.994 -2.547,-10.221 -2.405,-5.686 -5.861,-10.892 -8.113,-16.641 -3.594,-9.174 -3.927,-19.589 -0.924,-28.974 -0.41,7.619 2.992,14.921 6.985,21.423 3.993,6.502 8.696,12.666 11.381,19.808 1.749,4.654 2.561,9.629 2.534,14.604 h -9.316 z"/><g id="g3230"><path style="fill:#250767" id="path3228" d="m 117.663,425.15 c -0.493,-7.829 -4.569,-14.5 -8.054,-21.305 -1.751,-3.419 -3.269,-6.927 -4.223,-10.656 -0.934,-3.655 -1.38,-7.425 -1.339,-11.197 0.047,-4.258 0.727,-8.486 2.013,-12.544 -0.327,-0.044 -0.655,-0.089 -0.982,-0.133 -0.382,7.779 3.026,15.099 6.995,21.581 4.105,6.705 9.034,13.059 11.666,20.549 1.546,4.401 2.251,9.047 2.238,13.705 0.167,-0.167 0.333,-0.333 0.5,-0.5 -3.105,0 -6.21,0 -9.315,0 -0.643,0 -0.645,1 0,1 3.105,0 6.21,0 9.315,0 0.271,0 0.499,-0.229 0.5,-0.5 0.011,-4.081 -0.514,-8.169 -1.666,-12.088 -1.101,-3.741 -2.805,-7.266 -4.762,-10.629 -3.96,-6.807 -8.929,-13.056 -11.969,-20.373 -1.678,-4.039 -2.718,-8.352 -2.503,-12.747 0.028,-0.581 -0.817,-0.655 -0.982,-0.133 -2.268,7.156 -2.651,14.863 -1.147,22.216 0.753,3.682 2.018,7.207 3.63,10.597 1.671,3.513 3.63,6.879 5.326,10.379 1.951,4.025 3.475,8.28 3.758,12.777 0.041,0.641 1.042,0.645 1.001,10e-4 z"/></g></g><g id="g3240"><path style="fill:#009ca4" id="path3234" d="m 105.185,425.15 c 2.019,-18.434 -4.553,-37.768 -17.733,-50.874 10.082,5.615 18.455,14.254 23.752,24.507 4.195,8.121 6.412,17.23 6.544,26.367 z"/><g id="g3238"><path style="fill:#250767" id="path3236" d="m 105.685,425.15 c 0.784,-7.271 0.256,-14.664 -1.477,-21.767 -1.724,-7.065 -4.642,-13.857 -8.641,-19.934 -2.256,-3.429 -4.856,-6.628 -7.762,-9.527 -0.202,0.262 -0.404,0.523 -0.606,0.785 6.609,3.696 12.464,8.661 17.212,14.558 5.074,6.301 8.78,13.647 10.853,21.465 1.248,4.707 1.904,9.551 1.983,14.419 0.167,-0.167 0.333,-0.333 0.5,-0.5 -3.661,0 -7.321,0 -10.982,0 -0.527,0 -1.054,0 -1.581,0 -0.644,0 -0.645,1 0,1 3.661,0 7.321,0 10.982,0 0.527,0 1.054,0 1.581,0 0.267,0 0.504,-0.229 0.5,-0.5 -0.142,-8.703 -2.124,-17.353 -5.904,-25.2 -3.387,-7.031 -8.219,-13.371 -14.045,-18.559 -3.245,-2.89 -6.801,-5.426 -10.594,-7.547 -0.491,-0.275 -1.014,0.378 -0.606,0.785 5.096,5.085 9.206,11.094 12.202,17.636 3.001,6.553 4.877,13.645 5.505,20.826 0.351,4.013 0.311,8.054 -0.121,12.059 -0.068,0.64 0.932,0.636 1.001,10e-4 z"/></g></g><g id="g3248"><path style="fill:#009ca4" id="path3242" d="m 124.179,425.15 c 0.977,-6.594 0.75,-13.367 -0.739,-19.865 1.187,3.205 3.206,6.023 5.178,8.815 1.972,2.792 3.946,5.65 5.025,8.894 0.233,0.7 0.408,1.424 0.54,2.157 h -10.004 z"/><g id="g3246"><path style="fill:#250767" id="path3244" d="m 124.661,425.283 c 0.978,-6.701 0.759,-13.523 -0.739,-20.131 -0.321,0.089 -0.643,0.177 -0.964,0.266 2.674,7.093 9.325,12.245 10.742,19.865 0.161,-0.211 0.321,-0.422 0.482,-0.633 -3.334,0 -6.669,0 -10.003,0 -0.643,0 -0.644,1 0,1 3.334,0 6.669,0 10.003,0 0.347,0 0.541,-0.318 0.482,-0.633 -1.425,-7.66 -8.063,-12.759 -10.742,-19.865 -0.224,-0.595 -1.109,-0.372 -0.964,0.266 1.456,6.421 1.689,13.086 0.739,19.599 -0.092,0.63 0.871,0.902 0.964,0.266 z"/></g></g></g></g><line style="fill:none;stroke:#250767;stroke-linecap:round;stroke-linejoin:round;stroke-miterlimit:10" id="line3254" x1="462.092" x2="37.908" y1="425.145" y2="425.145"/></g><g id="g3300"><g id="g3294"><g id="g3292"><g id="g3290"><g id="g3264"><path style="fill:#009ca4" id="path3258" d="m 323.89,398.118 c -0.797,6.545 -1.251,13.305 -0.005,19.736 0.479,2.473 1.254,4.895 2.291,7.094 h 15.565 c 1.343,-24.036 -6.09,-48.735 -19.93,-65.308 3.148,5.286 4.197,12.173 4.104,18.795 -0.095,6.622 -1.229,13.138 -2.025,19.683 z"/><g id="g3262"><path style="fill:#250767" id="path3260" d="m 323.39,398.118 c -1.092,9.024 -1.587,18.634 2.354,27.083 0.072,0.155 0.268,0.248 0.432,0.248 4.549,0 9.099,0 13.648,0 0.639,0 1.278,0 1.916,0 0.281,0 0.485,-0.229 0.5,-0.5 0.516,-9.42 -0.282,-18.909 -2.329,-28.118 -1.971,-8.868 -5.114,-17.516 -9.52,-25.47 -2.364,-4.268 -5.105,-8.323 -8.228,-12.074 -0.368,-0.443 -1.068,0.126 -0.785,0.606 5.114,8.679 4.391,19.542 3.198,29.14 -0.376,3.031 -0.815,6.054 -1.186,9.085 -0.078,0.637 0.923,0.632 1,0 1.269,-10.373 3.393,-21.042 0.792,-31.39 -0.645,-2.564 -1.595,-5.058 -2.94,-7.34 -0.262,0.202 -0.523,0.404 -0.785,0.606 5.58,6.701 9.898,14.42 13.067,22.528 3.344,8.554 5.466,17.592 6.371,26.729 0.516,5.215 0.633,10.466 0.346,15.698 0.167,-0.167 0.333,-0.333 0.5,-0.5 -4.549,0 -9.099,0 -13.648,0 -0.639,0 -1.278,0 -1.917,0 0.144,0.083 0.288,0.165 0.432,0.248 -3.855,-8.266 -3.285,-17.76 -2.217,-26.578 0.076,-0.638 -0.925,-0.632 -1.001,-0.001 z"/></g></g><g id="g3272"><path style="fill:#009ca4" id="path3266" d="m 344.217,424.949 h 14.506 c -0.818,-2.549 -2.09,-4.926 -3.411,-7.134 -2.141,-3.579 -4.521,-7.084 -5.618,-11.353 -1.419,-5.522 -0.5,-11.53 -0.893,-17.317 -0.725,-10.669 -5.864,-20.03 -11.595,-27.9 2.176,5.15 2.451,11.277 1.926,17.081 -0.525,5.804 -1.792,11.457 -2.53,17.224 -0.738,5.766 -0.924,11.825 0.662,17.31 1.379,4.763 3.95,8.665 6.953,12.089 z"/><g id="g3270"><path style="fill:#250767" id="path3268" d="m 344.217,425.449 c 4.236,0 8.472,0 12.709,0 0.599,0 1.198,0 1.797,0 0.312,0 0.584,-0.321 0.482,-0.633 -1.423,-4.356 -4.086,-8.053 -6.301,-12.014 -1.092,-1.953 -2.048,-3.986 -2.642,-6.15 -0.637,-2.32 -0.835,-4.725 -0.885,-7.122 -0.098,-4.678 0.249,-9.333 -0.486,-13.979 -0.677,-4.275 -2.061,-8.408 -3.883,-12.326 -2.012,-4.327 -4.568,-8.377 -7.369,-12.233 -0.302,-0.415 -1.15,-0.181 -0.914,0.385 3.455,8.285 2.054,17.591 0.622,26.156 -1.444,8.642 -3.092,17.841 -0.275,26.393 1.402,4.256 3.86,8.02 6.792,11.376 0.424,0.486 1.129,-0.224 0.707,-0.707 -2.599,-2.976 -4.839,-6.299 -6.216,-10.022 -1.527,-4.127 -1.924,-8.55 -1.771,-12.922 0.314,-9.011 2.999,-17.754 3.257,-26.769 0.133,-4.657 -0.346,-9.438 -2.152,-13.77 -0.305,0.128 -0.609,0.257 -0.914,0.385 5.004,6.885 9.269,14.507 10.908,22.942 0.906,4.66 0.655,9.331 0.681,14.046 0.013,2.305 0.128,4.621 0.572,6.887 0.426,2.174 1.212,4.25 2.199,6.229 2.273,4.558 5.508,8.591 7.105,13.481 0.161,-0.211 0.321,-0.422 0.482,-0.633 -4.236,0 -8.472,0 -12.709,0 -0.599,0 -1.198,0 -1.798,0 -0.641,0 -0.642,1 0.002,1 z"/></g></g><g id="g3280"><path style="fill:#009ca4" id="path3274" d="m 358.633,424.949 c 0.166,-3.618 0.969,-7.264 2.087,-10.617 1.971,-5.906 4.804,-11.314 6.65,-17.284 2.946,-9.529 3.219,-20.347 0.758,-30.094 0.336,7.914 -2.452,15.498 -5.725,22.252 -3.272,6.753 -7.127,13.156 -9.328,20.574 -1.434,4.834 -2.099,10.002 -2.077,15.169 z"/><g id="g3278"><path style="fill:#250767" id="path3276" d="m 359.133,424.949 c 0.403,-8.11 4.003,-15.316 6.927,-22.733 2.855,-7.243 4.366,-14.834 4.226,-22.635 -0.077,-4.299 -0.632,-8.59 -1.676,-12.761 -0.135,-0.541 -1.004,-0.436 -0.982,0.133 0.311,8.036 -2.55,15.7 -6.048,22.8 -3.456,7.014 -7.448,13.836 -9.424,21.466 -1.159,4.476 -1.669,9.11 -1.659,13.729 10e-4,0.27 0.229,0.5 0.5,0.5 2.545,0 5.09,0 7.635,0 0.643,0 0.645,-1 0,-1 -2.545,0 -5.09,0 -7.635,0 0.167,0.167 0.333,0.333 0.5,0.5 -0.009,-4.184 0.41,-8.366 1.37,-12.441 0.922,-3.914 2.379,-7.666 4.082,-11.302 3.294,-7.034 7.364,-13.713 9.727,-21.154 1.343,-4.229 2.123,-8.652 1.951,-13.099 -0.327,0.044 -0.655,0.089 -0.982,0.133 1.871,7.48 2.155,15.376 0.867,22.978 -0.641,3.78 -1.711,7.447 -3.082,11.024 -1.392,3.63 -3.015,7.167 -4.376,10.809 -1.57,4.201 -2.699,8.557 -2.922,13.052 -0.03,0.644 0.97,0.643 1.001,0.001 z"/></g></g><g id="g3288"><path style="fill:#009ca4" id="path3282" d="m 351.708,425.15 c -1.655,-19.147 8.633,-52.709 19.436,-66.323 -8.264,5.832 -15.126,14.806 -19.468,25.455 -3.439,8.435 -10.158,31.377 -10.266,40.867 h 10.298 z"/><g id="g3286"><path style="fill:#250767" id="path3284" d="m 352.208,425.15 c -0.76,-8.962 0.775,-18.134 2.823,-26.833 2.238,-9.5 5.346,-18.893 9.596,-27.689 1.932,-3.998 4.109,-7.954 6.871,-11.447 0.318,-0.402 -0.099,-1.145 -0.606,-0.785 -9.294,6.588 -16.079,16.326 -20.145,26.886 -1.488,3.863 -2.739,7.821 -3.923,11.786 -1.444,4.834 -2.758,9.712 -3.866,14.635 -0.987,4.388 -1.985,8.93 -2.047,13.447 -0.004,0.27 0.232,0.5 0.5,0.5 3.432,0 6.865,0 10.297,0 0.643,0 0.645,-1 0,-1 -3.432,0 -6.865,0 -10.297,0 0.167,0.167 0.333,0.333 0.5,0.5 0.054,-3.893 0.85,-7.792 1.661,-11.585 1.03,-4.814 2.28,-9.581 3.65,-14.308 1.201,-4.144 2.486,-8.272 3.97,-12.325 1.777,-4.853 4.075,-9.503 6.946,-13.805 3.566,-5.343 8.008,-10.145 13.259,-13.867 -0.202,-0.262 -0.404,-0.524 -0.606,-0.785 -2.453,3.102 -4.457,6.539 -6.241,10.06 -2.145,4.235 -3.976,8.63 -5.592,13.091 -3.396,9.376 -5.936,19.141 -7.214,29.039 -0.618,4.79 -0.945,9.663 -0.536,14.486 0.054,0.636 1.055,0.642 1,-0.001 z"/></g></g></g></g></g><g style="opacity:.5" id="g3298"><path style="fill:#009ca4" id="path3296" d="m 362.404,389.205 c -3.272,6.753 -7.127,13.156 -9.328,20.574 -0.289,0.976 -0.539,1.968 -0.767,2.969 -0.085,-0.155 -0.171,-0.308 -0.254,-0.464 2.117,-18.844 10.436,-42.55 19.091,-53.457 -8.264,5.832 -15.127,14.806 -19.468,25.455 -0.792,1.943 -1.759,4.661 -2.778,7.802 -0.009,-0.984 -0.031,-1.966 -0.098,-2.941 -0.725,-10.669 -5.864,-20.03 -11.595,-27.9 2.176,5.15 2.451,11.277 1.926,17.081 -0.344,3.805 -1.006,7.546 -1.63,11.296 -3.419,-11.299 -8.748,-21.663 -15.694,-29.98 3.148,5.286 4.197,12.173 4.104,18.795 -0.093,6.622 -1.227,13.138 -2.024,19.683 -0.797,6.545 -1.252,13.305 -0.005,19.736 0.479,2.474 1.254,4.895 2.291,7.095 h 15.242 c -10e-4,0.066 -0.006,0.137 -0.006,0.201 h 10.297 c -0.006,-0.066 -0.008,-0.135 -0.013,-0.201 h 6.938 0.09 c -0.021,-0.067 -0.05,-0.131 -0.073,-0.197 0.186,-3.553 0.972,-7.128 2.07,-10.419 1.971,-5.906 4.804,-11.314 6.65,-17.284 2.946,-9.529 3.219,-20.347 0.758,-30.094 0.337,7.912 -2.452,15.497 -5.724,22.25 z"/></g></g></g><g id="g4775" transform="translate(-243.17941,-86.332274)"><g id="g3328"><g id="g3318"><path style="fill:none;stroke:#250767;stroke-linecap:round;stroke-linejoin:round;stroke-miterlimit:10" id="path3304" d="m 254.913,266.037 c 0,-5.479 4.442,-9.921 9.921,-9.921 1.525,0 2.963,0.354 4.254,0.968 2.54,-11.155 12.512,-19.482 24.435,-19.482 13.845,0 25.068,11.223 25.068,25.068 0,1.715 -0.173,3.389 -0.501,5.007 3.466,0.913 6.183,3.647 7.072,7.122 2.525,-0.662 5.174,-1.018 7.907,-1.018 13.072,0 24.251,8.072 28.846,19.499 1.321,-0.651 2.801,-1.026 4.373,-1.026 3.519,0 6.603,1.838 8.364,4.6 2.199,-1.15 4.695,-1.809 7.348,-1.809 8.772,0 15.884,7.111 15.884,15.884"/><path style="fill:none;stroke:#250767;stroke-linecap:round;stroke-linejoin:round;stroke-miterlimit:10" id="path3306" d="m 374.651,296.854 c 0,0 1.778,2.149 1.959,4.593"/><path style="fill:none;stroke:#250767;stroke-linecap:round;stroke-linejoin:round;stroke-miterlimit:10" id="path3308" d="m 361.914,293.28 c 0,0 1.932,3.731 2.747,9.163"/><path style="fill:none;stroke:#250767;stroke-linecap:round;stroke-linejoin:round;stroke-miterlimit:10" id="path3310" d="m 369.821,305.34 c -2.535,-4.255 -10.32,-3.259 -12.764,0"/><path style="fill:none;stroke:#250767;stroke-linecap:round;stroke-linejoin:round;stroke-miterlimit:10" id="path3312" d="m 325.161,274.799 c 0,0 -3.772,0.667 -6.941,3.473"/><path style="fill:none;stroke:#250767;stroke-linecap:round;stroke-linejoin:round;stroke-miterlimit:10" id="path3314" d="m 318.089,267.677 c 0,0 -3.943,-0.902 -6.84,-0.177"/><path style="fill:none;stroke:#250767;stroke-linecap:round;stroke-linejoin:round;stroke-miterlimit:10" id="path3316" d="m 275.262,262.846 c 0,0 -1.787,-4.013 -6.175,-5.761"/></g><g id="g3326"><path style="fill:none;stroke:#250767;stroke-linecap:round;stroke-linejoin:round;stroke-miterlimit:10" id="path3320" d="m 96.248,224.919 c 1.871,-3.762 5.25,-6.643 9.345,-7.857 -0.313,-1.369 -0.494,-2.788 -0.494,-4.253 0,-10.502 8.513,-19.015 19.015,-19.015 9.097,0 16.692,6.393 18.564,14.928 1.399,-0.328 2.85,-0.519 4.349,-0.519 1.109,0 2.19,0.115 3.247,0.297 3.253,-5.812 9.461,-9.746 16.595,-9.746 9.658,0 17.634,7.2 18.854,16.525"/><path style="fill:none;stroke:#250767;stroke-linecap:round;stroke-linejoin:round;stroke-miterlimit:10" id="path3322" d="m 158.369,213.067 c -5.382,-7.773 -21.826,-5.581 -25.115,1.993"/><path style="fill:none;stroke:#250767;stroke-linecap:round;stroke-linejoin:round;stroke-miterlimit:10" id="path3324" d="m 105.592,217.062 c 0,0 8.328,-3.297 13.809,3.181"/></g></g><g id="g3396"><g id="g3368"><g id="_x3C_Radial_Repeat_x3E__00000153672452032499654600000004600518381628809105_"><line style="fill:none;stroke:#250767;stroke-linecap:round;stroke-linejoin:round;stroke-miterlimit:10" id="line3330" x1="227.69" x2="235.136" y1="333.205" y2="284.596"/><line style="fill:none;stroke:#250767;stroke-linecap:round;stroke-linejoin:round;stroke-miterlimit:10" id="line3332" x1="195.149" x2="203.539" y1="287.605" y2="275.192"/></g><g id="_x3C_Radial_Repeat_x3E__00000142860245627929188070000002721540499440271517_"><line style="fill:none;stroke:#250767;stroke-linecap:round;stroke-linejoin:round;stroke-miterlimit:10" id="line3335" x1="144.791" x2="184.428" y1="276.648" y2="247.542"/><line style="fill:none;stroke:#250767;stroke-linecap:round;stroke-linejoin:round;stroke-miterlimit:10" id="line3337" x1="154.025" x2="168.735" y1="221.395" y2="218.55"/></g><g id="_x3C_Radial_Repeat_x3E__00000102539338877568165380000010318308898714869947_"><line style="fill:none;stroke:#250767;stroke-linecap:round;stroke-linejoin:round;stroke-miterlimit:10" id="line3340" x1="126.163" x2="174.772" y1="178.036" y2="185.482"/><line style="fill:none;stroke:#250767;stroke-linecap:round;stroke-linejoin:round;stroke-miterlimit:10" id="line3342" x1="171.763" x2="184.176" y1="145.496" y2="153.886"/></g><g id="_x3C_Radial_Repeat_x3E__00000011011861936027526500000012138818174014844051_"><line style="fill:none;stroke:#250767;stroke-linecap:round;stroke-linejoin:round;stroke-miterlimit:10" id="line3345" x1="191.394" x2="211.827" y1="106.948" y2="134.773"/><line style="fill:none;stroke:#250767;stroke-linecap:round;stroke-linejoin:round;stroke-miterlimit:10" id="line3347" x1="237.974" x2="240.818" y1="104.371" y2="119.081"/></g><g id="_x3C_Radial_Repeat_x3E__00000116932476627344489210000017700090360328439222_"><line style="fill:none;stroke:#250767;stroke-linecap:round;stroke-linejoin:round;stroke-miterlimit:10" id="line3350" x1="277.259" x2="271.09" y1="84.432" y2="124.243"/><line style="fill:none;stroke:#250767;stroke-linecap:round;stroke-linejoin:round;stroke-miterlimit:10" id="line3352" x1="313.872" x2="305.482" y1="122.109" y2="134.522"/></g><g id="_x3C_Radial_Repeat_x3E__00000152252236078182287770000004361238271244586430_"><line style="fill:none;stroke:#250767;stroke-linecap:round;stroke-linejoin:round;stroke-miterlimit:10" id="line3355" x1="355.235" x2="324.594" y1="139.673" y2="162.173"/><line style="fill:none;stroke:#250767;stroke-linecap:round;stroke-linejoin:round;stroke-miterlimit:10" id="line3357" x1="354.997" x2="340.287" y1="188.32" y2="191.165"/></g><g id="_x3C_Radial_Repeat_x3E__00000017491134519351113690000014154637018331534231_"><line style="fill:none;stroke:#250767;stroke-linecap:round;stroke-linejoin:round;stroke-miterlimit:10" id="line3360" x1="382.859" x2="334.25" y1="231.677" y2="224.231"/><line style="fill:none;stroke:#250767;stroke-linecap:round;stroke-linejoin:round;stroke-miterlimit:10" id="line3362" x1="337.259" x2="324.846" y1="264.218" y2="255.828"/></g><g id="_x3C_Radial_Repeat_x3E__00000180337809860649505260000005331485823469673610_"><line style="fill:none;stroke:#250767;stroke-linecap:round;stroke-linejoin:round;stroke-miterlimit:10" id="line3365" x1="271.048" x2="268.203" y1="305.344" y2="290.634"/></g></g><g id="g3394"><defs id="defs3371"><circle id="ellipse3908" cx="255.629" cy="200.661" r="74.27" transform="matrix(0.9876,-0.1567,0.1567,0.9876,-28.2855,42.5358)"/></defs><use xlink:href="#XMLID_00000132788296135155531010000008313526408605739407_" style="overflow:visible;fill:#f7b245" id="use3373"/><clipPath id="XMLID_00000009567868396075317410000001631223801936769181_"><use xlink:href="#XMLID_00000132788296135155531010000008313526408605739407_" style="overflow:visible" id="use3375"/></clipPath><g id="g3390" clip-path="url(#XMLID_00000009567868396075317410000001631223801936769181_)"><path style="fill:#fbe36f" id="path3378" d="m 269.625,126.902 c -26.078,-4.342 -47.38,4.016 -64.091,17.384 16.724,-11.028 37.544,-15.923 58.827,-12.136 35.724,6.35 61.797,35.191 66.249,69.353 -1.298,-35.464 -24.559,-68.536 -60.985,-74.601 z"/><path style="opacity:.5;fill:#f7b245" id="path3380" d="m 209.021,138.9 c -16.405,12.347 -27.814,31.197 -30.088,53.195 -4.349,42.078 26.383,79.734 68.638,84.102 30.044,3.105 57.834,-11.455 72.937,-35.26 -14.983,11.306 -34.138,17.181 -54.309,15.096 -42.255,-4.368 -72.988,-42.017 -68.639,-84.095 1.258,-12.167 5.311,-23.365 11.461,-33.038 z"/><g style="opacity:.5" id="g3388"><path style="fill:#fbe36f" id="path3382" d="m 295.064,152.484 c 1.938,-0.227 4.031,0.525 5.824,1.45 9.789,5.052 18.699,16.366 15.837,27.928 -0.46,1.857 -1.515,3.909 -3.407,4.193 -1.067,0.16 -2.149,-0.318 -2.966,-1.023 -0.817,-0.705 -1.416,-1.622 -2.022,-2.515 -3.325,-4.904 -7.145,-9.471 -11.383,-13.611 -1.529,-1.494 -3.123,-2.943 -4.391,-4.665 -1.268,-1.721 -2.206,-3.768 -2.213,-5.906 -0.009,-2.716 1.825,-5.512 4.721,-5.851 z"/><path style="fill:#fbe36f" id="path3384" d="m 313.559,191.337 c 0.287,1.855 1.82,3.157 3.424,2.909 1.604,-0.248 2.673,-1.953 2.386,-3.807 -0.287,-1.855 -1.82,-3.157 -3.424,-2.909 -1.605,0.247 -2.673,1.952 -2.386,3.807 z"/><path style="fill:#fbe36f" id="path3386" d="m 316.137,198.645 c 0.21,1.36 1.335,2.315 2.511,2.133 1.177,-0.182 1.96,-1.432 1.75,-2.792 -0.21,-1.36 -1.335,-2.315 -2.511,-2.133 -1.177,0.182 -1.96,1.432 -1.75,2.792 z"/></g></g><use xlink:href="#XMLID_00000132788296135155531010000008313526408605739407_" style="overflow:visible;fill:none;stroke:#250767;stroke-linecap:round;stroke-linejoin:round;stroke-miterlimit:10" id="use3392"/></g></g><g id="g3418" transform="translate(-5.7115338,5.5374802)"><g id="g3410"><g id="g3402"><path style="fill:#fff;stroke:#250767;stroke-linecap:round;stroke-linejoin:round;stroke-miterlimit:10" id="path3398" d="m 277.645,172.262 c -1.306,-0.281 -2.655,-0.215 -3.978,0.169 -4.905,1.391 -9.635,7.054 -12.072,14.738 -0.332,1.007 -0.61,2.053 -0.846,3.126 -2.054,9.255 -0.2,17.895 4.165,21.657 1.032,0.91 2.226,1.541 3.531,1.821 5.374,1.193 11.256,-3.629 14.727,-11.396 0.901,-2.026 1.641,-4.26 2.168,-6.626 2.533,-11.467 -0.917,-21.983 -7.695,-23.489 z"/><path style="fill:#250767;stroke:#250767;stroke-linecap:round;stroke-linejoin:round;stroke-miterlimit:10" id="path3400" d="m 282.031,188.68 -6.137,4.538 c 0,0 3.467,-8.558 3.461,-8.852 -1.839,-2.058 -4.153,-3.381 -6.749,-3.624 -4.263,-0.4 -8.308,2.167 -11.01,6.428 -0.332,1.007 -0.61,2.053 -0.846,3.126 -2.054,9.255 -0.2,17.895 4.165,21.657 1.032,0.91 2.226,1.541 3.531,1.821 5.374,1.193 11.256,-3.629 14.727,-11.396 0.2,-0.929 0.346,-1.886 0.439,-2.871 0.373,-3.984 -0.246,-7.733 -1.581,-10.827 z"/></g><g id="g3408"><path style="fill:#fff;stroke:#250767;stroke-linecap:round;stroke-linejoin:round;stroke-miterlimit:10" id="path3404" d="m 250.819,165.144 c -1.372,-0.295 -2.789,-0.226 -4.179,0.177 -5.153,1.461 -10.122,7.41 -12.682,15.482 -0.348,1.058 -0.641,2.157 -0.889,3.284 -2.157,9.722 -0.21,18.798 4.375,22.75 1.084,0.955 2.338,1.618 3.71,1.913 5.645,1.253 11.824,-3.812 15.471,-11.971 0.947,-2.129 1.724,-4.475 2.278,-6.96 2.66,-12.047 -0.963,-23.094 -8.084,-24.675 z"/><path style="fill:#250767;stroke:#250767;stroke-linecap:round;stroke-linejoin:round;stroke-miterlimit:10" id="path3406" d="m 255.427,182.39 -6.447,4.767 c 0,0 3.642,-8.99 3.635,-9.299 -1.932,-2.161 -4.363,-3.552 -7.089,-3.807 -4.478,-0.42 -8.727,2.276 -11.566,6.753 -0.348,1.058 -0.641,2.157 -0.889,3.284 -2.157,9.722 -0.21,18.798 4.375,22.75 1.084,0.955 2.338,1.618 3.71,1.913 5.645,1.253 11.824,-3.812 15.471,-11.971 0.21,-0.976 0.364,-1.982 0.461,-3.016 0.391,-4.185 -0.259,-8.124 -1.661,-11.374 z"/></g></g><path style="fill:none;stroke:#250767;stroke-linecap:round;stroke-linejoin:round;stroke-miterlimit:10" id="path3412" d="m 286.667,169.519 c -4.141,-4.227 -9.221,-5.471 -15.35,-3.38"/><path style="fill:none;stroke:#250767;stroke-linecap:round;stroke-linejoin:round;stroke-miterlimit:10" id="path3414" d="m 260.159,163.681 c -4.141,-4.227 -9.221,-5.471 -15.35,-3.38"/><path style="fill:none;stroke:#250767;stroke-linecap:round;stroke-linejoin:round;stroke-miterlimit:10" id="path3416" d="m 264.36,215.57 c -3.432,3.909 -7.85,5.777 -11.664,4.423 -3.331,-1.183 -5.469,-4.565 -6.089,-8.865"/></g><g id="g3422" transform="translate(-12.412605,1.3370849)"><path style="fill:#f25b62" id="path3420" d="m 228.712,195.358 c -1.464,3.849 -7.665,5.063 -13.852,2.711 -6.186,-2.352 -10.015,-7.38 -8.551,-11.229 1.464,-3.849 7.665,-5.063 13.852,-2.711 6.186,2.352 10.015,7.379 8.551,11.229 z"/></g><g id="g3426" transform="translate(3.9936615,4.3854039)"><ellipse transform="matrix(0.3554,-0.9347,0.9347,0.3554,-13.3705,413.1458)" style="fill:#f25b62" id="ellipse3424" cx="292.863" cy="216.267" rx="7.457" ry="11.984"/></g></g><g id="g3684" transform="translate(776.85777,-545.21631)"><g id="g3634" transform="translate(-462.7299,163.27918)"><g id="g4274" transform="translate(-19.27748,-6.2678787)"><g id="g3450"><g id="g3444"><path style="fill:#fff;stroke:#250767;stroke-linecap:round;stroke-linejoin:round;stroke-miterlimit:10" id="path3430" d="m 411.027,433.56 c 0,0 3.084,4.263 6.765,1.595 0.853,-0.618 1.485,-1.495 1.911,-2.458 2.364,-5.336 8.46,-27.088 -5.191,-63.236 -1.372,-3.633 -3.313,-7.054 -5.875,-9.973 -0.494,-0.563 -1.014,-1.113 -1.552,-1.626 -2.306,-2.196 -5.814,-2.546 -8.576,-0.962 l -4.66,2.671 z"/><g id="g3442"><g id="g3438"><path style="fill:#f25b62;stroke:#250767;stroke-linecap:round;stroke-linejoin:round;stroke-miterlimit:10" id="path3432" d="m 386.422,357.058 c -6.369,2.035 -11.261,7.127 -13.693,13.355 -3.071,7.863 -4.456,19.821 9.194,28.729 l 4.097,36.113 c 0.58,0.59 30.061,14.34 31.128,-15.521 0,0 -0.617,-22.023 -4.786,-42.834 -1.109,-5.534 -3.654,-10.739 -7.609,-14.766 -4.135,-4.21 -10.243,-7.66 -18.331,-5.076 z"/><path style="opacity:.3;fill:#fbe4f3" id="path3434" d="m 376.075,388.027 c -0.949,-0.886 -1.468,-2.272 -1.77,-3.58 -1.648,-7.142 0.259,-16.533 7.359,-20.056 1.141,-0.566 2.636,-0.913 3.594,-0.075 0.54,0.473 0.763,1.228 0.757,1.945 -0.007,0.718 -0.214,1.417 -0.406,2.108 -1.058,3.797 -1.732,7.702 -2.01,11.634 -0.1,1.419 -0.15,2.852 -0.478,4.236 -0.328,1.384 -0.963,2.741 -2.046,3.665 -1.373,1.174 -3.582,1.447 -5,0.123 z"/><path style="fill:none;stroke:#250767;stroke-linecap:round;stroke-linejoin:round;stroke-miterlimit:10" id="path3436" d="m 381.923,399.143 c 0,0 2.673,2.992 10.84,5.402"/></g><path style="fill:#fff;stroke:#250767;stroke-linecap:round;stroke-linejoin:round;stroke-miterlimit:10" id="path3440" d="m 381.672,400.68 c 6.016,-1.149 8.566,7.837 10.58,18.379 2.014,10.542 2.729,18.646 -3.287,19.795 -6.016,1.149 -12.526,-6.465 -14.54,-17.006 -2.013,-10.541 1.231,-20.018 7.247,-21.168 z"/></g></g><path style="fill:#009ca4;stroke:#250767;stroke-linecap:round;stroke-linejoin:round;stroke-miterlimit:10" id="path3446" d="M 380.125,432.577 H 253.177 l 0.266,-26.623 124.366,5.259 c 1.016,0.043 1.921,0.629 2.413,1.519 3.16,5.716 4.125,11.596 2.696,17.654 -0.304,1.286 -1.471,2.191 -2.793,2.191 z"/><path style="fill:#250767;stroke:#250767;stroke-linecap:round;stroke-linejoin:round;stroke-miterlimit:10" id="path3448" d="m 290.789,419.009 c 1.412,-3.661 2.566,-7.463 3.28,-11.337 l -40.625,-1.718 -0.266,26.623 h 30.912 c 2.613,-4.323 4.884,-8.862 6.699,-13.568 z"/></g><g id="g3568"><g id="g3472"><g id="g3470"><g id="g3454"><path style="fill:#3b9dff;stroke:#250767;stroke-linecap:round;stroke-linejoin:round;stroke-miterlimit:10" id="path3452" d="m 273.869,257.96 c -0.08,0.52 -0.18,1.04 -0.29,1.56 -4.31,21.43 -26.08,42.89 -47.97,39.36 -22.41,-3.62 -36.45,-32.11 -32.91,-54.03 0.48,-2.96 1.26,-5.67 2.31,-8.12 5.27,-12.41 17.32,-18.34 31.72,-18.73 3.8,-0.1 7.76,0.19 11.81,0.84 8.02,1.29 15.27,3.86 21.12,7.62 10.51,6.77 16.48,17.41 14.21,31.5 z"/></g><path style="opacity:.49;fill:#3b9dff" id="path3456" d="m 238.285,222.408 c 1.711,-0.133 3.525,0.601 5.069,1.476 8.43,4.779 15.871,15.032 12.955,25.095 -0.468,1.617 -1.466,3.383 -3.14,3.567 -0.943,0.104 -1.878,-0.354 -2.571,-1.002 -0.693,-0.648 -1.189,-1.474 -1.691,-2.28 -2.753,-4.425 -5.953,-8.572 -9.535,-12.357 -1.293,-1.366 -2.643,-2.695 -3.699,-4.252 -1.055,-1.557 -1.809,-3.389 -1.741,-5.268 0.088,-2.387 1.796,-4.781 4.353,-4.979 z"/><path style="fill:none;stroke:#250767;stroke-linecap:round;stroke-linejoin:round;stroke-miterlimit:10" id="path3468" d="m 225.613,298.878 c 0,0 13.978,-30.764 12.44,-55.766"/></g></g><g id="g3484"><g id="g3482"><path style="fill:#3b9dff;stroke:#250767;stroke-linecap:round;stroke-linejoin:round;stroke-miterlimit:10" id="path3474" d="m 302.72,341.568 c -18.935,9.687 -49.025,5.282 -58.928,-14.074 -9.903,-19.357 4.132,-46.335 23.067,-56.022 18.935,-9.687 36.145,1.307 46.048,20.664 9.903,19.355 8.748,39.745 -10.187,49.432 z"/><path style="opacity:.49;fill:#3b9dff" id="path3476" d="m 277.991,272.443 c 1.437,-0.599 3.207,-0.481 4.784,-0.164 8.615,1.729 17.929,8.454 18.268,17.949 0.055,1.525 -0.305,3.33 -1.694,3.962 -0.783,0.357 -1.718,0.227 -2.499,-0.135 -0.781,-0.362 -1.442,-0.933 -2.102,-1.486 -3.625,-3.032 -7.556,-5.698 -11.714,-7.944 -1.501,-0.811 -3.04,-1.573 -4.39,-2.615 -1.35,-1.042 -2.518,-2.407 -2.992,-4.045 -0.601,-2.081 0.193,-4.627 2.339,-5.522 z"/><path style="opacity:.15;fill:#250767" id="path3478" d="m 302.719,341.571 c -18.932,9.685 -49.025,5.28 -58.929,-14.074 -9.904,-19.362 4.132,-46.339 23.072,-56.023 2.679,-1.367 5.327,-2.327 7.92,-2.905 -0.312,0.148 -0.633,0.297 -0.945,0.461 -15.519,7.943 -27.016,30.046 -18.901,45.909 8.115,15.855 32.764,19.471 48.283,11.528 10.997,-5.623 14.676,-15.66 12.996,-26.68 5.983,16.877 2.952,33.365 -13.496,41.784 z"/><path style="fill:none;stroke:#250767;stroke-linecap:round;stroke-linejoin:round;stroke-miterlimit:10" id="path3480" d="m 243.792,327.493 c 0,0 28.212,-22.695 51.59,-26.517"/></g></g><g id="g3496"><g id="g3494"><path style="fill:#3b9dff;stroke:#250767;stroke-linecap:round;stroke-linejoin:round;stroke-miterlimit:10" id="path3486" d="m 263.148,414.386 c -17.37,-12.068 -27.607,-40.522 -15.271,-58.278 12.336,-17.756 42.574,-18.09 59.944,-6.023 17.37,12.068 15.792,32.314 3.456,50.07 -12.336,17.756 -30.759,26.299 -48.129,14.231 z"/><path style="opacity:.49;fill:#3b9dff" id="path3488" d="m 298.212,349.622 c 1.617,-0.205 3.371,0.407 4.876,1.165 8.216,4.143 15.748,13.524 13.448,23.204 -0.369,1.555 -1.234,3.277 -2.813,3.529 -0.89,0.142 -1.797,-0.249 -2.485,-0.832 -0.688,-0.583 -1.196,-1.344 -1.709,-2.085 -2.816,-4.07 -6.042,-7.855 -9.615,-11.28 -1.289,-1.236 -2.632,-2.434 -3.705,-3.862 -1.073,-1.428 -1.872,-3.13 -1.895,-4.916 -0.028,-2.267 1.482,-4.617 3.898,-4.923 z"/><path style="opacity:.15;fill:#250767" id="path3490" d="m 302.886,409.902 c -11.54,10.661 -25.969,14.045 -39.74,4.484 -17.369,-12.065 -27.609,-40.523 -15.271,-58.276 9.796,-14.111 30.896,-17.221 47.859,-11.858 -15.108,3.103 -26.471,16.475 -26.471,32.492 0,18.315 14.85,33.165 33.165,33.165 0.156,0.001 0.303,0.001 0.458,-0.007 z"/><path style="fill:none;stroke:#250767;stroke-linecap:round;stroke-linejoin:round;stroke-miterlimit:10" id="path3492" d="m 247.877,356.108 c 0,0 36.243,15.54 41.048,28.074"/></g></g><g id="g3520"><g id="g3518"><g id="g3512"><path style="fill:#fff;stroke:#250767;stroke-linecap:round;stroke-linejoin:round;stroke-miterlimit:10" id="path3498" d="m 297.836,435.371 c 0,0 -4.749,2.266 -2.787,6.367 0.455,0.95 1.203,1.73 2.074,2.323 4.823,3.286 25.122,13.2 63.137,6.281 3.821,-0.695 7.536,-1.989 10.868,-3.984 0.642,-0.384 1.278,-0.797 1.879,-1.234 2.576,-1.873 3.551,-5.26 2.49,-8.263 l -1.788,-5.065 z"/><g id="g3510"><g id="g3506"><path style="fill:#f25b62;stroke:#250767;stroke-linecap:round;stroke-linejoin:round;stroke-miterlimit:10" id="path3500" d="m 377.518,424.945 c -0.855,-6.632 -4.983,-12.36 -10.671,-15.874 -7.181,-4.436 -18.695,-7.953 -29.915,3.87 l -36.261,-2.473 c -0.684,0.464 -19.518,26.988 9.662,33.415 0,0 21.774,3.359 42.995,3.005 5.643,-0.094 11.221,-1.661 15.895,-4.825 4.887,-3.31 9.381,-8.697 8.295,-17.118 z"/><path style="opacity:.3;fill:#fbe4f3" id="path3502" d="m 348.841,408.966 c 1.08,-0.721 2.548,-0.909 3.89,-0.903 7.33,0.031 16.034,4.039 17.838,11.756 0.29,1.24 0.285,2.775 -0.75,3.516 -0.584,0.418 -1.37,0.462 -2.067,0.291 -0.697,-0.171 -1.33,-0.532 -1.959,-0.878 -3.454,-1.899 -7.1,-3.45 -10.865,-4.62 -1.359,-0.422 -2.741,-0.799 -4.014,-1.435 -1.273,-0.636 -2.448,-1.565 -3.099,-2.83 -0.827,-1.608 -0.587,-3.82 1.026,-4.897 z"/><path style="fill:none;stroke:#250767;stroke-linecap:round;stroke-linejoin:round;stroke-miterlimit:10" id="path3504" d="m 336.931,412.941 c 0,0 -3.425,2.091 -7.265,9.69"/></g><path style="fill:#fff;stroke:#250767;stroke-linecap:round;stroke-linejoin:round;stroke-miterlimit:10" id="path3508" d="m 335.464,412.418 c 0.047,6.125 -9.252,7.015 -19.984,7.098 -10.732,0.083 -18.832,-0.673 -18.88,-6.798 -0.047,-6.125 8.614,-11.157 19.346,-11.24 10.733,-0.083 19.471,4.815 19.518,10.94 z"/></g></g><path style="fill:#009ca4;stroke:#250767;stroke-linecap:round;stroke-linejoin:round;stroke-miterlimit:10" id="path3514" d="m 305.578,397.91 c 0.144,3.174 -0.014,6.987 0.313,11.334 0.066,0.88 0.671,1.646 1.518,1.893 5.702,1.661 11.363,1.688 16.984,0.107 0.995,-0.28 1.662,-1.198 1.603,-2.23 -0.175,-3.086 0.06,-6.889 0.094,-11.429 0.215,-10.254 -2.88,-22.135 -12.38,-28.366 -9.269,-6.049 -20.194,-5.235 -30.046,-2.822 -21.518,5.319 -38.455,20.121 -53.806,34.106 -5.117,4.596 -5.38,12.599 -0.569,17.517 4.686,4.812 12.386,4.915 17.198,0.229 12.926,-12.549 25.994,-25.468 42.855,-30.446 3.997,-1.038 11.869,-3.211 14.216,0.834 1.492,2.536 1.901,5.821 2.02,9.273 z"/><path style="fill:#250767;stroke:#250767;stroke-linecap:round;stroke-linejoin:round;stroke-miterlimit:10" id="path3516" d="m 264.749,385.138 c -1.132,-2.894 -2.658,-6.017 -4.751,-8.535 -11.056,6.766 -20.89,15.475 -30.139,23.901 -5.117,4.596 -5.38,12.599 -0.569,17.517 4.686,4.812 12.386,4.915 17.198,0.229 7.08,-6.873 14.207,-13.849 21.972,-19.579 -0.845,-4.619 -2.009,-9.181 -3.711,-13.533 z"/></g></g><g id="g3532"><g id="g3530"><path style="fill:#3b9dff;stroke:#250767;stroke-linecap:round;stroke-linejoin:round;stroke-miterlimit:10" id="path3522" d="m 188.581,423.607 c -4.659,-20.631 7.01,-48.529 28.1,-53.291 21.09,-4.762 43.614,15.414 48.273,36.045 4.659,20.631 -10.179,34.496 -31.269,39.258 -21.09,4.762 -40.446,-1.381 -45.104,-22.012 z"/><path style="opacity:.49;fill:#3b9dff" id="path3524" d="m 258.181,399.529 c 1.331,0.941 2.211,2.577 2.809,4.153 3.261,8.605 2.479,20.609 -5.755,26.195 -1.323,0.897 -3.124,1.583 -4.458,0.702 -0.752,-0.496 -1.158,-1.398 -1.271,-2.292 -0.114,-0.894 0.025,-1.799 0.148,-2.691 0.672,-4.903 0.849,-9.874 0.528,-14.812 -0.116,-1.782 -0.297,-3.572 -0.124,-5.35 0.173,-1.778 0.733,-3.573 1.923,-4.905 1.511,-1.693 4.211,-2.406 6.2,-1 z"/><path style="opacity:.15;fill:#250767" id="path3526" d="m 220.914,447.14 c -15.711,0.068 -28.636,-7.182 -32.335,-23.534 -4.66,-20.628 7.01,-48.531 28.099,-53.29 16.755,-3.789 34.416,8.168 43.302,23.58 -13.237,-7.916 -30.648,-5.729 -41.467,6.082 -12.37,13.506 -11.449,34.487 2.057,46.857 0.116,0.106 0.224,0.205 0.344,0.305 z"/><path style="fill:none;stroke:#250767;stroke-linecap:round;stroke-linejoin:round;stroke-miterlimit:10" id="path3528" d="m 216.68,370.316 c 0,0 18.556,26.61 12.812,56.239"/></g></g><g id="g3544"><g id="g3542"><path style="fill:#3b9dff;stroke:#250767;stroke-linecap:round;stroke-linejoin:round;stroke-miterlimit:10" id="path3534" d="m 122.63,374.318 c 13.063,-17.243 42.573,-26.509 60.2,-13.155 17.627,13.354 16.697,44.27 3.633,61.513 -13.063,17.243 -33.688,14.78 -51.315,1.426 -17.626,-13.354 -25.581,-32.541 -12.518,-49.784 z"/><path style="opacity:.15;fill:#250767" id="path3536" d="m 194.964,403.448 c -6.432,-13.329 -23.234,-21.199 -41.18,-18.19 -15.667,2.631 -27.808,12.814 -31.785,25.148 -7.377,-11.23 -8.435,-24.129 0.632,-36.089 13.065,-17.24 42.569,-26.508 60.2,-13.152 12.113,9.183 15.466,26.652 12.133,42.283 z"/><path style="opacity:.49;fill:#3b9dff" id="path3538" d="m 185.344,416.103 c -0.052,1.672 -0.954,3.352 -1.965,4.755 -5.521,7.663 -16.241,13.789 -25.684,9.901 -1.517,-0.625 -3.123,-1.778 -3.125,-3.419 -0.001,-0.925 0.541,-1.782 1.243,-2.385 0.701,-0.603 1.554,-0.996 2.388,-1.397 4.578,-2.2 8.934,-4.862 12.98,-7.933 1.46,-1.108 2.891,-2.276 4.511,-3.134 1.62,-0.858 3.474,-1.395 5.288,-1.13 2.303,0.335 4.442,2.243 4.364,4.742 z"/><path style="fill:none;stroke:#250767;stroke-linecap:round;stroke-linejoin:round;stroke-miterlimit:10" id="path3540" d="m 182.83,361.163 c 0,0 -7.967,36.389 -35.536,47.093"/></g></g><g id="g3554"><g id="g3552"><path style="fill:#3b9dff;stroke:#250767;stroke-linecap:round;stroke-linejoin:round;stroke-miterlimit:10" id="path3546" d="m 131.747,288.033 c 21.221,2.687 43.72,23.404 40.973,45.098 -2.747,21.693 -29.699,36.149 -50.921,33.461 -21.221,-2.687 -29.285,-21.576 -26.538,-43.27 2.747,-21.693 15.265,-37.976 36.486,-35.289 z"/><path style="opacity:.15;fill:#250767" id="path3548" d="m 134.352,366.331 c -4.255,0.659 -8.511,0.774 -12.555,0.262 -21.218,-2.687 -29.284,-21.574 -26.536,-43.268 2.748,-21.694 15.267,-37.977 36.485,-35.289 2.965,0.376 5.954,1.105 8.903,2.141 -11.514,2.055 -21.866,8.957 -27.705,19.784 -10.394,19.275 -2.535,43.691 17.563,54.529 1.266,0.682 2.551,1.295 3.845,1.841 z"/><path style="fill:none;stroke:#250767;stroke-linecap:round;stroke-linejoin:round;stroke-miterlimit:10" id="path3550" d="m 172.72,333.131 c 0,0 -42.593,-6.176 -57.888,-7.218"/></g></g><path style="opacity:.15;fill:#250767" id="path3558-6" d="m 193.17044,255.47214 c -0.45907,-4.23993 -0.37843,-8.45645 0.31148,-12.43371 3.62369,-20.87122 25.754,-27.53591 47.09397,-23.83098 21.33997,3.70493 36.88058,16.83249 33.25619,37.70443 -0.50716,2.91656 -1.36358,5.84148 -2.52378,8.71147 -1.50984,-11.48485 -7.86838,-22.04206 -18.31501,-28.31084 -18.59862,-11.1608 -46.19006,-4.95184 -57.827,14.44103 -0.73238,1.21977 -1.39669,2.46308 -1.99585,3.7186 z"/><path style="fill:#3b9dff;stroke:#250767;stroke-linecap:round;stroke-linejoin:round;stroke-miterlimit:10" id="path3556" d="m 192.034,240.214 c 12.064,17.416 11.688,47.706 -6.116,60.039 -17.804,12.333 -46.293,2.038 -58.358,-15.379 -12.064,-17.416 -3.482,-35.86 14.322,-48.192 17.804,-12.332 38.088,-13.884 50.152,3.532 z"/><path style="opacity:.15;fill:#250767" id="path3558" d="m 136.06,293.952 c -3.302,-2.699 -6.203,-5.76 -8.502,-9.078 -12.062,-17.414 -3.482,-35.857 14.323,-48.19 17.805,-12.333 38.089,-13.883 50.151,3.532 1.685,2.434 3.127,5.119 4.314,7.978 -9.134,-7.124 -21.072,-10.185 -32.914,-7.322 -21.083,5.097 -33.874,27.047 -28.559,49.03 0.334,1.383 0.733,2.735 1.187,4.05 z"/><path style="opacity:.49;fill:#3b9dff" id="path3560" d="m 175.563,243.033 c 1.711,-0.133 3.525,0.601 5.069,1.476 8.43,4.779 15.871,15.032 12.955,25.096 -0.468,1.617 -1.467,3.384 -3.14,3.567 -0.943,0.104 -1.878,-0.354 -2.571,-1.002 -0.693,-0.648 -1.189,-1.474 -1.69,-2.28 -2.753,-4.425 -5.953,-8.572 -9.535,-12.357 -1.293,-1.366 -2.643,-2.695 -3.699,-4.252 -1.055,-1.557 -1.809,-3.389 -1.741,-5.268 0.087,-2.388 1.795,-4.782 4.352,-4.98 z"/><path style="fill:none;stroke:#250767;stroke-linecap:round;stroke-linejoin:round;stroke-miterlimit:10" id="path3562" d="m 185.918,300.254 c 0,0 -14.815,-39.742 -32.992,-47.435"/></g><g id="g3626"><g id="g3584"><defs id="defs3571"><circle id="ellipse4010" cx="210.432" cy="332.029" r="57.476" transform="matrix(0.107,-0.9943,0.9943,0.107,-142.202,505.7349)"/></defs><use xlink:href="#XMLID_00000031928577583356969170000017802891979007472567_" style="overflow:visible;fill:#f7b245" id="use3573"/><clipPath id="XMLID_00000011719436995235766990000002814412646000642980_"><use xlink:href="#XMLID_00000031928577583356969170000017802891979007472567_" style="overflow:visible" id="use3575"/></clipPath><path style="opacity:.5;fill:#fbe36f" id="path3578" d="m 264.852,350.528 c -5.544,16.316 -17.696,28.508 -32.458,34.619 13.236,-6.962 23.937,-18.813 29.128,-34.094 8.718,-25.647 -0.747,-53.086 -21.481,-68.304 22.721,13.626 33.681,41.677 24.811,67.779 z" clip-path="url(#XMLID_00000011719436995235766990000002814412646000642980_)"/><path style="opacity:.5;fill:#f7b245" id="path3580" d="m 237.605,382.669 c -13.542,7.273 -29.96,9.12 -45.671,3.779 -30.053,-10.215 -46.137,-42.864 -35.922,-72.917 7.263,-21.368 25.87,-35.678 46.82,-38.482 -12.389,6.633 -22.376,17.799 -27.253,32.146 -10.215,30.053 5.863,62.7 35.917,72.915 8.69,2.954 17.592,3.707 26.109,2.559 z" clip-path="url(#XMLID_00000011719436995235766990000002814412646000642980_)"/><use xlink:href="#XMLID_00000031928577583356969170000017802891979007472567_" style="overflow:visible;fill:none;stroke:#250767;stroke-linecap:round;stroke-linejoin:round;stroke-miterlimit:10" id="use3582"/></g><g id="g3616"><g id="g3598"><g id="g3590"><path style="fill:#fff;stroke:#250767;stroke-linecap:round;stroke-linejoin:round;stroke-miterlimit:10" id="path3586" d="m 202.997,346.782 c 1.335,0.008 2.643,-0.331 3.86,-0.976 4.518,-2.362 7.994,-8.871 8.813,-16.89 0.119,-1.054 0.179,-2.135 0.191,-3.233 0.123,-9.479 -3.454,-17.56 -8.495,-20.352 -1.196,-0.68 -2.493,-1.054 -3.829,-1.063 -5.504,-0.072 -10.279,5.848 -12.094,14.16 -0.469,2.168 -0.738,4.505 -0.771,6.929 -0.139,11.742 5.383,21.334 12.325,21.425 z"/><path style="fill:#250767;stroke:#250767;stroke-linecap:round;stroke-linejoin:round;stroke-miterlimit:10" id="path3588" d="m 195.355,331.604 5.083,-5.694 c 0,0 -1.648,9.085 -1.583,9.372 2.22,1.639 4.755,2.463 7.346,2.172 4.255,-0.478 7.691,-3.816 9.468,-8.539 0.119,-1.054 0.179,-2.135 0.191,-3.233 0.123,-9.479 -3.454,-17.56 -8.495,-20.352 -1.196,-0.68 -2.493,-1.054 -3.829,-1.063 -5.504,-0.072 -10.279,5.848 -12.094,14.16 -0.006,0.951 0.046,1.918 0.156,2.9 0.449,3.976 1.819,7.521 3.757,10.277 z"/></g><g id="g3596"><path style="fill:#fff;stroke:#250767;stroke-linecap:round;stroke-linejoin:round;stroke-miterlimit:10" id="path3592" d="m 229.551,345.074 c 1.298,0.008 2.569,-0.322 3.752,-0.949 4.392,-2.296 7.771,-8.622 8.566,-16.418 0.116,-1.024 0.174,-2.075 0.186,-3.143 0.119,-9.214 -3.357,-17.068 -8.257,-19.783 -1.162,-0.661 -2.423,-1.025 -3.721,-1.033 -5.35,-0.07 -9.992,5.684 -11.755,13.764 -0.456,2.107 -0.717,4.379 -0.75,6.735 -0.137,11.416 5.231,20.739 11.979,20.827 z"/><path style="fill:#250767;stroke:#250767;stroke-linecap:round;stroke-linejoin:round;stroke-miterlimit:10" id="path3594" d="m 222.123,330.321 4.941,-5.534 c 0,0 -1.602,8.831 -1.538,9.11 2.158,1.593 4.622,2.394 7.141,2.111 4.136,-0.465 7.476,-3.709 9.203,-8.3 0.116,-1.024 0.174,-2.075 0.186,-3.143 0.119,-9.214 -3.357,-17.068 -8.257,-19.783 -1.162,-0.661 -2.423,-1.025 -3.721,-1.033 -5.35,-0.07 -9.992,5.684 -11.755,13.764 -0.006,0.924 0.044,1.864 0.152,2.819 0.432,3.865 1.764,7.31 3.648,9.989 z"/></g></g><path style="fill:none;stroke:#250767;stroke-linecap:round;stroke-linejoin:round;stroke-miterlimit:10" id="path3600" d="m 236.984,300.071 c -5.081,-3.034 -10.31,-2.944 -15.705,0.638"/><path style="fill:none;stroke:#250767;stroke-linecap:round;stroke-linejoin:round;stroke-miterlimit:10" id="path3602" d="m 209.864,301.172 c -5.081,-3.034 -10.31,-2.944 -15.705,0.638"/><g id="g3614"><path style="fill:#fff;stroke:#250767;stroke-linecap:round;stroke-linejoin:round;stroke-miterlimit:10" id="path3604" d="m 234.539,350.347 c 0.375,5.961 -6.866,11.268 -16.174,11.853 -9.308,0.586 -17.157,-3.772 -17.532,-9.732 -0.375,-5.961 8.4,-1.629 17.708,-2.215 9.307,-0.586 15.623,-5.867 15.998,0.094 z"/><g id="g3612"><path style="fill:none;stroke:#250767;stroke-linecap:round;stroke-linejoin:round;stroke-miterlimit:10" id="path3606" d="m 208.714,349.64 c 0.305,3.049 0.413,7.022 -0.211,11.193"/><path style="fill:none;stroke:#250767;stroke-linecap:round;stroke-linejoin:round;stroke-miterlimit:10" id="path3608" d="m 217.501,350.292 c 0.36,3.092 0.576,7.389 -0.068,11.953"/><path style="fill:none;stroke:#250767;stroke-linecap:round;stroke-linejoin:round;stroke-miterlimit:10" id="path3610" d="m 226.42,348.771 c 0.361,3.008 0.579,7.15 -0.007,11.575"/></g></g></g><g id="g3624"><path style="opacity:.5;fill:#fbe36f" id="path3618" d="m 240.284,288.819 c 1.297,-0.059 2.651,0.54 3.796,1.239 6.257,3.818 11.633,11.751 9.184,19.289 -0.393,1.211 -1.191,2.522 -2.46,2.621 -0.716,0.055 -1.411,-0.313 -1.92,-0.82 -0.508,-0.507 -0.863,-1.144 -1.223,-1.765 -1.974,-3.412 -4.292,-6.625 -6.908,-9.574 -0.944,-1.064 -1.933,-2.102 -2.693,-3.305 -0.76,-1.203 -1.285,-2.606 -1.188,-4.025 0.124,-1.803 1.474,-3.572 3.412,-3.66 z"/><path style="opacity:.5;fill:#fbe36f" id="path3620" d="m 250.714,315.485 c 0.102,1.245 1.058,2.182 2.135,2.093 1.077,-0.088 1.867,-1.169 1.764,-2.414 -0.102,-1.245 -1.058,-2.182 -2.135,-2.093 -1.076,0.089 -1.866,1.17 -1.764,2.414 z"/><path style="opacity:.5;fill:#fbe36f" id="path3622" d="m 252.078,320.458 c 0.075,0.913 0.776,1.6 1.565,1.535 0.79,-0.065 1.369,-0.857 1.294,-1.77 -0.075,-0.913 -0.776,-1.6 -1.565,-1.535 -0.79,0.065 -1.369,0.857 -1.294,1.77 z"/></g></g><g id="g3632"><path style="fill:#f25b62" id="path3628" d="m 258.806,343.22 c 0.212,4.113 -4.206,7.683 -9.868,7.974 -5.661,0.291 -10.422,-2.807 -10.634,-6.92 -0.212,-4.113 4.207,-7.683 9.868,-7.974 5.662,-0.291 10.423,2.807 10.634,6.92 z"/><ellipse style="fill:#f25b62" id="ellipse3630" cx="184.79" cy="349.877" rx="11.984" ry="7.457"/></g></g></g></g></g></g></g></g></g></g></g></g></svg>