<?xml version="1.0" encoding="UTF-8" standalone="no"?>
<!-- Generator: Adobe Illustrator 27.5.0, SVG Export Plug-In . SVG Version: 6.00 Build 0)  -->

<svg
   version="1.1"
   x="0px"
   y="0px"
   viewBox="0 0 1024 1024"
   xml:space="preserve"
   id="svg785"
   sodipodi:docname="logo.svg"
   inkscape:version="1.2.2 (b0a8486541, 2022-12-01)"
   width="1024"
   height="1024"
   inkscape:export-filename="logo.svg"
   inkscape:export-xdpi="96"
   inkscape:export-ydpi="96"
   xmlns:inkscape="http://www.inkscape.org/namespaces/inkscape"
   xmlns:sodipodi="http://sodipodi.sourceforge.net/DTD/sodipodi-0.dtd"
   xmlns:xlink="http://www.w3.org/1999/xlink"
   xmlns="http://www.w3.org/2000/svg"
   xmlns:svg="http://www.w3.org/2000/svg"><defs
   id="defs789"><clipPath
     id="XMLID_00000094614682075726313820000015932061833447953829_">
						<use
   xlink:href="#XMLID_00000168796302995090239390000005318709756422139271_"
   style="overflow:visible"
   id="use356" />
					</clipPath><circle
     id="XMLID_00000168796302995090239390000005318709756422139271_"
     transform="matrix(0.0274,-0.9996,0.9996,0.0274,-15.278,318.5719)"
     cx="156.071"
     cy="167.13699"
     r="45.881001" /></defs><sodipodi:namedview
   id="namedview787"
   pagecolor="#ffffff"
   bordercolor="#000000"
   borderopacity="0.25"
   inkscape:showpageshadow="2"
   inkscape:pageopacity="0.0"
   inkscape:pagecheckerboard="0"
   inkscape:deskcolor="#d1d1d1"
   showgrid="false"
   inkscape:zoom="0.3925"
   inkscape:cx="354.14013"
   inkscape:cy="490.44586"
   inkscape:window-width="1854"
   inkscape:window-height="1011"
   inkscape:window-x="0"
   inkscape:window-y="0"
   inkscape:window-maximized="1"
   inkscape:current-layer="g445" />

<g
   id="OBJECTS"
   transform="translate(-655.1311,-132.42418)">
	
	
	
	<g
   id="g447">
		
		
		
		
		
	<g
   id="g445"
   transform="translate(609.47877,87.884095)">
			
			
			
			
			
			
			
			
			
		<rect
   style="fill:#fcefe5;fill-opacity:1;stroke:none;stroke-linecap:round;stroke-linejoin:round"
   id="rect9017"
   width="1024"
   height="1024"
   x="45.652332"
   y="44.540092" /><g
   id="g8237"
   transform="matrix(3.9023107,0,0,3.9023107,-47.98274,-85.705549)"><g
     id="g313">
				<g
   id="g311">
					<path
   style="fill:#f25b62;stroke:#250767;stroke-linecap:round;stroke-linejoin:round;stroke-miterlimit:10"
   d="m 197.37,97.02 c -3.193,19.764 -23.292,40.146 -43.497,36.882 -20.204,-3.264 -32.863,-28.938 -29.669,-48.703 3.193,-19.764 21.12,-26.703 41.325,-23.439 20.204,3.265 35.034,15.496 31.841,35.26 z"
   id="path303" />
					<path
   style="opacity:0.15;fill:#250767"
   d="m 172.462,130.68 c -5.83,2.926 -12.204,4.249 -18.585,3.22 -20.21,-3.264 -32.863,-28.937 -29.672,-48.698 3,-18.593 19.041,-25.834 37.744,-23.915 -15.711,4.83 -27.003,18.13 -27.003,33.767 0,18.952 16.578,34.45 37.516,35.626 z"
   id="path305" />
					<path
   style="opacity:0.49;fill:#f25b62"
   d="m 176.025,67.852 c 1.609,-0.204 3.355,0.405 4.852,1.16 8.176,4.123 15.671,13.457 13.382,23.09 -0.368,1.547 -1.228,3.261 -2.799,3.511 -0.886,0.141 -1.789,-0.248 -2.473,-0.827 -0.684,-0.58 -1.19,-1.337 -1.701,-2.075 -2.802,-4.05 -6.013,-7.817 -9.568,-11.224 -1.283,-1.23 -2.619,-2.422 -3.686,-3.843 -1.068,-1.421 -1.863,-3.115 -1.886,-4.892 -0.028,-2.257 1.475,-4.595 3.879,-4.9 z"
   id="path307" />
					<path
   style="fill:#f7b245;stroke:#250767;stroke-linecap:round;stroke-linejoin:round;stroke-miterlimit:10"
   d="m 153.873,133.902 c 0,0 7.141,-39.644 8.606,-53.918"
   id="path309" />
				</g>
			</g><g
     id="g325">
				<g
   id="g323">
					<path
   style="fill:#f25b62;stroke:#250767;stroke-linecap:round;stroke-linejoin:round;stroke-miterlimit:10"
   d="m 235.821,166.208 c -17.823,9.119 -46.147,4.972 -55.468,-13.248 -9.321,-18.22 3.889,-43.615 21.713,-52.733 17.824,-9.118 34.023,1.23 43.345,19.451 9.32,18.219 8.233,37.412 -9.59,46.53 z"
   id="path315" />
					<path
   style="opacity:0.49;fill:#f25b62"
   d="m 215.247,98.87 c 1.352,-0.564 3.019,-0.453 4.504,-0.155 8.109,1.627 16.877,7.957 17.196,16.895 0.051,1.436 -0.287,3.135 -1.595,3.73 -0.737,0.336 -1.617,0.214 -2.352,-0.127 -0.735,-0.341 -1.357,-0.879 -1.979,-1.398 -3.412,-2.854 -7.112,-5.364 -11.026,-7.478 -1.413,-0.763 -2.862,-1.481 -4.133,-2.462 -1.271,-0.981 -2.37,-2.265 -2.816,-3.808 -0.566,-1.957 0.181,-4.354 2.201,-5.197 z"
   id="path317" />
					<path
   style="opacity:0.15;fill:#250767"
   d="m 235.82,166.211 c -17.821,9.116 -46.147,4.97 -55.469,-13.248 -9.322,-18.225 3.889,-43.618 21.717,-52.734 2.522,-1.287 5.014,-2.191 7.455,-2.735 -0.294,0.14 -0.595,0.279 -0.89,0.434 -14.608,7.477 -25.43,28.282 -17.791,43.214 7.639,14.924 30.841,18.328 45.449,10.851 10.351,-5.293 13.814,-14.74 12.233,-25.114 5.631,15.887 2.779,31.407 -12.704,39.332 z"
   id="path319" />
					<path
   style="fill:#f7b245;stroke:#250767;stroke-linecap:round;stroke-linejoin:round;stroke-miterlimit:10"
   d="m 180.352,152.96 c 0,0 36.186,-17.697 48.561,-24.96"
   id="path321" />
				</g>
			</g><g
     id="g337">
				<g
   id="g335">
					<path
   style="fill:#f25b62;stroke:#250767;stroke-linecap:round;stroke-linejoin:round;stroke-miterlimit:10"
   d="m 191.652,240.846 c -17.285,-12.008 -27.472,-40.323 -15.196,-57.993 12.276,-17.669 42.366,-18.002 59.65,-5.993 17.285,12.008 15.715,32.155 3.439,49.825 -12.275,17.669 -30.608,26.169 -47.893,14.161 z"
   id="path327" />
					<path
   style="opacity:0.49;fill:#f25b62"
   d="m 226.544,176.399 c 1.609,-0.204 3.355,0.405 4.852,1.16 8.176,4.122 15.671,13.457 13.382,23.09 -0.368,1.548 -1.228,3.261 -2.799,3.512 -0.886,0.141 -1.789,-0.248 -2.473,-0.827 -0.684,-0.58 -1.19,-1.337 -1.7,-2.075 -2.802,-4.05 -6.013,-7.816 -9.568,-11.224 -1.283,-1.23 -2.619,-2.422 -3.687,-3.843 -1.068,-1.421 -1.863,-3.115 -1.885,-4.892 -0.029,-2.258 1.473,-4.597 3.878,-4.901 z"
   id="path329" />
					<path
   style="opacity:0.15;fill:#250767"
   d="m 231.195,236.384 c -11.484,10.609 -25.842,13.976 -39.545,4.463 -17.284,-12.006 -27.474,-40.325 -15.196,-57.991 9.748,-14.042 30.745,-17.137 47.625,-11.8 -15.034,3.088 -26.341,16.395 -26.341,32.333 0,18.225 14.777,33.002 33.002,33.002 0.154,0 0.301,0 0.455,-0.007 z"
   id="path331" />
					<path
   style="fill:#f7b245;stroke:#250767;stroke-linecap:round;stroke-linejoin:round;stroke-miterlimit:10"
   d="m 176.456,182.853 c 0,0 34.335,24.784 47.2,32.659"
   id="path333" />
				</g>
			</g><g
     id="g349">
				<g
   id="g347">
					<path
   style="fill:#f25b62;stroke:#250767;stroke-linecap:round;stroke-linejoin:round;stroke-miterlimit:10"
   d="m 101.119,219.122 c 6.68,-19.882 30.94,-37.51 51.264,-30.682 20.324,6.828 29.017,35.529 22.337,55.411 -6.68,19.882 -26.396,23.987 -46.72,17.158 -20.324,-6.827 -33.561,-22.005 -26.881,-41.887 z"
   id="path339" />
					<path
   style="opacity:0.15;fill:#250767"
   d="m 176.594,223.555 c -10.028,-10.263 -27.9,-12.307 -43.464,-3.999 -13.586,7.256 -21.599,20.364 -21.445,32.929 -10.248,-8.043 -15.204,-19.57 -10.565,-33.362 6.683,-19.879 30.936,-37.509 51.264,-30.679 13.969,4.697 22.445,19.717 24.21,35.111 z"
   id="path341" />
					<path
   style="opacity:0.49;fill:#f25b62"
   d="m 171.661,238.157 c 0.468,1.553 0.158,3.376 -0.338,4.977 -2.707,8.747 -10.668,17.689 -20.547,17.032 -1.587,-0.106 -3.42,-0.67 -3.928,-2.177 -0.286,-0.85 -0.053,-1.805 0.405,-2.576 0.458,-0.771 1.121,-1.396 1.763,-2.021 3.528,-3.436 6.709,-7.228 9.479,-11.299 1,-1.469 1.953,-2.985 3.177,-4.274 1.224,-1.289 2.762,-2.355 4.511,-2.672 2.222,-0.404 4.778,0.689 5.478,3.01 z"
   id="path343" />
					<path
   style="fill:#f7b245;stroke:#250767;stroke-linecap:round;stroke-linejoin:round;stroke-miterlimit:10"
   d="m 152.383,188.441 c 0,0 -14.16,39.753 -18.115,54.256"
   id="path345" />
				</g>
			</g><g
     id="g423"
     transform="translate(-0.11000539,-0.04012702)">
				<g
   id="g421">
					<path
   style="fill:#f25b62;stroke:#250767;stroke-linecap:round;stroke-linejoin:round;stroke-miterlimit:10"
   d="m 70.22,146.19 c 18.676,-7.214 46.414,-0.142 53.788,18.95 7.374,19.091 -8.408,42.973 -27.084,50.187 -18.676,7.214 -33.71,-4.765 -41.084,-23.857 -7.374,-19.092 -4.296,-38.066 14.38,-45.28 z"
   id="path415" />
					<path
   style="opacity:0.15;fill:#250767"
   d="m 107.149,209.535 c -3.213,2.434 -6.668,4.419 -10.226,5.793 -18.674,7.212 -33.708,-4.764 -41.082,-23.857 -7.374,-19.092 -4.293,-38.068 14.38,-45.28 2.61,-1.007 5.396,-1.735 8.285,-2.191 -8.572,6.808 -14.035,17.093 -14.035,28.606 0,20.497 17.321,37.119 38.693,37.119 1.345,0.002 2.676,-0.065 3.985,-0.19 z"
   id="path417" />
					<path
   style="fill:#f7b245;stroke:#250767;stroke-linecap:round;stroke-linejoin:round;stroke-miterlimit:10"
   d="m 124.008,165.141 c 0,0 -37.832,13.833 -50.895,19.769"
   id="path419" />
				</g>
			</g><g
     id="g435"
     transform="translate(0.47722052,0.19352544)">
				<g
   id="g433">
					<path
   style="fill:#f25b62;stroke:#250767;stroke-linecap:round;stroke-linejoin:round;stroke-miterlimit:10"
   d="m 120.577,84.206 c 15.453,12.729 22.909,40.366 9.896,56.163 -13.012,15.797 -41.566,13.772 -57.019,1.042 -15.453,-12.729 -12.398,-31.708 0.614,-47.505 13.012,-15.797 31.056,-22.43 46.509,-9.7 z"
   id="path425" />
					<path
   style="opacity:0.15;fill:#250767"
   d="m 83.52,147.476 c -3.697,-1.604 -7.123,-3.64 -10.067,-6.065 -15.451,-12.728 -12.398,-31.705 0.616,-47.502 13.014,-15.797 31.057,-22.429 46.507,-9.701 2.159,1.779 4.161,3.849 5.976,6.143 -10.139,-4.126 -21.781,-3.836 -31.811,1.816 -17.857,10.062 -23.835,33.313 -13.343,51.932 0.66,1.171 1.371,2.298 2.122,3.377 z"
   id="path427" />
					<path
   style="opacity:0.49;fill:#f25b62"
   d="m 124.095,97.262 c 1.558,0.45 2.92,1.7 3.996,2.986 5.876,7.023 9.062,18.563 3.146,26.502 -0.95,1.275 -2.419,2.508 -3.961,2.116 -0.869,-0.221 -1.544,-0.936 -1.943,-1.739 -0.399,-0.803 -0.563,-1.699 -0.74,-2.578 -0.969,-4.828 -2.426,-9.559 -4.342,-14.095 -0.691,-1.637 -1.446,-3.261 -1.864,-4.989 -0.418,-1.728 -0.478,-3.598 0.206,-5.239 0.868,-2.084 3.174,-3.637 5.502,-2.964 z"
   id="path429" />
					<path
   style="fill:#f7b245;stroke:#250767;stroke-linecap:round;stroke-linejoin:round;stroke-miterlimit:10"
   d="m 130.474,140.369 c 0,0 -30.624,-26.168 -42.209,-34.635"
   id="path431" />
				</g>
			</g><g
     id="g413">
				<g
   id="g375">
					<defs
   id="defs352">
						
							<circle
   id="circle6343"
   transform="matrix(0.0274,-0.9996,0.9996,0.0274,-15.278,318.5719)"
   cx="156.071"
   cy="167.13699"
   r="45.881001" />
					</defs>
					<use
   xlink:href="#XMLID_00000168796302995090239390000005318709756422139271_"
   style="overflow:visible;fill:#f7b245"
   id="use354" />
					<clipPath
   id="clipPath6022">
						<use
   xlink:href="#XMLID_00000168796302995090239390000005318709756422139271_"
   style="overflow:visible"
   id="use6020" />
					</clipPath>
					<g
   clip-path="url(#XMLID_00000094614682075726313820000015932061833447953829_)"
   id="g371">
						<path
   style="fill:#fbe36f"
   d="m 198.874,183.661 c -4.952,12.833 -15.041,22.163 -27.013,26.557 10.783,-5.123 19.704,-14.227 24.341,-26.246 7.787,-20.173 1.129,-42.365 -14.913,-55.177 17.679,11.606 25.509,34.335 17.585,54.866 z"
   id="path359" />
						<path
   style="opacity:0.5;fill:#f7b245"
   d="m 176.098,208.41 c -11.038,5.361 -24.192,6.3 -36.55,1.53 -23.638,-9.124 -35.405,-35.687 -26.281,-59.326 6.488,-16.807 21.794,-27.616 38.594,-29.171 -10.097,4.888 -18.425,13.469 -22.781,24.754 -9.124,23.638 2.639,50.2 26.277,59.324 6.835,2.638 13.911,3.529 20.741,2.889 z"
   id="path361" />
						<g
   style="opacity:0.5"
   id="g369"
   transform="translate(-8.3602991,-2.2185053)">
							<path
   style="fill:#fbe36f"
   d="m 144.483,131.544 c -1.203,-0.067 -2.466,0.475 -3.536,1.113 -5.846,3.482 -10.916,10.793 -8.717,17.815 0.353,1.128 1.081,2.353 2.258,2.457 0.664,0.059 1.313,-0.277 1.79,-0.742 0.477,-0.465 0.813,-1.053 1.153,-1.627 1.866,-3.148 4.05,-6.108 6.508,-8.82 0.887,-0.979 1.815,-1.932 2.533,-3.041 0.717,-1.109 1.219,-2.406 1.143,-3.725 -0.098,-1.674 -1.334,-3.329 -3.132,-3.43 z"
   id="path363" />
							<path
   style="fill:#fbe36f"
   d="m 134.537,156.196 c -0.107,1.154 -1.004,2.015 -2.002,1.922 -0.999,-0.093 -1.721,-1.104 -1.614,-2.258 0.107,-1.154 1.004,-2.015 2.002,-1.922 0.998,0.092 1.721,1.103 1.614,2.258 z"
   id="path365" />
							<path
   style="fill:#fbe36f"
   d="m 133.221,160.798 c -0.079,0.847 -0.736,1.478 -1.468,1.41 -0.732,-0.068 -1.262,-0.81 -1.184,-1.656 0.078,-0.846 0.736,-1.478 1.468,-1.41 0.733,0.069 1.263,0.81 1.184,1.656 z"
   id="path367" />
						</g>
					</g>
					
						<use
   xlink:href="#XMLID_00000168796302995090239390000005318709756422139271_"
   style="overflow:visible;fill:none;stroke:#250767;stroke-linecap:round;stroke-linejoin:round;stroke-miterlimit:10"
   id="use373" />
				</g>
				
			</g><g
     id="g3953"
     transform="matrix(0.74602351,0,0,0.74602351,-32.945433,-36.216403)">
						<g
   id="g3929">
							<g
   id="g3919">
								<path
   style="fill:#ffffff;stroke:#250767;stroke-linecap:round;stroke-linejoin:round;stroke-miterlimit:10"
   d="m 251.612,262.683 c -0.109,12.019 -5.971,21.7 -13.079,21.636 -1.369,-0.012 -2.692,-0.391 -3.924,-1.074 -5.173,-2.847 -8.857,-11.097 -8.77,-20.796 0.088,-9.69 3.921,-17.872 9.145,-20.633 1.245,-0.66 2.574,-1.015 3.943,-1.002 7.108,0.064 12.794,9.859 12.685,21.869 z"
   id="path3913" />
								<g
   id="g3917">
									<path
   style="fill:#250767;stroke:#250767;stroke-linecap:round;stroke-linejoin:round;stroke-miterlimit:10"
   d="m 233.708,263.297 9.746,3.525 c -0.978,7.798 -4.41,14.073 -8.845,16.423 -5.173,-2.847 -8.857,-11.097 -8.77,-20.796 0.088,-9.69 3.921,-17.872 9.145,-20.633 4.556,2.527 7.95,9.231 8.626,17.427 -4.15,1.698 -9.902,4.054 -9.902,4.054 z"
   id="path3915" />
								</g>
							</g>
							<g
   id="g3927">
								<path
   style="fill:#ffffff;stroke:#250767;stroke-linecap:round;stroke-linejoin:round;stroke-miterlimit:10"
   d="m 279.845,262.939 c -0.109,12.019 -5.971,21.7 -13.079,21.635 -1.369,-0.012 -2.692,-0.391 -3.924,-1.074 -5.173,-2.847 -8.857,-11.097 -8.77,-20.796 0.088,-9.69 3.922,-17.872 9.145,-20.633 1.245,-0.66 2.574,-1.015 3.943,-1.002 7.108,0.065 12.794,9.859 12.685,21.87 z"
   id="path3921" />
								<g
   id="g3925">
									<path
   style="fill:#250767;stroke:#250767;stroke-linecap:round;stroke-linejoin:round;stroke-miterlimit:10"
   d="m 261.941,263.553 9.746,3.525 c -0.978,7.798 -4.41,14.073 -8.845,16.423 -5.173,-2.847 -8.857,-11.097 -8.77,-20.796 0.088,-9.69 3.922,-17.872 9.145,-20.633 4.556,2.527 7.95,9.231 8.626,17.427 -4.15,1.698 -9.902,4.054 -9.902,4.054 z"
   id="path3923" />
								</g>
							</g>
						</g>
						<path
   style="fill:none;stroke:#250767;stroke-linecap:round;stroke-linejoin:round;stroke-miterlimit:10"
   d="m 231.678,238.178 c 4.877,-3.125 9.996,-3.199 15.386,0.139"
   id="path3931" />
						<path
   style="fill:none;stroke:#250767;stroke-linecap:round;stroke-linejoin:round;stroke-miterlimit:10"
   d="m 258.246,238.419 c 4.877,-3.125 9.996,-3.199 15.385,0.139"
   id="path3933" />
						<g
   id="g3945">
							<g
   id="g3941">
								<path
   style="fill:#250767"
   d="m 274.448,303.705 c -0.214,0.251 -0.439,0.501 -0.653,0.729 -8.572,9.124 -22.957,8.212 -33.085,3.957 -1.725,-0.72 -3.775,-1.957 -5.632,-3.56 -3.463,-3.005 -6.227,-7.33 -4.795,-12.078 1.593,-5.267 5.963,-5.722 9.924,-4.944 3.777,0.739 7.536,2.347 11.4,2.218 4.154,-0.135 8.299,-0.931 12.273,-2.414 4.055,-1.528 8.79,-3.959 12.204,-0.757 0.614,0.581 1.19,1.347 1.703,2.343 2.631,5.028 -0.12,10.769 -3.339,14.506 z"
   id="path3935" />
								<g
   id="g3939">
									<path
   style="fill:#250767"
   d="m 274.094,303.352 c -4.957,5.745 -12.433,7.928 -19.832,7.612 -3.569,-0.153 -7.112,-0.843 -10.502,-1.964 -3.891,-1.286 -7.461,-3.27 -10.205,-6.375 -2.757,-3.119 -4.227,-7.418 -2.151,-11.321 1.562,-2.936 4.733,-3.598 7.804,-3.162 2.219,0.315 4.365,1.036 6.532,1.582 2.295,0.579 4.555,0.894 6.923,0.753 2.402,-0.143 4.795,-0.503 7.131,-1.08 2.258,-0.558 4.403,-1.384 6.568,-2.219 1.828,-0.705 3.774,-1.432 5.762,-1.395 2.079,0.039 3.726,1.184 4.805,2.918 2.432,3.911 1.314,8.497 -1.003,12.173 -0.548,0.871 -1.163,1.695 -1.832,2.478 -0.416,0.487 0.288,1.197 0.707,0.707 2.755,-3.226 5.029,-7.502 4.444,-11.874 -0.287,-2.147 -1.316,-4.37 -2.959,-5.82 -1.512,-1.335 -3.455,-1.752 -5.423,-1.508 -2.17,0.269 -4.206,1.137 -6.226,1.928 -2.37,0.929 -4.804,1.658 -7.309,2.123 -2.594,0.482 -5.35,0.824 -7.984,0.512 -2.539,-0.3 -4.978,-1.142 -7.451,-1.749 -3.183,-0.781 -6.912,-1.254 -9.639,0.991 -3.165,2.605 -3.471,7.424 -1.882,10.947 1.815,4.023 5.714,7.247 9.674,9.033 3.421,1.543 7.134,2.525 10.848,3.02 7.609,1.014 15.818,-0.253 21.758,-5.434 0.769,-0.671 1.482,-1.398 2.148,-2.17 0.42,-0.484 -0.285,-1.194 -0.706,-0.706 z"
   id="path3937" />
								</g>
							</g>
							<path
   style="fill:#f25b62;stroke:#250767;stroke-linecap:round;stroke-linejoin:round;stroke-miterlimit:10"
   d="m 274.448,303.705 c -0.214,0.251 -0.439,0.501 -0.653,0.729 -8.572,9.124 -22.957,8.212 -33.085,3.957 -1.725,-0.72 -3.775,-1.957 -5.632,-3.56 2.377,-7.28 10.626,-12.537 20.305,-12.337 8.809,0.18 16.239,4.833 19.065,11.211 z"
   id="path3943" />
						</g>
						<g
   id="g3951">
							<path
   style="fill:#f25b62"
   d="m 307.928,280.272 c -0.096,4.672 -6.261,8.334 -13.77,8.179 -7.508,-0.155 -13.517,-4.068 -13.421,-8.74 0.096,-4.672 6.261,-8.334 13.77,-8.179 7.508,0.155 13.517,4.067 13.421,8.74 z"
   id="path3947" />
							<path
   style="fill:#f25b62"
   d="m 223.334,278.527 c -0.096,4.672 -6.261,8.334 -13.77,8.179 -7.509,-0.155 -13.517,-4.068 -13.421,-8.74 0.096,-4.672 6.261,-8.334 13.77,-8.179 7.509,0.156 13.517,4.068 13.421,8.74 z"
   id="path3949" />
						</g>
					</g></g></g></g>
	
</g>

</svg>
