<?xml version="1.0" encoding="UTF-8"?>
<svg id="Layer_3" data-name="Layer 3" xmlns="http://www.w3.org/2000/svg" xmlns:xlink="http://www.w3.org/1999/xlink" viewBox="0 0 1065.97 996.6">
  <defs>
    <style>
      .cls-1 {
        fill: #4cb050;
      }

      .cls-2 {
        fill: #9c28b1;
      }

      .cls-3 {
        fill: #ffeb3c;
      }

      .cls-4 {
        fill: #f44236;
      }

      .cls-5 {
        fill: #fe9800;
      }

      .cls-6 {
        fill: #2196f3;
      }

      .cls-7 {
        clip-path: url(#clippath);
      }

      .cls-8 {
        fill: none;
      }
    </style>
    <clipPath id="clippath">
      <circle class="cls-8" cx="545.6" cy="502.6" r="494"/>
    </clipPath>
  </defs>
  <g class="cls-7">
    <g>
      <path class="cls-2" d="M428.55,973.01s151.1,33.24,226.42,0c0,0-85.08-24.93-111.35-109.96,0,0-17.9,89.5-115.07,109.96Z"/>
      <path class="cls-6" d="M569.19,719.85s30.69,207.13,255.71,186.67c0,0-71.6,43.47-102.28,48.59,0,0-212.24,15.34-153.43-235.26Z"/>
      <path class="cls-6" d="M521.12,718.65s-30.69,207.13-255.71,186.67c0,0,71.6,43.47,102.28,48.59,0,0,212.24,15.34,153.43-235.26Z"/>
      <path class="cls-1" d="M850.48,888.62s182.72-129.93,153.43-258.27c-14.83-64.95-48.24-149.35-240.37-115.07-71.45,12.75-219.91,58.81-150.87,248.04,0,0,38.36,135.53,237.81,125.3Z"/>
      <path class="cls-1" d="M247.57,875.63s-182.72-129.93-153.43-258.27c14.83-64.95,48.24-149.35,240.37-115.07,71.45,12.75,219.91,58.81,150.87,248.04,0,0-38.36,135.53-237.81,125.3Z"/>
      <path class="cls-3" d="M1021.8,602.22s-21.32-149.19-261.26-107.84c0,0,145.27-102.72,272.31,0,0,0,4.29,69.48-11.05,107.84Z"/>
      <path class="cls-3" d="M71.71,592.44s21.32-149.19,261.26-107.84c0,0-145.27-102.72-272.31,0,0,0-4.29,69.48,11.05,107.84Z"/>
      <path class="cls-3" d="M546.18,673.82s46.03-153.43,242.93-227.58c0,0-241.41-309.48-485.85-12.79,0,0,189.23,58.81,242.93,240.37Z"/>
      <g>
        <path class="cls-5" d="M541.76,280.87s193.64,1.72,275.47,155.14c0,0,112.71-44.42,216.17,23.82,0,0-13.5-164.84-232.46-142.91,0,0-71.81-112.98-259.18-112.01v75.96Z"/>
        <path class="cls-5" d="M543.62,280.51s-193.64,1.72-275.47,155.14c0,0-112.71-44.42-216.17,23.82,0,0,13.5-164.84,232.46-142.91,0,0,71.81-112.98,259.18-112.01v75.96Z"/>
      </g>
      <g>
        <path class="cls-4" d="M553.85,182.86s179.66-5.83,257.32,109.6c0,0,152.44-18.62,213.19,82.19,0,0-58.81-342.44-465.4-373.34l-5.11,181.56Z"/>
        <path class="cls-4" d="M540.1,181.78s-179.66-5.83-257.32,109.6c0,0-152.44-18.62-213.19,82.19,0,0,58.81-342.44,465.4-373.34l5.11,181.56Z"/>
      </g>
      <path class="cls-4" d="M533.69,181.74l28.32,1.11L572.38,2.55s-22.45-3.45-38.29-2.32c-14.38,1.03-.39,181.51-.39,181.51Z"/>
    </g>
  </g>
</svg>